<?xml version="1.0" encoding="utf-8"?>
<!-- Generator: Adobe Illustrator 22.0.0, SVG Export Plug-In . SVG Version: 6.00 Build 0)  -->
<svg version="1.1" id="Capa_1" xmlns="http://www.w3.org/2000/svg" xmlns:xlink="http://www.w3.org/1999/xlink" x="0px" y="0px"
	 viewBox="0 0 396.9 396.9" style="enable-background:new 0 0 396.9 396.9;" xml:space="preserve">
<style type="text/css">
	.st0{fill:#FFFFFF;}
	.st1{fill:#B4B3B4;}
	.st2{enable-background:new    ;}
	.st3{fill:#DE271D;}
	.st4{fill:#1A1C1E;}
</style>
<g>
	<g>
		<g>
			<rect x="-0.5" y="-0.5" class="st0" width="397.9" height="397.9"/>
			<path d="M396.9,0v396.9H0V0H396.9 M397.9-1h-1H0h-1v1v396.9v1h1h396.9h1v-1V0V-1L397.9-1z"/>
		</g>
		<rect y="340.2" class="st1" width="396.9" height="56.7"/>
		<g class="st2">
			<path d="M183.6,357.4v-10.1h1.9v8.6h3.5v1.5H183.6z"/>
			<path d="M190.3,351.5c0-0.8,0.1-1.4,0.1-1.9c0.1-0.5,0.2-0.9,0.4-1.3s0.5-0.7,1-0.9c0.4-0.2,1-0.3,1.8-0.3s1.3,0.1,1.8,0.3
				c0.4,0.2,0.8,0.5,1,0.9s0.4,0.8,0.4,1.3c0.1,0.5,0.1,1.1,0.1,1.9v1.4c0,0.8,0,1.5-0.1,2c-0.1,0.5-0.2,1-0.4,1.4
				c-0.2,0.4-0.5,0.7-1,0.9c-0.4,0.2-1,0.3-1.8,0.3s-1.3-0.1-1.8-0.3c-0.4-0.2-0.8-0.5-1-0.9c-0.2-0.4-0.4-0.9-0.4-1.4
				c-0.1-0.5-0.1-1.2-0.1-2V351.5z M192.2,353.9c0,0.3,0,0.5,0,0.8s0.1,0.5,0.2,0.7c0.1,0.2,0.2,0.4,0.4,0.5
				c0.2,0.1,0.4,0.2,0.7,0.2c0.3,0,0.6-0.1,0.8-0.2c0.2-0.1,0.3-0.3,0.4-0.6c0.1-0.2,0.1-0.5,0.2-0.7c0-0.2,0-0.5,0-0.9v-2.6
				c0-0.3,0-0.7,0-0.9s-0.1-0.5-0.2-0.8s-0.2-0.5-0.4-0.6c-0.2-0.2-0.4-0.3-0.8-0.3c-0.3,0-0.6,0.1-0.7,0.2
				c-0.2,0.1-0.3,0.3-0.4,0.6c-0.1,0.2-0.1,0.5-0.2,0.8s0,0.6,0,1V353.9z"/>
			<path d="M198.4,351.5c0-0.8,0.1-1.4,0.1-1.9c0.1-0.5,0.2-0.9,0.4-1.3c0.2-0.4,0.5-0.7,1-0.9c0.4-0.2,1-0.3,1.8-0.3
				c0.9,0,1.6,0.2,2.1,0.5c0.5,0.3,0.9,0.9,1.1,1.7c0.1,0.2,0.1,0.5,0.1,1c0,0.1,0,0.2,0,0.2h-1.9c0-0.3,0-0.6-0.1-0.8
				c0-0.2-0.1-0.4-0.2-0.6s-0.2-0.3-0.4-0.4c-0.2-0.1-0.4-0.2-0.7-0.2c-0.3,0-0.5,0.1-0.7,0.2c-0.2,0.1-0.3,0.3-0.4,0.6
				s-0.1,0.5-0.2,0.8c0,0.3,0,0.6,0,1v2.8c0,0.3,0,0.5,0,0.8c0,0.2,0.1,0.5,0.2,0.7c0.1,0.2,0.2,0.4,0.4,0.5
				c0.2,0.1,0.4,0.2,0.7,0.2c0.5,0,0.8-0.2,1.1-0.7c0.2-0.5,0.3-1.1,0.3-2h-1.3V352h3.1v5.4h-1.4v-1.2h0c-0.2,0.5-0.4,0.8-0.7,1
				c-0.3,0.2-0.7,0.3-1.1,0.4c-0.7,0-1.3-0.1-1.8-0.3c-0.4-0.2-0.8-0.5-1-0.9c-0.2-0.4-0.4-0.9-0.4-1.4c-0.1-0.5-0.1-1.2-0.1-2
				V351.5z"/>
			<path d="M206.7,351.5c0-0.8,0.1-1.4,0.1-1.9c0.1-0.5,0.2-0.9,0.4-1.3s0.5-0.7,1-0.9c0.4-0.2,1-0.3,1.8-0.3s1.3,0.1,1.8,0.3
				c0.4,0.2,0.8,0.5,1,0.9s0.4,0.8,0.4,1.3c0.1,0.5,0.1,1.1,0.1,1.9v1.4c0,0.8,0,1.5-0.1,2c-0.1,0.5-0.2,1-0.4,1.4
				c-0.2,0.4-0.5,0.7-1,0.9c-0.4,0.2-1,0.3-1.8,0.3c-0.7,0-1.3-0.1-1.8-0.3c-0.4-0.2-0.8-0.5-1-0.9s-0.4-0.9-0.4-1.4
				c-0.1-0.5-0.1-1.2-0.1-2V351.5z M208.7,353.9c0,0.3,0,0.5,0,0.8c0,0.2,0.1,0.5,0.2,0.7c0.1,0.2,0.2,0.4,0.4,0.5
				c0.2,0.1,0.4,0.2,0.7,0.2c0.3,0,0.6-0.1,0.8-0.2c0.2-0.1,0.3-0.3,0.4-0.6c0.1-0.2,0.1-0.5,0.2-0.7c0-0.2,0-0.5,0-0.9v-2.6
				c0-0.3,0-0.7,0-0.9s-0.1-0.5-0.2-0.8c-0.1-0.3-0.2-0.5-0.4-0.6s-0.4-0.3-0.8-0.3c-0.3,0-0.5,0.1-0.7,0.2
				c-0.2,0.1-0.3,0.3-0.4,0.6c-0.1,0.2-0.1,0.5-0.2,0.8c0,0.3,0,0.6,0,1V353.9z"/>
		</g>
		<g class="st2">
			<path d="M168.7,366.9c0-0.8,0.1-1.4,0.1-1.9c0.1-0.5,0.2-0.9,0.4-1.3s0.5-0.7,1-0.9c0.4-0.2,1-0.3,1.8-0.3s1.3,0.1,1.8,0.3
				c0.4,0.2,0.8,0.5,1,0.9s0.4,0.8,0.4,1.3c0.1,0.5,0.1,1.1,0.1,1.9v1.4c0,0.8,0,1.5-0.1,2c-0.1,0.5-0.2,1-0.4,1.4
				c-0.2,0.4-0.5,0.7-1,0.9c-0.4,0.2-1,0.3-1.8,0.3s-1.3-0.1-1.8-0.3c-0.4-0.2-0.8-0.5-1-0.9c-0.2-0.4-0.4-0.9-0.4-1.4
				c-0.1-0.5-0.1-1.2-0.1-2V366.9z M170.7,369.3c0,0.3,0,0.5,0,0.8s0.1,0.5,0.2,0.7c0.1,0.2,0.2,0.4,0.4,0.5
				c0.2,0.1,0.4,0.2,0.7,0.2c0.3,0,0.6-0.1,0.8-0.2c0.2-0.1,0.3-0.3,0.4-0.6c0.1-0.2,0.1-0.5,0.2-0.7c0-0.2,0-0.5,0-0.9v-2.6
				c0-0.3,0-0.7,0-0.9s-0.1-0.5-0.2-0.8s-0.2-0.5-0.4-0.6c-0.2-0.2-0.4-0.3-0.8-0.3c-0.3,0-0.6,0.1-0.7,0.2
				c-0.2,0.1-0.3,0.3-0.4,0.6c-0.1,0.2-0.1,0.5-0.2,0.8s0,0.6,0,1V369.3z"/>
			<path d="M184.9,362.7h1.9v10.1h-2l-1.5-3.6c-0.2-0.6-0.5-1.2-0.7-1.8c-0.2-0.6-0.4-1.4-0.7-2.2h0c0,0.6,0.1,1.1,0.1,1.6
				c0,0.4,0.1,0.9,0.1,1.3c0,0.6,0.1,1.1,0.1,1.6c0,0.5,0,0.9,0,1.2v1.9h-1.9v-10.1h2l1.5,3.7c0.3,0.6,0.5,1.2,0.7,1.9
				c0.2,0.6,0.4,1.4,0.7,2.2h0c-0.1-1.1-0.1-2-0.2-2.9c-0.1-1.1-0.1-2.1-0.1-2.8V362.7z"/>
			<path d="M188.6,366.9c0-0.8,0.1-1.4,0.1-1.9c0.1-0.5,0.2-0.9,0.4-1.3s0.5-0.7,1-0.9c0.4-0.2,1-0.3,1.8-0.3s1.3,0.1,1.8,0.3
				c0.4,0.2,0.8,0.5,1,0.9s0.4,0.8,0.4,1.3c0.1,0.5,0.1,1.1,0.1,1.9v1.4c0,0.8,0,1.5-0.1,2c-0.1,0.5-0.2,1-0.4,1.4
				c-0.2,0.4-0.5,0.7-1,0.9c-0.4,0.2-1,0.3-1.8,0.3s-1.3-0.1-1.8-0.3c-0.4-0.2-0.8-0.5-1-0.9c-0.2-0.4-0.4-0.9-0.4-1.4
				c-0.1-0.5-0.1-1.2-0.1-2V366.9z M190.5,369.3c0,0.3,0,0.5,0,0.8s0.1,0.5,0.2,0.7c0.1,0.2,0.2,0.4,0.4,0.5
				c0.2,0.1,0.4,0.2,0.7,0.2c0.3,0,0.6-0.1,0.8-0.2c0.2-0.1,0.3-0.3,0.4-0.6c0.1-0.2,0.1-0.5,0.2-0.7c0-0.2,0-0.5,0-0.9v-2.6
				c0-0.3,0-0.7,0-0.9s-0.1-0.5-0.2-0.8s-0.2-0.5-0.4-0.6c-0.2-0.2-0.4-0.3-0.8-0.3c-0.3,0-0.6,0.1-0.7,0.2
				c-0.2,0.1-0.3,0.3-0.4,0.6c-0.1,0.2-0.1,0.5-0.2,0.8s0,0.6,0,1V369.3z"/>
			<path d="M198.8,372.8h-1.9v-10.1h3l1,4.7c0.1,0.7,0.3,1.5,0.4,2.3h0c0.1-0.6,0.1-1.1,0.1-1.4c0-0.3,0.1-0.6,0.2-0.9l1-4.7h3v10.1
				h-1.9v-3.2c0-2.2,0.1-4.2,0.2-6h0l-2,9.2h-1.1l-2-9.2h-0.1c0.1,1.8,0.2,3.8,0.2,6V372.8z"/>
			<path d="M207.3,372.8v-10.1h3c0.5,0,0.9,0,1.3,0.1c0.3,0.1,0.6,0.3,0.9,0.6c0.2,0.3,0.3,0.5,0.4,0.8c0.1,0.3,0.1,0.6,0.1,1
				c0,0.5-0.1,1-0.3,1.3c-0.2,0.4-0.5,0.6-1,0.8v0c0.5,0.1,0.9,0.3,1.1,0.7c0.2,0.4,0.3,0.9,0.3,1.6c0,0.5,0,0.9-0.1,1.2
				c-0.2,0.6-0.5,1.1-0.9,1.4c-0.4,0.3-0.9,0.4-1.6,0.4H207.3z M209.6,366.8c0.4,0,0.7,0,0.9-0.1c0.2,0,0.4-0.1,0.5-0.3
				c0.1-0.2,0.2-0.6,0.2-1.1c0-0.4-0.1-0.7-0.2-0.9c-0.1-0.2-0.4-0.3-0.8-0.3h-0.9v2.6H209.6z M209.6,371.3c0.4,0,0.6,0,0.7,0
				c0.1,0,0.3,0,0.4-0.1c0.2-0.1,0.4-0.3,0.5-0.5c0.1-0.3,0.1-0.5,0.1-0.9c0-0.6-0.1-1-0.3-1.2c-0.2-0.2-0.6-0.3-1.1-0.3h-0.7v3.1
				H209.6z"/>
			<path d="M216.7,368.4v4.4h-1.9v-10.1h3.6c0.4,0,0.8,0,1.2,0.1s0.6,0.2,0.9,0.4s0.5,0.4,0.6,0.8c0.1,0.3,0.2,0.7,0.2,1.1
				c0,0.3,0,0.6-0.1,0.9c0,0.3-0.1,0.5-0.2,0.7c-0.1,0.2-0.3,0.4-0.5,0.6s-0.5,0.2-0.8,0.3v0c0.5,0.1,0.9,0.3,1.1,0.6
				c0.2,0.3,0.3,0.7,0.3,1.3c0,0.4,0,0.8,0,1.1c0,0.3,0,0.6,0.1,0.9c0,0.3,0.1,0.6,0.1,0.8s0.1,0.3,0.2,0.4v0.2h-2.1
				c-0.1-0.2-0.1-0.5-0.2-0.9c0-0.4,0-0.8,0-1.3c0-0.2,0-0.4,0-0.4v-0.1c0-0.2,0-0.4,0-0.6c0-0.1,0-0.3-0.1-0.4
				c0-0.1-0.1-0.3-0.2-0.4s-0.2-0.2-0.4-0.2c-0.2-0.1-0.4-0.1-0.6-0.1s-0.6,0-1,0H216.7z M216.7,366.9h1.5c0.3,0,0.6-0.1,0.8-0.4
				c0.2-0.2,0.3-0.6,0.3-1.1c0-0.5-0.1-0.9-0.3-1.1c-0.2-0.2-0.5-0.3-0.9-0.3h-1.4V366.9z"/>
			<path d="M223,372.8v-10.1h5.3v1.5h-3.4v2.5h3.2v1.5h-3.2v3.1h3.4v1.5H223z"/>
		</g>
		<g class="st2">
			<path d="M166.4,388.2v-10.1h3.9c0.4,0,0.8,0.1,1.1,0.2c0.3,0.2,0.5,0.4,0.7,0.6c0.2,0.3,0.3,0.6,0.4,0.9c0.1,0.3,0.1,0.7,0.1,1.1
				c0,0.5-0.1,0.9-0.2,1.4c-0.1,0.4-0.4,0.8-0.7,1c-0.3,0.2-0.6,0.4-0.9,0.5c-0.4,0.1-0.7,0.1-1.2,0.1h-1.3v4.2H166.4z M168.3,382.5
				h1c0.4,0,0.8-0.1,1-0.4c0.2-0.2,0.4-0.6,0.4-1.2c0-0.5-0.1-0.9-0.3-1.1c-0.2-0.2-0.6-0.3-1.2-0.3h-0.9V382.5z"/>
			<path d="M175.8,383.8v4.4h-1.9v-10.1h3.6c0.4,0,0.8,0,1.2,0.1s0.6,0.2,0.9,0.4s0.5,0.4,0.6,0.8c0.1,0.3,0.2,0.7,0.2,1.1
				c0,0.3,0,0.6-0.1,0.9c0,0.3-0.1,0.5-0.2,0.7c-0.1,0.2-0.3,0.4-0.5,0.6s-0.5,0.2-0.8,0.3v0c0.5,0.1,0.9,0.3,1.1,0.6
				c0.2,0.3,0.3,0.7,0.3,1.3c0,0.4,0,0.8,0,1.1c0,0.3,0,0.6,0.1,0.9c0,0.3,0.1,0.6,0.1,0.8c0.1,0.2,0.1,0.3,0.2,0.4v0.2h-2.1
				c-0.1-0.2-0.1-0.5-0.2-0.9c0-0.4,0-0.8,0-1.3c0-0.2,0-0.4,0-0.4v-0.1c0-0.2,0-0.4,0-0.6c0-0.1,0-0.3-0.1-0.4
				c0-0.1-0.1-0.3-0.2-0.4s-0.2-0.2-0.4-0.2c-0.2-0.1-0.4-0.1-0.6-0.1c-0.2,0-0.6,0-1,0H175.8z M175.8,382.3h1.5
				c0.3,0,0.6-0.1,0.8-0.4c0.2-0.2,0.3-0.6,0.3-1.1c0-0.5-0.1-0.9-0.3-1.1c-0.2-0.2-0.5-0.3-0.9-0.3h-1.4V382.3z"/>
			<path d="M182.1,382.3c0-0.8,0.1-1.4,0.1-1.9c0.1-0.5,0.2-0.9,0.4-1.3s0.5-0.7,1-0.9c0.4-0.2,1-0.3,1.8-0.3s1.3,0.1,1.8,0.3
				c0.4,0.2,0.8,0.5,1,0.9s0.4,0.8,0.4,1.3c0.1,0.5,0.1,1.1,0.1,1.9v1.4c0,0.8,0,1.5-0.1,2c-0.1,0.5-0.2,1-0.4,1.4
				c-0.2,0.4-0.5,0.7-1,0.9c-0.4,0.2-1,0.3-1.8,0.3s-1.3-0.1-1.8-0.3c-0.4-0.2-0.8-0.5-1-0.9c-0.2-0.4-0.4-0.9-0.4-1.4
				c-0.1-0.5-0.1-1.2-0.1-2V382.3z M184,384.7c0,0.3,0,0.5,0,0.8s0.1,0.5,0.2,0.7c0.1,0.2,0.2,0.4,0.4,0.5c0.2,0.1,0.4,0.2,0.7,0.2
				c0.3,0,0.6-0.1,0.8-0.2c0.2-0.1,0.3-0.3,0.4-0.6c0.1-0.2,0.1-0.5,0.2-0.7c0-0.2,0-0.5,0-0.9V382c0-0.3,0-0.7,0-0.9
				s-0.1-0.5-0.2-0.8s-0.2-0.5-0.4-0.6c-0.2-0.2-0.4-0.3-0.8-0.3c-0.3,0-0.6,0.1-0.7,0.2c-0.2,0.1-0.3,0.3-0.4,0.6
				c-0.1,0.2-0.1,0.5-0.2,0.8s0,0.6,0,1V384.7z"/>
			<path d="M192.3,388.2h-1.9v-10.1h3l1,4.7c0.1,0.7,0.3,1.5,0.4,2.3h0c0.1-0.6,0.1-1.1,0.1-1.4c0-0.3,0.1-0.6,0.2-0.9l1-4.7h3v10.1
				h-1.9V385c0-2.2,0.1-4.2,0.2-6h0l-2,9.2h-1.1l-2-9.2h-0.1c0.1,1.8,0.2,3.8,0.2,6V388.2z"/>
			<path d="M200.8,382.3c0-0.8,0.1-1.4,0.1-1.9c0.1-0.5,0.2-0.9,0.4-1.3s0.5-0.7,1-0.9c0.4-0.2,1-0.3,1.8-0.3s1.3,0.1,1.8,0.3
				c0.4,0.2,0.8,0.5,1,0.9s0.4,0.8,0.4,1.3c0.1,0.5,0.1,1.1,0.1,1.9v1.4c0,0.8,0,1.5-0.1,2c-0.1,0.5-0.2,1-0.4,1.4
				c-0.2,0.4-0.5,0.7-1,0.9c-0.4,0.2-1,0.3-1.8,0.3c-0.7,0-1.3-0.1-1.8-0.3c-0.4-0.2-0.8-0.5-1-0.9s-0.4-0.9-0.4-1.4
				c-0.1-0.5-0.1-1.2-0.1-2V382.3z M202.7,384.7c0,0.3,0,0.5,0,0.8c0,0.2,0.1,0.5,0.2,0.7c0.1,0.2,0.2,0.4,0.4,0.5
				c0.2,0.1,0.4,0.2,0.7,0.2c0.3,0,0.6-0.1,0.8-0.2c0.2-0.1,0.3-0.3,0.4-0.6c0.1-0.2,0.1-0.5,0.2-0.7c0-0.2,0-0.5,0-0.9V382
				c0-0.3,0-0.7,0-0.9s-0.1-0.5-0.2-0.8c-0.1-0.3-0.2-0.5-0.4-0.6s-0.4-0.3-0.8-0.3c-0.3,0-0.5,0.1-0.7,0.2
				c-0.2,0.1-0.3,0.3-0.4,0.6c-0.1,0.2-0.1,0.5-0.2,0.8c0,0.3,0,0.6,0,1V384.7z"/>
			<path d="M208.4,378.1h6.3v1.5h-2.2v8.6h-1.9v-8.6h-2.2V378.1z"/>
			<path d="M215.7,382.3c0-0.8,0.1-1.4,0.1-1.9c0.1-0.5,0.2-0.9,0.4-1.3s0.5-0.7,1-0.9c0.4-0.2,1-0.3,1.8-0.3s1.3,0.1,1.8,0.3
				c0.4,0.2,0.8,0.5,1,0.9s0.4,0.8,0.4,1.3c0.1,0.5,0.1,1.1,0.1,1.9v1.4c0,0.8,0,1.5-0.1,2c-0.1,0.5-0.2,1-0.4,1.4
				c-0.2,0.4-0.5,0.7-1,0.9c-0.4,0.2-1,0.3-1.8,0.3c-0.7,0-1.3-0.1-1.8-0.3c-0.4-0.2-0.8-0.5-1-0.9s-0.4-0.9-0.4-1.4
				c-0.1-0.5-0.1-1.2-0.1-2V382.3z M217.7,384.7c0,0.3,0,0.5,0,0.8c0,0.2,0.1,0.5,0.2,0.7c0.1,0.2,0.2,0.4,0.4,0.5
				c0.2,0.1,0.4,0.2,0.7,0.2c0.3,0,0.6-0.1,0.8-0.2c0.2-0.1,0.3-0.3,0.4-0.6c0.1-0.2,0.1-0.5,0.2-0.7c0-0.2,0-0.5,0-0.9V382
				c0-0.3,0-0.7,0-0.9s-0.1-0.5-0.2-0.8c-0.1-0.3-0.2-0.5-0.4-0.6s-0.4-0.3-0.8-0.3c-0.3,0-0.5,0.1-0.7,0.2
				c-0.2,0.1-0.3,0.3-0.4,0.6c-0.1,0.2-0.1,0.5-0.2,0.8c0,0.3,0,0.6,0,1V384.7z"/>
			<path d="M225.9,383.8v4.4H224v-10.1h3.6c0.4,0,0.8,0,1.2,0.1s0.6,0.2,0.9,0.4s0.5,0.4,0.6,0.8c0.1,0.3,0.2,0.7,0.2,1.1
				c0,0.3,0,0.6-0.1,0.9c0,0.3-0.1,0.5-0.2,0.7c-0.1,0.2-0.3,0.4-0.5,0.6s-0.5,0.2-0.8,0.3v0c0.5,0.1,0.9,0.3,1.1,0.6
				s0.3,0.7,0.3,1.3c0,0.4,0,0.8,0,1.1c0,0.3,0,0.6,0.1,0.9c0,0.3,0.1,0.6,0.1,0.8c0.1,0.2,0.1,0.3,0.2,0.4v0.2h-2.1
				c-0.1-0.2-0.1-0.5-0.2-0.9c0-0.4,0-0.8,0-1.3c0-0.2,0-0.4,0-0.4v-0.1c0-0.2,0-0.4,0-0.6c0-0.1,0-0.3-0.1-0.4
				c0-0.1-0.1-0.3-0.2-0.4s-0.2-0.2-0.4-0.2c-0.2-0.1-0.4-0.1-0.6-0.1c-0.2,0-0.6,0-1,0H225.9z M225.9,382.3h1.5
				c0.3,0,0.6-0.1,0.8-0.4c0.2-0.2,0.3-0.6,0.3-1.1c0-0.5-0.1-0.9-0.3-1.1c-0.2-0.2-0.5-0.3-0.9-0.3h-1.4V382.3z"/>
		</g>
	</g>
	<g>
		<g>
			<polygon class="st3" points="198.4,27.7 94.5,208.5 302.4,208.5 			"/>
			<g>
				<path class="st3" d="M183.1,266.8c0,24.5-19.8,44.4-44.3,44.4s-44.3-19.9-44.3-44.4s19.8-44.4,44.3-44.4
					C163.3,222.5,183.1,242.3,183.1,266.8"/>
				<path class="st3" d="M302.4,266.8c0,24.5-19.8,44.4-44.3,44.4s-44.3-19.9-44.3-44.4s19.8-44.4,44.3-44.4
					C282.5,222.5,302.4,242.3,302.4,266.8"/>
			</g>
			<g>
				<g>
					<path class="st0" d="M285.9,268.8c-0.9,1.8-4.8,1.3-9-0.8c-4.2-2.2-6.9-5.1-6.1-6.9c0-0.1,0.1-0.2,0.1-0.2
						c-0.2,0.2-0.3,0.3-0.4,0.5c-0.9,1.9,1.6,6.2,6.3,8.6c4.7,2.4,9.9,2.1,10.9,0.1c0.9-1.9-2.1-5.5-6.9-7.9
						c-0.1-0.1-0.3-0.1-0.4-0.2C284.4,264.2,286.7,267.1,285.9,268.8z"/>
					<path class="st0" d="M277.5,271.8c0,0-7.8-2.9-12.2-11.3c-1.5-3-5.7-11-16.4-6.4c0,0,6.3-0.7,10.4,6.1
						C264.3,268.6,272.3,271.6,277.5,271.8z"/>
					<path class="st0" d="M232.3,247.8c2.6-2.3,8.5,1.3,13.8,8c5.3,6.7,7.6,13.5,5,15.7c-0.1,0.1-0.3,0.2-0.4,0.3
						c0.4-0.1,0.7-0.3,1-0.6c2.9-2.5,1.7-11.4-4.2-18.8c-5.9-7.5-14.5-10.7-17.3-8.2c-2.9,2.5-0.4,10.6,5.6,18.1
						c0.2,0.2,0.4,0.5,0.5,0.7C231.5,256.4,229.8,250,232.3,247.8z"/>
					<g>
						<path class="st0" d="M269.1,247.5c-0.5-0.1,8.7,2,11.8,9.3C287.5,256.3,284.2,249.2,269.1,247.5z"/>
					</g>
					<g>
						<path class="st0" d="M248.2,252.8c-0.3,0.6,6.1-9.1,38,11.6C285.6,262.1,258.1,231.2,248.2,252.8z"/>
					</g>
					<path class="st0" d="M272.1,271.8c0,0-5.3-1.6-10-5.6c-3-2.6-6.9-5.4-15.4-3.6c0,0,5-0.6,10,3.3
						C262.4,270.3,267.1,271.6,272.1,271.8z"/>
				</g>
				<g>
					<path class="st0" d="M230.4,277.1l-0.5-0.7h-0.4v0.7H229v-2.3h1c0.5,0,0.8,0.3,0.8,0.7l0,0c0,0.4-0.2,0.6-0.5,0.7l0.6,0.8
						L230.4,277.1L230.4,277.1z M230.5,275.6c0-0.2-0.1-0.3-0.4-0.3h-0.5v0.6h0.5C230.3,275.9,230.5,275.8,230.5,275.6L230.5,275.6z
						"/>
					<path class="st0" d="M231.7,277.1v-2.3h1.7v0.4h-1.2v0.5h1.1v0.4h-1.1v0.5h1.2v0.4h-1.7V277.1z"/>
					<path class="st0" d="M235.9,277.1l-0.2-0.5h-1l-0.2,0.5H234l1-2.3h0.5l1,2.3H235.9z M235.2,275.4l-0.3,0.7h0.6L235.2,275.4z"/>
					<path class="st0" d="M237.1,277.1v-2.3h0.5v1.8h1.1v0.5H237.1z"/>
					<path class="st0" d="M241.2,275.3v0.5h1.1v0.5h-1.1v0.9h-0.5v-2.3h1.7v0.5h-1.2V275.3z"/>
					<path class="st0" d="M243.1,277.1v-2.3h1.7v0.4h-1.2v0.5h1.1v0.4h-1.1v0.5h1.2v0.4h-1.7V277.1z"/>
					<path class="st0" d="M246.4,277.1h-0.9v-2.3h0.9c0.7,0,1.2,0.5,1.2,1.1l0,0C247.6,276.6,247.2,277.1,246.4,277.1z M247.1,275.9
						c0-0.4-0.3-0.7-0.7-0.7H246v1.4h0.4C246.8,276.6,247.1,276.4,247.1,275.9L247.1,275.9z"/>
					<path class="st0" d="M248.4,277.1v-2.3h1.7v0.4h-1.2v0.5h1.1v0.4h-1.1v0.5h1.2v0.4h-1.7V277.1z"/>
					<path class="st0" d="M252.2,277.1l-0.5-0.7h-0.4v0.7h-0.5v-2.3h1c0.5,0,0.8,0.3,0.8,0.7l0,0c0,0.4-0.2,0.6-0.5,0.7l0.6,0.8
						L252.2,277.1L252.2,277.1z M252.3,275.6c0-0.2-0.1-0.3-0.4-0.3h-0.5v0.6h0.5C252.1,275.9,252.3,275.8,252.3,275.6L252.3,275.6z
						"/>
					<path class="st0" d="M255.2,277.1l-0.2-0.5h-1l-0.2,0.5h-0.5l1-2.3h0.5l1,2.3H255.2z M254.5,275.4l-0.3,0.7h0.6L254.5,275.4z"
						/>
					<path class="st0" d="M257.3,277.1c-0.7,0-1.2-0.5-1.2-1.2l0,0c0-0.6,0.5-1.2,1.2-1.2c0.4,0,0.7,0.1,0.9,0.3l-0.3,0.4
						c-0.2-0.2-0.4-0.3-0.6-0.3c-0.4,0-0.7,0.3-0.7,0.7l0,0c0,0.4,0.3,0.7,0.7,0.7c0.3,0,0.4-0.1,0.6-0.3l0.3,0.3
						C258,277,257.7,277.1,257.3,277.1z"/>
					<path class="st0" d="M259,277.1v-2.3h0.5v2.3H259z"/>
					<path class="st0" d="M261.4,277.1c-0.7,0-1.2-0.5-1.2-1.2l0,0c0-0.6,0.5-1.2,1.2-1.2s1.2,0.5,1.2,1.2l0,0
						C262.6,276.6,262.1,277.1,261.4,277.1z M262.1,275.9c0-0.4-0.3-0.7-0.7-0.7c-0.4,0-0.7,0.3-0.7,0.7l0,0c0,0.4,0.3,0.7,0.7,0.7
						S262.1,276.3,262.1,275.9L262.1,275.9z M261.3,274.6l0.4-0.6l0.4,0.2l-0.4,0.4H261.3z"/>
					<path class="st0" d="M265,277.1l-1.1-1.4v1.4h-0.5v-2.3h0.5l1.1,1.4v-1.4h0.5v2.3H265z"/>
					<path class="st0" d="M267.5,277.1v-2.3h1.7v0.4H268v0.5h1.1v0.4H268v0.5h1.2v0.4L267.5,277.1z"/>
					<path class="st0" d="M270.8,277.1c-0.3,0-0.7-0.1-1-0.4l0.3-0.4c0.2,0.2,0.4,0.3,0.7,0.3c0.2,0,0.3-0.1,0.3-0.2l0,0
						c0-0.1-0.1-0.2-0.5-0.3c-0.5-0.1-0.7-0.2-0.7-0.7l0,0c0-0.4,0.3-0.7,0.8-0.7c0.3,0,0.6,0.1,0.8,0.3l-0.3,0.4
						c-0.2-0.1-0.4-0.2-0.6-0.2s-0.3,0.1-0.3,0.2l0,0c0,0.1,0.1,0.2,0.5,0.3c0.5,0.1,0.7,0.3,0.7,0.7l0,0
						C271.6,276.9,271.3,277.1,270.8,277.1z"/>
					<path class="st0" d="M273.3,276.4h-0.4v0.7h-0.5v-2.3h0.9c0.5,0,0.9,0.3,0.9,0.8l0,0C274.2,276.1,273.8,276.4,273.3,276.4z
						 M273.7,275.6c0-0.2-0.2-0.3-0.4-0.3h-0.4v0.7h0.4C273.5,276,273.7,275.8,273.7,275.6L273.7,275.6z"/>
					<path class="st0" d="M276.3,277.1l-0.2-0.5h-1l-0.2,0.5h-0.5l1-2.3h0.5l1,2.3H276.3z M275.6,275.4l-0.3,0.7h0.6L275.6,275.4z"
						/>
					<path class="st0" d="M279.1,277.1l-1.1-1.4v1.4h-0.5v-2.3h0.5l1.1,1.4v-1.4h0.5v2.3H279.1z M278.8,274.6
						c-0.2,0-0.4-0.1-0.5-0.1s-0.1,0.1-0.2,0.2l-0.3-0.1c0.1-0.3,0.2-0.4,0.4-0.4c0.2,0,0.4,0.1,0.5,0.1s0.1-0.1,0.2-0.2l0.3,0.1
						C279.1,274.5,279,274.6,278.8,274.6z"/>
					<path class="st0" d="M281.5,277.1c-0.7,0-1.2-0.5-1.2-1.2l0,0c0-0.6,0.5-1.2,1.2-1.2s1.2,0.5,1.2,1.2l0,0
						C282.7,276.6,282.2,277.1,281.5,277.1z M282.1,275.9c0-0.4-0.3-0.7-0.7-0.7c-0.4,0-0.7,0.3-0.7,0.7l0,0c0,0.4,0.3,0.7,0.7,0.7
						C281.9,276.7,282.1,276.3,282.1,275.9L282.1,275.9z"/>
					<path class="st0" d="M283.4,277.1v-2.3h0.5v1.8h1.1v0.5H283.4z"/>
					<path class="st0" d="M287.4,277.1l-0.2-0.5h-1l-0.2,0.5h-0.5l1-2.3h0.5l1,2.3H287.4z M286.7,275.4l-0.3,0.7h0.6L286.7,275.4z"
						/>
				</g>
				<g>
					<path class="st0" d="M233.3,288.5c-0.6,0-1.2-0.1-1.7-0.3c-0.5-0.2-1-0.5-1.3-0.9c-0.4-0.4-0.7-0.8-0.9-1.3s-0.3-1.1-0.3-1.7
						l0,0c0-0.6,0.1-1.1,0.3-1.7c0.2-0.5,0.5-1,0.9-1.4s0.8-0.7,1.4-0.9c0.5-0.2,1.1-0.3,1.7-0.3c0.4,0,0.7,0,1.1,0.1
						c0.3,0.1,0.6,0.1,0.9,0.3c0.3,0.1,0.5,0.2,0.7,0.4c0.2,0.2,0.4,0.3,0.6,0.5l-1.2,1.3c-0.3-0.3-0.6-0.5-1-0.7
						c-0.3-0.2-0.7-0.2-1.1-0.2c-0.3,0-0.7,0.1-1,0.2s-0.5,0.3-0.8,0.6c-0.2,0.2-0.4,0.5-0.5,0.8s-0.2,0.6-0.2,1l0,0
						c0,0.4,0.1,0.7,0.2,1s0.3,0.6,0.5,0.8c0.2,0.2,0.5,0.4,0.8,0.6c0.3,0.1,0.6,0.2,1,0.2c0.5,0,0.9-0.1,1.2-0.3
						c0.3-0.2,0.6-0.4,1-0.7l1.2,1.2c-0.2,0.2-0.4,0.4-0.7,0.6c-0.2,0.2-0.5,0.3-0.7,0.5c-0.3,0.1-0.6,0.2-0.9,0.3
						C234.1,288.5,233.7,288.5,233.3,288.5z"/>
					<path class="st0" d="M238.1,280.1h1.8v8.3h-1.8V280.1z"/>
					<path class="st0" d="M245.8,288.5c-0.6,0-1.2-0.1-1.7-0.3c-0.5-0.2-1-0.5-1.3-0.9c-0.4-0.4-0.7-0.8-0.9-1.3s-0.3-1.1-0.3-1.7
						l0,0c0-0.6,0.1-1.1,0.3-1.7c0.2-0.5,0.5-1,0.9-1.4s0.8-0.7,1.4-0.9c0.5-0.2,1.1-0.3,1.7-0.3c0.4,0,0.7,0,1.1,0.1
						c0.3,0.1,0.6,0.1,0.9,0.3c0.3,0.1,0.5,0.2,0.7,0.4c0.2,0.2,0.4,0.3,0.6,0.5l-1.2,1.3c-0.3-0.3-0.6-0.5-1-0.7
						c-0.3-0.2-0.7-0.2-1.1-0.2c-0.3,0-0.7,0.1-1,0.2s-0.5,0.3-0.8,0.6c-0.2,0.2-0.4,0.5-0.5,0.8s-0.2,0.6-0.2,1l0,0
						c0,0.4,0.1,0.7,0.2,1c0.1,0.3,0.3,0.6,0.5,0.8c0.2,0.2,0.5,0.4,0.8,0.6c0.3,0.1,0.6,0.2,1,0.2c0.5,0,0.9-0.1,1.2-0.3
						c0.3-0.2,0.6-0.4,1-0.7l1.2,1.2c-0.2,0.2-0.4,0.4-0.7,0.6c-0.2,0.2-0.5,0.3-0.7,0.5c-0.3,0.1-0.6,0.2-0.9,0.3
						C246.6,288.5,246.2,288.5,245.8,288.5z"/>
					<path class="st0" d="M250.6,280.1h1.8v6.6h4.1v1.6h-5.9V280.1z"/>
					<path class="st0" d="M257.8,280.1h1.8v8.3h-1.8V280.1z"/>
					<path class="st0" d="M264.6,288.5c-0.6,0-1.2-0.1-1.8-0.3c-0.6-0.2-1.2-0.5-1.6-1l1.1-1.3c0.4,0.3,0.8,0.6,1.2,0.7
						c0.4,0.2,0.8,0.3,1.3,0.3c0.4,0,0.7-0.1,0.9-0.2c0.2-0.1,0.3-0.3,0.3-0.6l0,0c0-0.1,0-0.2-0.1-0.3c0-0.1-0.1-0.2-0.2-0.3
						c-0.1-0.1-0.3-0.2-0.5-0.2c-0.2-0.1-0.5-0.2-0.8-0.2c-0.4-0.1-0.8-0.2-1.1-0.3c-0.3-0.1-0.6-0.3-0.9-0.5
						c-0.2-0.2-0.4-0.4-0.5-0.7c-0.1-0.3-0.2-0.6-0.2-1l0,0c0-0.4,0.1-0.7,0.2-1s0.3-0.6,0.6-0.8c0.3-0.2,0.6-0.4,0.9-0.5
						c0.4-0.1,0.7-0.2,1.2-0.2c0.6,0,1.2,0.1,1.7,0.3c0.5,0.2,1,0.4,1.4,0.8l-0.9,1.4c-0.4-0.3-0.7-0.4-1.1-0.6
						c-0.4-0.1-0.7-0.2-1.1-0.2s-0.6,0.1-0.8,0.2c-0.2,0.1-0.3,0.3-0.3,0.5l0,0c0,0.1,0,0.2,0.1,0.3c0.1,0.1,0.1,0.2,0.3,0.3
						c0.1,0.1,0.3,0.2,0.5,0.2c0.2,0.1,0.5,0.2,0.9,0.2c0.4,0.1,0.8,0.2,1.1,0.4c0.3,0.1,0.6,0.3,0.8,0.5c0.2,0.2,0.4,0.4,0.5,0.7
						c0.1,0.3,0.2,0.6,0.2,0.9l0,0c0,0.4-0.1,0.8-0.2,1.1c-0.1,0.3-0.4,0.6-0.6,0.8c-0.3,0.2-0.6,0.4-0.9,0.5
						C265.5,288.4,265.1,288.5,264.6,288.5z"/>
					<path class="st0" d="M269.3,280.1h2l2.2,3.5l2.2-3.5h2v8.3h-1.8V283l-2.3,3.5l0,0l-2.3-3.5v5.4h-1.8L269.3,280.1z"/>
					<path class="st0" d="M283.5,288.5c-0.6,0-1.2-0.1-1.8-0.3c-0.5-0.2-1-0.5-1.4-0.9s-0.7-0.8-0.9-1.3c-0.2-0.5-0.3-1.1-0.3-1.7
						l0,0c0-0.6,0.1-1.1,0.3-1.7c0.2-0.5,0.5-1,0.9-1.4s0.9-0.7,1.4-0.9c0.5-0.2,1.1-0.3,1.8-0.3c0.6,0,1.2,0.1,1.8,0.3
						c0.5,0.2,1,0.5,1.4,0.9s0.7,0.8,0.9,1.3c0.2,0.5,0.3,1.1,0.3,1.7l0,0c0,0.6-0.1,1.1-0.3,1.7c-0.2,0.5-0.5,1-0.9,1.4
						s-0.9,0.7-1.4,0.9S284.2,288.5,283.5,288.5z M283.6,286.8c0.4,0,0.7-0.1,1-0.2s0.6-0.3,0.8-0.6c0.2-0.2,0.4-0.5,0.5-0.8
						s0.2-0.6,0.2-1l0,0c0-0.4-0.1-0.7-0.2-1s-0.3-0.6-0.5-0.8c-0.2-0.2-0.5-0.4-0.8-0.6c-0.3-0.1-0.6-0.2-1-0.2s-0.7,0.1-1,0.2
						s-0.6,0.3-0.8,0.6c-0.2,0.2-0.4,0.5-0.5,0.8s-0.2,0.6-0.2,1l0,0c0,0.4,0.1,0.7,0.2,1s0.3,0.6,0.5,0.8c0.2,0.2,0.5,0.4,0.8,0.6
						S283.2,286.8,283.6,286.8z"/>
				</g>
			</g>
		</g>
		<g>
			<g>
				<path class="st4" d="M96.2,276.1c-2.9-1.2-5.8-3.5-8.3-6.8c-5.3-7-6.2-15.7-2.1-19.4L291.1,66.1c4.1-3.7,11.7-1,17,6
					s6.2,15.7,2.1,19.4L104.9,275.4C102.7,277.3,99.5,277.5,96.2,276.1"/>
				<path class="st4" d="M299.8,276.1c2.9-1.2,5.8-3.5,8.3-6.8c5.3-7,6.2-15.7,2.1-19.4L104.9,66.1c-4.1-3.7-11.7-1-17,6
					s-6.2,15.7-2.1,19.4l205.4,183.9C293.3,277.3,296.5,277.5,299.8,276.1"/>
			</g>
		</g>
	</g>
</g>
</svg>
