<?xml version="1.0" encoding="utf-8"?>
<!-- Generator: Adobe Illustrator 22.0.0, SVG Export Plug-In . SVG Version: 6.00 Build 0)  -->
<svg version="1.1" id="Capa_1" xmlns="http://www.w3.org/2000/svg" xmlns:xlink="http://www.w3.org/1999/xlink" x="0px" y="0px"
	 viewBox="0 0 396.9 396.9" style="enable-background:new 0 0 396.9 396.9;" xml:space="preserve">
<style type="text/css">
	.st0{fill:#FFFFFF;}
	.st1{fill:#DE271D;}
	.st2{fill:#B4B3B4;}
</style>
<g>
	<g>
		<rect x="-0.4" y="-0.4" class="st0" width="397.9" height="397.9"/>
		<path d="M397,0.1v396.9H0.1V0.1H397 M398-0.9h-1H0.1h-1v1v396.9v1h1H397h1v-1V0.1V-0.9L398-0.9z"/>
	</g>
	<g>
		<polygon class="st1" points="382.8,170.4 202.1,66.5 202.1,274.4 		"/>
		<g>
			<path class="st1" d="M143.7,155.1c-24.5,0-44.4-19.8-44.4-44.3c0-24.5,19.9-44.3,44.4-44.3c24.5,0,44.4,19.8,44.4,44.3
				C188,135.3,168.2,155.1,143.7,155.1"/>
			<path class="st1" d="M143.7,274.4c-24.5,0-44.4-19.8-44.4-44.3c0-24.5,19.9-44.3,44.4-44.3c24.5,0,44.4,19.8,44.4,44.3
				C188,254.5,168.2,274.4,143.7,274.4"/>
		</g>
		<g>
			<g>
				<path class="st0" d="M172,233.4c-0.9,1.8-4.8,1.3-9-0.8c-4.2-2.2-6.9-5.1-6.1-6.9c0-0.1,0.1-0.2,0.1-0.2
					c-0.2,0.2-0.3,0.3-0.4,0.5c-0.9,1.9,1.6,6.2,6.3,8.6c4.7,2.4,9.9,2.1,10.9,0.1c0.9-1.9-2.1-5.5-6.9-7.9
					c-0.1-0.1-0.3-0.1-0.4-0.2C170.5,228.8,172.8,231.7,172,233.4z"/>
				<path class="st0" d="M163.6,236.4c0,0-7.8-2.9-12.2-11.3c-1.5-3-5.7-11-16.4-6.4c0,0,6.3-0.7,10.4,6.1
					C150.4,233.1,158.4,236.2,163.6,236.4z"/>
				<path class="st0" d="M118.4,212.4c2.6-2.3,8.5,1.3,13.8,8c5.3,6.7,7.6,13.5,5,15.7c-0.1,0.1-0.3,0.2-0.4,0.3
					c0.4-0.1,0.7-0.3,1-0.6c2.9-2.5,1.7-11.4-4.2-18.8c-5.9-7.5-14.5-10.7-17.3-8.2s-0.4,10.6,5.6,18.1c0.2,0.2,0.4,0.5,0.5,0.7
					C117.5,221,115.9,214.6,118.4,212.4z"/>
				<g>
					<path class="st0" d="M155.2,212.1c-0.5-0.1,8.7,2,11.8,9.3C173.6,220.9,170.3,213.8,155.2,212.1z"/>
				</g>
				<g>
					<path class="st0" d="M134.3,217.4c-0.3,0.6,6.1-9.1,38,11.6C171.6,226.7,144.2,195.8,134.3,217.4z"/>
				</g>
				<path class="st0" d="M158.1,236.4c0,0-5.3-1.6-10-5.6c-3-2.6-6.9-5.4-15.4-3.6c0,0,5-0.6,10,3.3
					C148.5,234.9,153.2,236.2,158.1,236.4z"/>
			</g>
			<g>
				<path class="st0" d="M116.5,241.7l-0.5-0.7h-0.4l0,0.7h-0.5l0-2.3h1c0.5,0,0.8,0.3,0.8,0.7v0c0,0.4-0.2,0.6-0.5,0.7l0.6,0.8
					H116.5z M116.5,240.2c0-0.2-0.1-0.3-0.4-0.3h-0.5v0.6h0.5C116.4,240.5,116.5,240.4,116.5,240.2L116.5,240.2z"/>
				<path class="st0" d="M117.8,241.7l0-2.3l1.7,0v0.4l-1.2,0v0.5l1.1,0v0.4l-1.1,0v0.5l1.2,0v0.4L117.8,241.7z"/>
				<path class="st0" d="M122,241.7l-0.2-0.5l-1,0l-0.2,0.5l-0.5,0l1-2.3h0.5l1,2.3L122,241.7z M121.3,240l-0.3,0.7h0.6L121.3,240z"
					/>
				<path class="st0" d="M123.2,241.7v-2.3l0.5,0l0,1.8l1.1,0l0,0.5L123.2,241.7z"/>
				<path class="st0" d="M127.2,239.9v0.5l1.1,0v0.5l-1.1,0l0,0.9h-0.5l0-2.3l1.7,0v0.5L127.2,239.9z"/>
				<path class="st0" d="M129.2,241.7l0-2.3l1.7,0v0.4h-1.2l0,0.5h1.1v0.4h-1.1v0.5h1.2v0.4L129.2,241.7z"/>
				<path class="st0" d="M132.5,241.7h-0.9v-2.3l0.9,0c0.7,0,1.2,0.5,1.2,1.1v0C133.7,241.2,133.2,241.7,132.5,241.7z M133.2,240.5
					c0-0.4-0.3-0.7-0.7-0.7h-0.4v1.4h0.4C132.9,241.2,133.2,240.9,133.2,240.5L133.2,240.5z"/>
				<path class="st0" d="M134.5,241.7l0-2.3l1.7,0v0.4l-1.2,0l0,0.5l1.1,0v0.4l-1.1,0v0.5l1.2,0l0,0.4L134.5,241.7z"/>
				<path class="st0" d="M138.3,241.7l-0.5-0.7h-0.4v0.7l-0.5,0v-2.3h1c0.5,0,0.8,0.3,0.8,0.7v0c0,0.4-0.2,0.6-0.5,0.7l0.6,0.8
					H138.3z M138.3,240.2c0-0.2-0.1-0.3-0.4-0.3l-0.5,0v0.6h0.5C138.2,240.5,138.3,240.4,138.3,240.2L138.3,240.2z"/>
				<path class="st0" d="M141.3,241.7l-0.2-0.5l-1,0l-0.2,0.5h-0.5l1-2.3h0.5l1,2.3L141.3,241.7z M140.6,240l-0.3,0.7h0.6L140.6,240
					z"/>
				<path class="st0" d="M143.4,241.7c-0.7,0-1.2-0.5-1.2-1.2v0c0-0.6,0.5-1.2,1.2-1.2c0.4,0,0.7,0.1,0.9,0.3l-0.3,0.4
					c-0.2-0.2-0.4-0.3-0.6-0.3c-0.4,0-0.7,0.3-0.7,0.7v0c0,0.4,0.3,0.7,0.7,0.7c0.3,0,0.4-0.1,0.6-0.3l0.3,0.3
					C144.1,241.6,143.8,241.7,143.4,241.7z"/>
				<path class="st0" d="M145.1,241.7v-2.3h0.5v2.3H145.1z"/>
				<path class="st0" d="M147.5,241.7c-0.7,0-1.2-0.5-1.2-1.2v0c0-0.6,0.5-1.2,1.2-1.2c0.7,0,1.2,0.5,1.2,1.2v0
					C148.7,241.2,148.2,241.7,147.5,241.7z M148.2,240.5c0-0.4-0.3-0.7-0.7-0.7c-0.4,0-0.7,0.3-0.7,0.7v0c0,0.4,0.3,0.7,0.7,0.7
					C147.9,241.2,148.2,240.9,148.2,240.5L148.2,240.5z M147.4,239.2l0.4-0.6l0.4,0.2l-0.4,0.4H147.4z"/>
				<path class="st0" d="M151.1,241.7l-1.1-1.4v1.4h-0.5v-2.3h0.5l1.1,1.4v-1.4h0.5l0,2.3H151.1z"/>
				<path class="st0" d="M153.6,241.7l0-2.3l1.7,0v0.4l-1.2,0l0,0.5l1.1,0v0.4l-1.1,0v0.5l1.2,0l0,0.4L153.6,241.7z"/>
				<path class="st0" d="M156.9,241.7c-0.3,0-0.7-0.1-1-0.4l0.3-0.4c0.2,0.2,0.4,0.3,0.7,0.3c0.2,0,0.3-0.1,0.3-0.2v0
					c0-0.1-0.1-0.2-0.5-0.3c-0.5-0.1-0.7-0.2-0.7-0.7v0c0-0.4,0.3-0.7,0.8-0.7c0.3,0,0.6,0.1,0.8,0.3l-0.3,0.4
					c-0.2-0.1-0.4-0.2-0.6-0.2c-0.2,0-0.3,0.1-0.3,0.2v0c0,0.1,0.1,0.2,0.5,0.3c0.5,0.1,0.7,0.3,0.7,0.7v0
					C157.7,241.4,157.4,241.7,156.9,241.7z"/>
				<path class="st0" d="M159.4,241H159v0.7l-0.5,0l0-2.3l0.9,0c0.5,0,0.9,0.3,0.9,0.8v0C160.3,240.7,159.9,241,159.4,241z
					 M159.8,240.2c0-0.2-0.2-0.3-0.4-0.3H159l0,0.7h0.4C159.6,240.5,159.8,240.4,159.8,240.2L159.8,240.2z"/>
				<path class="st0" d="M162.4,241.7l-0.2-0.5l-1,0l-0.2,0.5l-0.5,0l1-2.3h0.5l1,2.3L162.4,241.7z M161.7,240l-0.3,0.7h0.6
					L161.7,240z"/>
				<path class="st0" d="M165.2,241.7l-1.1-1.4l0,1.4h-0.5v-2.3l0.5,0l1.1,1.4v-1.4h0.5l0,2.3H165.2z M164.9,239.2
					c-0.2,0-0.4-0.1-0.5-0.1c-0.1,0-0.1,0.1-0.2,0.2l-0.3-0.1c0.1-0.3,0.2-0.4,0.4-0.4c0.2,0,0.4,0.1,0.5,0.1c0.1,0,0.1-0.1,0.2-0.2
					l0.3,0.1C165.2,239.1,165.1,239.2,164.9,239.2z"/>
				<path class="st0" d="M167.6,241.7c-0.7,0-1.2-0.5-1.2-1.2v0c0-0.6,0.5-1.2,1.2-1.2c0.7,0,1.2,0.5,1.2,1.2v0
					C168.8,241.2,168.3,241.7,167.6,241.7z M168.2,240.5c0-0.4-0.3-0.7-0.7-0.7c-0.4,0-0.7,0.3-0.7,0.7v0c0,0.4,0.3,0.7,0.7,0.7
					C168,241.2,168.2,240.9,168.2,240.5L168.2,240.5z"/>
				<path class="st0" d="M169.5,241.7l0-2.3l0.5,0l0,1.8h1.1v0.5H169.5z"/>
				<path class="st0" d="M173.5,241.7l-0.2-0.5l-1,0l-0.2,0.5h-0.5l1-2.3h0.5l1,2.3H173.5z M172.8,240l-0.3,0.7l0.6,0L172.8,240z"/>
			</g>
			<g>
				<path class="st0" d="M119.4,253.1c-0.6,0-1.2-0.1-1.7-0.3c-0.5-0.2-1-0.5-1.3-0.9c-0.4-0.4-0.7-0.8-0.9-1.3
					c-0.2-0.5-0.3-1.1-0.3-1.7v0c0-0.6,0.1-1.1,0.3-1.7c0.2-0.5,0.5-1,0.9-1.4c0.4-0.4,0.8-0.7,1.4-0.9c0.5-0.2,1.1-0.3,1.7-0.3
					c0.4,0,0.7,0,1.1,0.1c0.3,0.1,0.6,0.1,0.9,0.3c0.3,0.1,0.5,0.2,0.7,0.4c0.2,0.2,0.4,0.3,0.6,0.5l-1.2,1.3
					c-0.3-0.3-0.6-0.5-1-0.7c-0.3-0.2-0.7-0.2-1.1-0.2c-0.3,0-0.7,0.1-1,0.2c-0.3,0.1-0.5,0.3-0.8,0.6c-0.2,0.2-0.4,0.5-0.5,0.8
					c-0.1,0.3-0.2,0.6-0.2,1v0c0,0.4,0.1,0.7,0.2,1s0.3,0.6,0.5,0.8s0.5,0.4,0.8,0.6c0.3,0.1,0.6,0.2,1,0.2c0.5,0,0.9-0.1,1.2-0.3
					c0.3-0.2,0.6-0.4,1-0.7l1.2,1.2c-0.2,0.2-0.4,0.4-0.7,0.6c-0.2,0.2-0.5,0.3-0.7,0.5c-0.3,0.1-0.6,0.2-0.9,0.3
					C120.2,253.1,119.8,253.1,119.4,253.1z"/>
				<path class="st0" d="M124.2,244.7l1.8,0l0,8.3l-1.8,0L124.2,244.7z"/>
				<path class="st0" d="M131.9,253.1c-0.6,0-1.2-0.1-1.7-0.3c-0.5-0.2-1-0.5-1.3-0.9c-0.4-0.4-0.7-0.8-0.9-1.3
					c-0.2-0.5-0.3-1.1-0.3-1.7v0c0-0.6,0.1-1.1,0.3-1.7c0.2-0.5,0.5-1,0.9-1.4c0.4-0.4,0.8-0.7,1.4-0.9c0.5-0.2,1.1-0.3,1.7-0.3
					c0.4,0,0.7,0,1.1,0.1c0.3,0.1,0.6,0.1,0.9,0.3c0.3,0.1,0.5,0.2,0.7,0.4c0.2,0.2,0.4,0.3,0.6,0.5l-1.2,1.3
					c-0.3-0.3-0.6-0.5-1-0.7c-0.3-0.2-0.7-0.2-1.1-0.2c-0.3,0-0.7,0.1-1,0.2c-0.3,0.1-0.5,0.3-0.8,0.6c-0.2,0.2-0.4,0.5-0.5,0.8
					c-0.1,0.3-0.2,0.6-0.2,1v0c0,0.4,0.1,0.7,0.2,1c0.1,0.3,0.3,0.6,0.5,0.8c0.2,0.2,0.5,0.4,0.8,0.6c0.3,0.1,0.6,0.2,1,0.2
					c0.5,0,0.9-0.1,1.2-0.3c0.3-0.2,0.6-0.4,1-0.7l1.2,1.2c-0.2,0.2-0.4,0.4-0.7,0.6c-0.2,0.2-0.5,0.3-0.7,0.5
					c-0.3,0.1-0.6,0.2-0.9,0.3S132.3,253.1,131.9,253.1z"/>
				<path class="st0" d="M136.7,244.7l1.8,0l0,6.6l4.1,0v1.6l-5.9,0L136.7,244.7z"/>
				<path class="st0" d="M143.9,244.7l1.8,0l0,8.3h-1.8L143.9,244.7z"/>
				<path class="st0" d="M150.7,253.1c-0.6,0-1.2-0.1-1.8-0.3c-0.6-0.2-1.2-0.5-1.6-1l1.1-1.3c0.4,0.3,0.8,0.6,1.2,0.7
					c0.4,0.2,0.8,0.3,1.3,0.3c0.4,0,0.7-0.1,0.9-0.2c0.2-0.1,0.3-0.3,0.3-0.6v0c0-0.1,0-0.2-0.1-0.3c0-0.1-0.1-0.2-0.2-0.3
					c-0.1-0.1-0.3-0.2-0.5-0.2c-0.2-0.1-0.5-0.2-0.8-0.2c-0.4-0.1-0.8-0.2-1.1-0.3c-0.3-0.1-0.6-0.3-0.9-0.5
					c-0.2-0.2-0.4-0.4-0.5-0.7c-0.1-0.3-0.2-0.6-0.2-1v0c0-0.4,0.1-0.7,0.2-1c0.1-0.3,0.3-0.6,0.6-0.8c0.3-0.2,0.6-0.4,0.9-0.5
					s0.7-0.2,1.2-0.2c0.6,0,1.2,0.1,1.7,0.3c0.5,0.2,1,0.4,1.4,0.8l-0.9,1.4c-0.4-0.3-0.7-0.4-1.1-0.6c-0.4-0.1-0.7-0.2-1.1-0.2
					s-0.6,0.1-0.8,0.2c-0.2,0.1-0.3,0.3-0.3,0.5v0c0,0.1,0,0.2,0.1,0.3c0.1,0.1,0.1,0.2,0.3,0.3c0.1,0.1,0.3,0.2,0.5,0.2
					c0.2,0.1,0.5,0.2,0.9,0.2c0.4,0.1,0.8,0.2,1.1,0.4c0.3,0.1,0.6,0.3,0.8,0.5c0.2,0.2,0.4,0.4,0.5,0.7c0.1,0.3,0.2,0.6,0.2,0.9v0
					c0,0.4-0.1,0.8-0.2,1.1c-0.1,0.3-0.4,0.6-0.6,0.8c-0.3,0.2-0.6,0.4-0.9,0.5C151.6,253,151.2,253.1,150.7,253.1z"/>
				<path class="st0" d="M155.4,244.7l2,0l2.2,3.5l2.2-3.5l2,0l0,8.3l-1.8,0l0-5.4l-2.3,3.5h0l-2.3-3.5l0,5.4l-1.8,0L155.4,244.7z"
					/>
				<path class="st0" d="M169.6,253.1c-0.6,0-1.2-0.1-1.8-0.3c-0.5-0.2-1-0.5-1.4-0.9c-0.4-0.4-0.7-0.8-0.9-1.3
					c-0.2-0.5-0.3-1.1-0.3-1.7v0c0-0.6,0.1-1.1,0.3-1.7c0.2-0.5,0.5-1,0.9-1.4c0.4-0.4,0.9-0.7,1.4-0.9c0.5-0.2,1.1-0.3,1.8-0.3
					c0.6,0,1.2,0.1,1.8,0.3c0.5,0.2,1,0.5,1.4,0.9c0.4,0.4,0.7,0.8,0.9,1.3c0.2,0.5,0.3,1.1,0.3,1.7v0c0,0.6-0.1,1.1-0.3,1.7
					c-0.2,0.5-0.5,1-0.9,1.4c-0.4,0.4-0.9,0.7-1.4,0.9C170.9,253,170.3,253.1,169.6,253.1z M169.7,251.4c0.4,0,0.7-0.1,1-0.2
					c0.3-0.1,0.6-0.3,0.8-0.6s0.4-0.5,0.5-0.8c0.1-0.3,0.2-0.6,0.2-1v0c0-0.4-0.1-0.7-0.2-1c-0.1-0.3-0.3-0.6-0.5-0.8
					c-0.2-0.2-0.5-0.4-0.8-0.6c-0.3-0.1-0.6-0.2-1-0.2c-0.4,0-0.7,0.1-1,0.2c-0.3,0.1-0.6,0.3-0.8,0.6c-0.2,0.2-0.4,0.5-0.5,0.8
					c-0.1,0.3-0.2,0.6-0.2,1v0c0,0.4,0.1,0.7,0.2,1c0.1,0.3,0.3,0.6,0.5,0.8c0.2,0.2,0.5,0.4,0.8,0.6
					C169,251.3,169.3,251.4,169.7,251.4z"/>
			</g>
		</g>
	</g>
	<rect x="0.1" y="340.3" class="st2" width="396.9" height="56.7"/>
	<g>
		<path d="M183.3,359.1v-12.1h2.5v10.5h2.8v1.7H183.3z"/>
		<path d="M193.1,359.2c-0.7,0-1.2-0.1-1.7-0.3c-0.5-0.2-0.8-0.4-1.1-0.8c-0.3-0.4-0.5-0.8-0.6-1.2c-0.1-0.5-0.2-1-0.2-1.7v-4.5
			c0-0.6,0.1-1.2,0.2-1.7c0.1-0.5,0.3-0.9,0.6-1.2s0.6-0.6,1.1-0.8s1-0.3,1.7-0.3c1.3,0,2.2,0.3,2.8,1c0.6,0.7,0.8,1.7,0.8,3v4.5
			c0,1.3-0.3,2.3-0.8,3C195.3,358.9,194.4,359.2,193.1,359.2z M192.6,357.4c0.1,0.1,0.3,0.1,0.5,0.1s0.3,0,0.5-0.1
			c0.1-0.1,0.2-0.1,0.3-0.2c0.1-0.1,0.1-0.2,0.2-0.4s0.1-0.3,0.1-0.4c0-0.1,0-0.3,0-0.5v-5.7c0-0.2,0-0.4,0-0.5c0-0.1,0-0.3-0.1-0.4
			s-0.1-0.3-0.2-0.4c-0.1-0.1-0.2-0.2-0.3-0.2c-0.1-0.1-0.3-0.1-0.5-0.1s-0.3,0-0.5,0.1s-0.2,0.1-0.3,0.2c-0.1,0.1-0.1,0.2-0.2,0.4
			c0,0.1-0.1,0.3-0.1,0.4s0,0.3,0,0.5v5.7c0,0.2,0,0.4,0,0.5c0,0.1,0,0.3,0.1,0.4c0,0.2,0.1,0.3,0.2,0.4
			C192.4,357.2,192.5,357.3,192.6,357.4z"/>
		<path d="M201.4,359.2c-0.6,0-1.1-0.1-1.5-0.3c-0.4-0.2-0.8-0.5-1-0.9s-0.4-0.8-0.6-1.3c-0.1-0.5-0.2-1.1-0.2-1.7v-4
			c0-0.5,0-1,0.1-1.5c0.1-0.4,0.2-0.8,0.4-1.2c0.2-0.4,0.4-0.7,0.7-0.9c0.3-0.2,0.6-0.4,1-0.5c0.4-0.1,0.9-0.2,1.4-0.2
			c0.6,0,1.2,0.1,1.6,0.2c0.5,0.2,0.8,0.4,1.1,0.7c0.3,0.3,0.5,0.7,0.6,1.1c0.1,0.4,0.2,0.9,0.2,1.5v0.7h-2.4v-0.8
			c0-0.2,0-0.4,0-0.5c0-0.1,0-0.3-0.1-0.4c0-0.2-0.1-0.3-0.2-0.4c-0.1-0.1-0.2-0.2-0.3-0.2c-0.1-0.1-0.3-0.1-0.5-0.1
			c-0.2,0-0.4,0-0.5,0.1c-0.1,0.1-0.2,0.2-0.3,0.3c-0.1,0.1-0.1,0.2-0.2,0.4c0,0.2-0.1,0.3-0.1,0.5s0,0.3,0,0.6v5.3
			c0,0.6,0.1,1,0.2,1.3c0.2,0.3,0.5,0.5,0.9,0.5c0.4,0,0.8-0.2,0.9-0.5c0.2-0.3,0.3-0.8,0.3-1.4v-1.2h-1.2v-1.5h3.4v6.2h-1.6
			l-0.2-1.1C203,358.8,202.4,359.2,201.4,359.2z"/>
		<path d="M210.3,359.2c-0.7,0-1.2-0.1-1.7-0.3c-0.5-0.2-0.8-0.4-1.1-0.8c-0.3-0.4-0.5-0.8-0.6-1.2c-0.1-0.5-0.2-1-0.2-1.7v-4.5
			c0-0.6,0.1-1.2,0.2-1.7c0.1-0.5,0.3-0.9,0.6-1.2c0.3-0.3,0.6-0.6,1.1-0.8c0.5-0.2,1-0.3,1.7-0.3c1.3,0,2.2,0.3,2.8,1
			c0.6,0.7,0.8,1.7,0.8,3v4.5c0,1.3-0.3,2.3-0.8,3C212.5,358.9,211.5,359.2,210.3,359.2z M209.8,357.4c0.1,0.1,0.3,0.1,0.5,0.1
			s0.3,0,0.5-0.1c0.1-0.1,0.2-0.1,0.3-0.2c0.1-0.1,0.1-0.2,0.2-0.4s0.1-0.3,0.1-0.4c0-0.1,0-0.3,0-0.5v-5.7c0-0.2,0-0.4,0-0.5
			c0-0.1,0-0.3-0.1-0.4s-0.1-0.3-0.2-0.4c-0.1-0.1-0.2-0.2-0.3-0.2c-0.1-0.1-0.3-0.1-0.5-0.1s-0.3,0-0.5,0.1s-0.2,0.1-0.3,0.2
			c-0.1,0.1-0.1,0.2-0.2,0.4c0,0.1-0.1,0.3-0.1,0.4c0,0.1,0,0.3,0,0.5v5.7c0,0.2,0,0.4,0,0.5c0,0.1,0,0.3,0.1,0.4
			c0,0.2,0.1,0.3,0.2,0.4C209.5,357.2,209.6,357.3,209.8,357.4z"/>
		<path d="M171,374.6c-0.7,0-1.2-0.1-1.7-0.3c-0.5-0.2-0.8-0.4-1.1-0.8c-0.3-0.4-0.5-0.8-0.6-1.2c-0.1-0.5-0.2-1-0.2-1.7v-4.5
			c0-0.6,0.1-1.2,0.2-1.7c0.1-0.5,0.3-0.9,0.6-1.2s0.6-0.6,1.1-0.8s1-0.3,1.7-0.3c1.3,0,2.2,0.3,2.8,1c0.6,0.7,0.8,1.7,0.8,3v4.5
			c0,1.3-0.3,2.3-0.8,3C173.2,374.3,172.3,374.6,171,374.6z M170.6,372.8c0.1,0.1,0.3,0.1,0.5,0.1s0.3,0,0.5-0.1
			c0.1-0.1,0.2-0.1,0.3-0.2c0.1-0.1,0.1-0.2,0.2-0.4s0.1-0.3,0.1-0.4c0-0.1,0-0.3,0-0.5v-5.7c0-0.2,0-0.4,0-0.5c0-0.1,0-0.3-0.1-0.4
			s-0.1-0.3-0.2-0.4c-0.1-0.1-0.2-0.2-0.3-0.2c-0.1-0.1-0.3-0.1-0.5-0.1s-0.3,0-0.5,0.1s-0.2,0.1-0.3,0.2c-0.1,0.1-0.1,0.2-0.2,0.4
			c0,0.1-0.1,0.3-0.1,0.4s0,0.3,0,0.5v5.7c0,0.2,0,0.4,0,0.5c0,0.1,0,0.3,0.1,0.4c0,0.2,0.1,0.3,0.2,0.4
			C170.3,372.6,170.4,372.7,170.6,372.8z"/>
		<path d="M180,374.5v-12.1h1.7l2.7,6.3v-6.3h2.1v12.1h-1.6l-2.7-6.7v6.7H180z"/>
		<path d="M191.7,374.6c-0.7,0-1.2-0.1-1.7-0.3c-0.5-0.2-0.8-0.4-1.1-0.8c-0.3-0.4-0.5-0.8-0.6-1.2c-0.1-0.5-0.2-1-0.2-1.7v-4.5
			c0-0.6,0.1-1.2,0.2-1.7c0.1-0.5,0.3-0.9,0.6-1.2s0.6-0.6,1.1-0.8s1-0.3,1.7-0.3c1.3,0,2.2,0.3,2.8,1c0.6,0.7,0.8,1.7,0.8,3v4.5
			c0,1.3-0.3,2.3-0.8,3C193.9,374.3,193,374.6,191.7,374.6z M191.2,372.8c0.1,0.1,0.3,0.1,0.5,0.1s0.3,0,0.5-0.1
			c0.1-0.1,0.2-0.1,0.3-0.2c0.1-0.1,0.1-0.2,0.2-0.4s0.1-0.3,0.1-0.4c0-0.1,0-0.3,0-0.5v-5.7c0-0.2,0-0.4,0-0.5c0-0.1,0-0.3-0.1-0.4
			s-0.1-0.3-0.2-0.4c-0.1-0.1-0.2-0.2-0.3-0.2c-0.1-0.1-0.3-0.1-0.5-0.1s-0.3,0-0.5,0.1s-0.2,0.1-0.3,0.2c-0.1,0.1-0.1,0.2-0.2,0.4
			c0,0.1-0.1,0.3-0.1,0.4s0,0.3,0,0.5v5.7c0,0.2,0,0.4,0,0.5c0,0.1,0,0.3,0.1,0.4c0,0.2,0.1,0.3,0.2,0.4
			C191,372.6,191.1,372.7,191.2,372.8z"/>
		<path d="M196.9,374.5l0.2-12.1h2.6l1.5,7.7l1.6-7.7h2.5l0.2,12.1h-1.8l-0.2-8.2l-1.6,8.2h-1.5l-1.6-8.2l-0.2,8.2H196.9z"/>
		<path d="M207.3,374.5v-12.1h3.1c0.4,0,0.9,0,1.2,0.1c0.4,0.1,0.7,0.1,1,0.3c0.3,0.1,0.6,0.3,0.8,0.6c0.2,0.2,0.4,0.5,0.5,0.9
			c0.1,0.4,0.2,0.8,0.2,1.3c0,0,0,0,0,0.1c0,1.5-0.6,2.3-1.8,2.5c1.4,0.2,2.1,1.2,2.1,3c0,0,0,0.1,0,0.1c0,1.1-0.3,2-0.9,2.6
			c-0.6,0.6-1.5,0.9-2.7,0.9H207.3z M209.8,367.2h0.6c0.6,0,1-0.1,1.3-0.4s0.3-0.7,0.3-1.3c0-0.6-0.1-1-0.4-1.2
			c-0.3-0.2-0.7-0.3-1.4-0.3h-0.4V367.2z M209.8,372.7h0.7c0.6,0,1.1-0.1,1.3-0.4c0.2-0.3,0.4-0.8,0.4-1.4c0-0.7-0.1-1.2-0.4-1.5
			c-0.3-0.3-0.7-0.5-1.3-0.5h-0.6V372.7z"/>
		<path d="M215.9,374.5v-12.1h3.1c0.6,0,1.2,0,1.7,0.2c0.5,0.1,0.9,0.3,1.2,0.5c0.4,0.2,0.6,0.6,0.8,1c0.2,0.4,0.3,0.9,0.3,1.6
			c0,0.8-0.1,1.4-0.3,1.9c-0.2,0.5-0.6,0.8-1.1,1.1l1.7,5.9h-2.5l-1.4-5.5h-0.9v5.5H215.9z M218.4,367.5h0.6c0.6,0,1-0.1,1.3-0.4
			c0.2-0.3,0.4-0.7,0.4-1.3c0-0.6-0.1-1-0.3-1.3c-0.2-0.3-0.6-0.4-1.2-0.4h-0.8V367.5z"/>
		<path d="M224.6,374.5v-12.1h5.3v1.7h-2.8v3.2h2.2v1.7h-2.2v3.8h2.8v1.7H224.6z"/>
		<path d="M165.2,389.9v-12.1h3.8c2.1,0,3.2,1.2,3.2,3.5c0,0.6-0.1,1.2-0.2,1.6c-0.2,0.4-0.4,0.8-0.7,1c-0.3,0.3-0.7,0.4-1.1,0.5
			c-0.4,0.1-0.8,0.2-1.4,0.2h-1.1v5.3H165.2z M167.7,382.8h0.8c0.5,0,0.9-0.1,1.1-0.4c0.2-0.2,0.3-0.7,0.3-1.3c0-0.3,0-0.6,0-0.8
			c0-0.2-0.1-0.4-0.2-0.5c-0.1-0.2-0.2-0.3-0.4-0.3s-0.4-0.1-0.7-0.1h-0.8V382.8z"/>
		<path d="M173.4,389.9v-12.1h3.1c0.6,0,1.2,0,1.7,0.2c0.5,0.1,0.9,0.3,1.2,0.5c0.4,0.2,0.6,0.6,0.8,1s0.3,0.9,0.3,1.6
			c0,0.8-0.1,1.4-0.3,1.9c-0.2,0.5-0.6,0.8-1.1,1.1l1.7,5.9h-2.5l-1.4-5.5h-0.9v5.5H173.4z M175.9,382.9h0.6c0.6,0,1-0.1,1.3-0.4
			c0.2-0.3,0.4-0.7,0.4-1.3c0-0.6-0.1-1-0.3-1.3c-0.2-0.3-0.6-0.4-1.2-0.4h-0.8V382.9z"/>
		<path d="M185.5,390c-0.7,0-1.2-0.1-1.7-0.3c-0.5-0.2-0.8-0.4-1.1-0.8c-0.3-0.4-0.5-0.8-0.6-1.2c-0.1-0.5-0.2-1-0.2-1.7v-4.5
			c0-0.6,0.1-1.2,0.2-1.7c0.1-0.5,0.3-0.9,0.6-1.2s0.6-0.6,1.1-0.8s1-0.3,1.7-0.3c1.3,0,2.2,0.3,2.8,1c0.6,0.7,0.8,1.7,0.8,3v4.5
			c0,1.3-0.3,2.3-0.8,3C187.7,389.7,186.8,390,185.5,390z M185,388.2c0.1,0.1,0.3,0.1,0.5,0.1s0.3,0,0.5-0.1
			c0.1-0.1,0.2-0.1,0.3-0.2c0.1-0.1,0.1-0.2,0.2-0.4s0.1-0.3,0.1-0.4c0-0.1,0-0.3,0-0.5v-5.7c0-0.2,0-0.4,0-0.5c0-0.1,0-0.3-0.1-0.4
			s-0.1-0.3-0.2-0.4c-0.1-0.1-0.2-0.2-0.3-0.2c-0.1-0.1-0.3-0.1-0.5-0.1s-0.3,0-0.5,0.1s-0.2,0.1-0.3,0.2c-0.1,0.1-0.1,0.2-0.2,0.4
			c0,0.1-0.1,0.3-0.1,0.4s0,0.3,0,0.5v5.7c0,0.2,0,0.4,0,0.5c0,0.1,0,0.3,0.1,0.4c0,0.2,0.1,0.3,0.2,0.4
			C184.8,388,184.9,388.1,185,388.2z"/>
		<path d="M190.7,389.9l0.2-12.1h2.6l1.5,7.7l1.6-7.7h2.5l0.2,12.1h-1.8l-0.2-8.2l-1.6,8.2h-1.5l-1.6-8.2l-0.2,8.2H190.7z"/>
		<path d="M204.5,390c-0.7,0-1.2-0.1-1.7-0.3c-0.5-0.2-0.8-0.4-1.1-0.8c-0.3-0.4-0.5-0.8-0.6-1.2c-0.1-0.5-0.2-1-0.2-1.7v-4.5
			c0-0.6,0.1-1.2,0.2-1.7c0.1-0.5,0.3-0.9,0.6-1.2c0.3-0.3,0.6-0.6,1.1-0.8c0.5-0.2,1-0.3,1.7-0.3c1.3,0,2.2,0.3,2.8,1
			c0.6,0.7,0.8,1.7,0.8,3v4.5c0,1.3-0.3,2.3-0.8,3C206.7,389.7,205.8,390,204.5,390z M204,388.2c0.1,0.1,0.3,0.1,0.5,0.1
			s0.3,0,0.5-0.1c0.1-0.1,0.2-0.1,0.3-0.2c0.1-0.1,0.1-0.2,0.2-0.4s0.1-0.3,0.1-0.4c0-0.1,0-0.3,0-0.5v-5.7c0-0.2,0-0.4,0-0.5
			c0-0.1,0-0.3-0.1-0.4s-0.1-0.3-0.2-0.4c-0.1-0.1-0.2-0.2-0.3-0.2c-0.1-0.1-0.3-0.1-0.5-0.1s-0.3,0-0.5,0.1s-0.2,0.1-0.3,0.2
			c-0.1,0.1-0.1,0.2-0.2,0.4c0,0.1-0.1,0.3-0.1,0.4c0,0.1,0,0.3,0,0.5v5.7c0,0.2,0,0.4,0,0.5c0,0.1,0,0.3,0.1,0.4
			c0,0.2,0.1,0.3,0.2,0.4C203.8,388,203.9,388.1,204,388.2z"/>
		<path d="M210.9,389.9v-10.3h-1.9v-1.8h6.3v1.8h-1.9v10.3H210.9z"/>
		<path d="M219.7,390c-0.7,0-1.2-0.1-1.7-0.3c-0.5-0.2-0.8-0.4-1.1-0.8c-0.3-0.4-0.5-0.8-0.6-1.2c-0.1-0.5-0.2-1-0.2-1.7v-4.5
			c0-0.6,0.1-1.2,0.2-1.7c0.1-0.5,0.3-0.9,0.6-1.2c0.3-0.3,0.6-0.6,1.1-0.8c0.5-0.2,1-0.3,1.7-0.3c1.3,0,2.2,0.3,2.8,1
			c0.6,0.7,0.8,1.7,0.8,3v4.5c0,1.3-0.3,2.3-0.8,3C221.9,389.7,221,390,219.7,390z M219.2,388.2c0.1,0.1,0.3,0.1,0.5,0.1
			s0.3,0,0.5-0.1c0.1-0.1,0.2-0.1,0.3-0.2c0.1-0.1,0.1-0.2,0.2-0.4s0.1-0.3,0.1-0.4c0-0.1,0-0.3,0-0.5v-5.7c0-0.2,0-0.4,0-0.5
			c0-0.1,0-0.3-0.1-0.4s-0.1-0.3-0.2-0.4c-0.1-0.1-0.2-0.2-0.3-0.2c-0.1-0.1-0.3-0.1-0.5-0.1s-0.3,0-0.5,0.1s-0.2,0.1-0.3,0.2
			c-0.1,0.1-0.1,0.2-0.2,0.4c0,0.1-0.1,0.3-0.1,0.4c0,0.1,0,0.3,0,0.5v5.7c0,0.2,0,0.4,0,0.5c0,0.1,0,0.3,0.1,0.4
			c0,0.2,0.1,0.3,0.2,0.4C219,388,219.1,388.1,219.2,388.2z"/>
		<path d="M224.9,389.9v-12.1h3.1c0.6,0,1.2,0,1.7,0.2c0.5,0.1,0.9,0.3,1.2,0.5c0.4,0.2,0.6,0.6,0.8,1c0.2,0.4,0.3,0.9,0.3,1.6
			c0,0.8-0.1,1.4-0.3,1.9c-0.2,0.5-0.6,0.8-1.1,1.1l1.7,5.9h-2.5l-1.4-5.5h-0.9v5.5H224.9z M227.4,382.9h0.6c0.6,0,1-0.1,1.3-0.4
			c0.2-0.3,0.4-0.7,0.4-1.3c0-0.6-0.1-1-0.3-1.3c-0.2-0.3-0.6-0.4-1.2-0.4h-0.8V382.9z"/>
	</g>
</g>
</svg>
