<?xml version="1.0" encoding="utf-8"?>
<!-- Generator: Adobe Illustrator 22.0.0, SVG Export Plug-In . SVG Version: 6.00 Build 0)  -->
<svg version="1.1" id="Capa_1" xmlns="http://www.w3.org/2000/svg" xmlns:xlink="http://www.w3.org/1999/xlink" x="0px" y="0px"
	 viewBox="0 0 396.9 396.9" style="enable-background:new 0 0 396.9 396.9;" xml:space="preserve">
<style type="text/css">
	.st0{fill:#FFFFFF;}
	.st1{fill:#DE271D;}
	.st2{fill:#B4B3B4;}
</style>
<g>
	<g>
		<rect x="-0.4" y="-0.4" class="st0" width="397.9" height="397.9"/>
		<path d="M397,0.1v396.9H0.1V0.1H397 M398-0.9h-1H0.1h-1v1v396.9v1h1H397h1v-1V0.1V-0.9L398-0.9z"/>
	</g>
	<g>
		<polygon class="st1" points="99.3,170.4 280,274.4 280,66.5 		"/>
		<g>
			<path class="st1" d="M338.4,185.7c24.5,0,44.4,19.8,44.4,44.3c0,24.5-19.9,44.3-44.4,44.3c-24.5,0-44.4-19.8-44.4-44.3
				C294,205.6,313.9,185.7,338.4,185.7"/>
			<path class="st1" d="M338.4,66.5c24.5,0,44.4,19.8,44.4,44.3c0,24.5-19.9,44.3-44.4,44.3c-24.5,0-44.4-19.8-44.4-44.3
				C294,86.3,313.9,66.5,338.4,66.5"/>
		</g>
		<g>
			<g>
				<path class="st0" d="M364.8,113.3c-0.9,1.8-4.8,1.3-9-0.8s-6.9-5.1-6.1-6.9c0-0.1,0.1-0.2,0.1-0.2c-0.2,0.2-0.3,0.3-0.4,0.5
					c-0.9,1.9,1.6,6.2,6.3,8.6c4.7,2.4,9.9,2.1,10.9,0.1c0.9-1.9-2.1-5.5-6.9-7.9c-0.1-0.1-0.3-0.1-0.4-0.2
					C363.4,108.7,365.7,111.5,364.8,113.3z"/>
				<path class="st0" d="M356.5,116.2c0,0-7.8-2.9-12.2-11.3c-1.5-3-5.7-11-16.4-6.4c0,0,6.3-0.7,10.4,6.1
					C343.3,113,351.2,116,356.5,116.2z"/>
				<path class="st0" d="M311.3,92.2c2.6-2.3,8.5,1.3,13.8,8s7.6,13.5,5,15.7c-0.1,0.1-0.3,0.2-0.4,0.3c0.4-0.1,0.7-0.3,1-0.6
					c2.9-2.5,1.7-11.4-4.2-18.8c-5.9-7.5-14.5-10.7-17.3-8.2s-0.4,10.6,5.6,18.1c0.2,0.2,0.4,0.5,0.5,0.7
					C310.4,100.8,308.8,94.4,311.3,92.2z"/>
				<g>
					<path class="st0" d="M348,91.9c-0.5-0.1,8.7,2,11.8,9.3C366.4,100.7,363.2,93.7,348,91.9z"/>
				</g>
				<g>
					<path class="st0" d="M327.2,97.3c-0.3,0.6,6.1-9.1,38,11.6C364.5,106.6,337.1,75.6,327.2,97.3z"/>
				</g>
				<path class="st0" d="M351,116.2c0,0-5.3-1.6-10-5.6c-3-2.6-6.9-5.4-15.4-3.6c0,0,5-0.6,10,3.3
					C341.3,114.8,346.1,116.1,351,116.2z"/>
			</g>
			<g>
				<path class="st0" d="M309.4,121.5l-0.5-0.7h-0.4v0.7H308v-2.3l1,0c0.5,0,0.8,0.3,0.8,0.7v0c0,0.4-0.2,0.6-0.5,0.7l0.6,0.8H309.4
					z M309.4,120c0-0.2-0.1-0.3-0.4-0.3h-0.5v0.6l0.5,0C309.3,120.4,309.4,120.2,309.4,120L309.4,120z"/>
				<path class="st0" d="M310.7,121.5v-2.3l1.7,0v0.4l-1.2,0v0.5l1.1,0v0.4l-1.1,0v0.5l1.2,0l0,0.4L310.7,121.5z"/>
				<path class="st0" d="M314.8,121.5l-0.2-0.5h-1l-0.2,0.5l-0.5,0l1-2.3l0.5,0l1,2.3H314.8z M314.1,119.8l-0.3,0.7l0.6,0
					L314.1,119.8z"/>
				<path class="st0" d="M316,121.5v-2.3l0.5,0v1.8l1.1,0v0.5L316,121.5z"/>
				<path class="st0" d="M320.1,119.7v0.5l1.1,0v0.5l-1.1,0v0.9l-0.5,0v-2.3l1.7,0v0.5L320.1,119.7z"/>
				<path class="st0" d="M322,121.5v-2.3l1.7,0v0.4l-1.2,0v0.5l1.1,0v0.4l-1.1,0v0.5l1.2,0v0.4L322,121.5z"/>
				<path class="st0" d="M325.4,121.5l-0.9,0v-2.3l0.9,0c0.7,0,1.2,0.5,1.2,1.1v0C326.6,121,326.1,121.5,325.4,121.5z M326.1,120.4
					c0-0.4-0.3-0.7-0.7-0.7H325v1.4h0.4C325.8,121.1,326.1,120.8,326.1,120.4L326.1,120.4z"/>
				<path class="st0" d="M327.4,121.5l0-2.3l1.7,0v0.4l-1.2,0v0.5l1.1,0v0.4l-1.1,0v0.5l1.2,0v0.4L327.4,121.5z"/>
				<path class="st0" d="M331.2,121.5l-0.5-0.7h-0.4v0.7h-0.5v-2.3l1,0c0.5,0,0.8,0.3,0.8,0.7v0c0,0.4-0.2,0.6-0.5,0.7l0.6,0.8
					L331.2,121.5z M331.2,120c0-0.2-0.1-0.3-0.4-0.3h-0.5v0.6l0.5,0C331.1,120.4,331.2,120.2,331.2,120L331.2,120z"/>
				<path class="st0" d="M334.2,121.5l-0.2-0.5l-1,0l-0.2,0.5h-0.5l1-2.3l0.5,0l1,2.3H334.2z M333.5,119.8l-0.3,0.7l0.6,0
					L333.5,119.8z"/>
				<path class="st0" d="M336.3,121.5c-0.7,0-1.2-0.5-1.2-1.2v0c0-0.6,0.5-1.2,1.2-1.2c0.4,0,0.7,0.1,0.9,0.3l-0.3,0.4
					c-0.2-0.2-0.4-0.3-0.6-0.3c-0.4,0-0.7,0.3-0.7,0.7v0c0,0.4,0.3,0.7,0.7,0.7c0.3,0,0.4-0.1,0.6-0.3l0.3,0.3
					C336.9,121.4,336.7,121.5,336.3,121.5z"/>
				<path class="st0" d="M337.9,121.5v-2.3l0.5,0v2.3L337.9,121.5z"/>
				<path class="st0" d="M340.4,121.5c-0.7,0-1.2-0.5-1.2-1.2v0c0-0.6,0.5-1.2,1.2-1.2c0.7,0,1.2,0.5,1.2,1.2v0
					C341.6,121,341.1,121.5,340.4,121.5z M341.1,120.4c0-0.4-0.3-0.7-0.7-0.7c-0.4,0-0.7,0.3-0.7,0.7v0c0,0.4,0.3,0.7,0.7,0.7
					C340.8,121.1,341.1,120.8,341.1,120.4L341.1,120.4z M340.2,119.1l0.4-0.6l0.4,0.2l-0.4,0.4H340.2z"/>
				<path class="st0" d="M343.9,121.5l-1.1-1.4v1.4l-0.5,0v-2.3l0.5,0l1.1,1.4l0-1.4h0.5v2.3H343.9z"/>
				<path class="st0" d="M346.5,121.5v-2.3l1.7,0v0.4l-1.2,0v0.5l1.1,0v0.4l-1.1,0v0.5l1.2,0v0.4L346.5,121.5z"/>
				<path class="st0" d="M349.8,121.5c-0.3,0-0.7-0.1-1-0.4l0.3-0.4c0.2,0.2,0.4,0.3,0.7,0.3c0.2,0,0.3-0.1,0.3-0.2v0
					c0-0.1-0.1-0.2-0.5-0.3c-0.5-0.1-0.7-0.2-0.7-0.7v0c0-0.4,0.3-0.7,0.8-0.7c0.3,0,0.6,0.1,0.8,0.3l-0.3,0.4
					c-0.2-0.1-0.4-0.2-0.6-0.2c-0.2,0-0.3,0.1-0.3,0.2v0c0,0.1,0.1,0.2,0.5,0.3c0.5,0.1,0.7,0.3,0.7,0.7v0
					C350.6,121.3,350.3,121.5,349.8,121.5z"/>
				<path class="st0" d="M352.2,120.8h-0.4v0.7h-0.5v-2.3l0.9,0c0.5,0,0.9,0.3,0.9,0.8v0C353.1,120.6,352.7,120.8,352.2,120.8z
					 M352.6,120c0-0.2-0.2-0.3-0.4-0.3h-0.4v0.7h0.4C352.5,120.4,352.6,120.2,352.6,120L352.6,120z"/>
				<path class="st0" d="M355.3,121.5l-0.2-0.5l-1,0l-0.2,0.5l-0.5,0l1-2.3h0.5l1,2.3L355.3,121.5z M354.6,119.8l-0.3,0.7h0.6
					L354.6,119.8z"/>
				<path class="st0" d="M358,121.5l-1.1-1.4v1.4l-0.5,0l0-2.3l0.5,0l1.1,1.4v-1.4h0.5v2.3H358z M357.7,119.1
					c-0.2,0-0.4-0.1-0.5-0.1c-0.1,0-0.1,0.1-0.2,0.2l-0.3-0.1c0.1-0.3,0.2-0.4,0.4-0.4c0.2,0,0.4,0.1,0.5,0.1c0.1,0,0.1-0.1,0.2-0.2
					l0.3,0.1C358.1,118.9,358,119.1,357.7,119.1z"/>
				<path class="st0" d="M360.4,121.5c-0.7,0-1.2-0.5-1.2-1.2v0c0-0.6,0.5-1.2,1.2-1.2c0.7,0,1.2,0.5,1.2,1.2v0
					C361.6,121,361.1,121.5,360.4,121.5z M361.1,120.4c0-0.4-0.3-0.7-0.7-0.7c-0.4,0-0.7,0.3-0.7,0.7v0c0,0.4,0.3,0.7,0.7,0.7
					C360.8,121.1,361.1,120.8,361.1,120.4L361.1,120.4z"/>
				<path class="st0" d="M362.4,121.5v-2.3h0.5v1.8l1.1,0v0.5L362.4,121.5z"/>
				<path class="st0" d="M366.4,121.5l-0.2-0.5l-1,0l-0.2,0.5h-0.5l1-2.3h0.5l1,2.3L366.4,121.5z M365.7,119.8l-0.3,0.7h0.6
					L365.7,119.8z"/>
			</g>
			<g>
				<path class="st0" d="M312.3,132.9c-0.6,0-1.2-0.1-1.7-0.3c-0.5-0.2-1-0.5-1.3-0.9c-0.4-0.4-0.7-0.8-0.9-1.3
					c-0.2-0.5-0.3-1.1-0.3-1.7v0c0-0.6,0.1-1.1,0.3-1.7c0.2-0.5,0.5-1,0.9-1.4c0.4-0.4,0.8-0.7,1.4-0.9c0.5-0.2,1.1-0.3,1.7-0.3
					c0.4,0,0.7,0,1.1,0.1c0.3,0.1,0.6,0.1,0.9,0.3c0.3,0.1,0.5,0.2,0.7,0.4c0.2,0.2,0.4,0.3,0.6,0.5l-1.2,1.3
					c-0.3-0.3-0.6-0.5-1-0.7c-0.3-0.2-0.7-0.2-1.1-0.2c-0.3,0-0.7,0.1-1,0.2c-0.3,0.1-0.5,0.3-0.8,0.6c-0.2,0.2-0.4,0.5-0.5,0.8
					c-0.1,0.3-0.2,0.6-0.2,1v0c0,0.4,0.1,0.7,0.2,1s0.3,0.6,0.5,0.8c0.2,0.2,0.5,0.4,0.8,0.6c0.3,0.1,0.6,0.2,1,0.2
					c0.5,0,0.9-0.1,1.2-0.3c0.3-0.2,0.6-0.4,1-0.7l1.2,1.2c-0.2,0.2-0.4,0.4-0.7,0.6c-0.2,0.2-0.5,0.3-0.7,0.5
					c-0.3,0.1-0.6,0.2-0.9,0.3S312.7,132.9,312.3,132.9z"/>
				<path class="st0" d="M317,124.5l1.8,0l0,8.3l-1.8,0L317,124.5z"/>
				<path class="st0" d="M324.8,132.9c-0.6,0-1.2-0.1-1.7-0.3c-0.5-0.2-1-0.5-1.3-0.9c-0.4-0.4-0.7-0.8-0.9-1.3
					c-0.2-0.5-0.3-1.1-0.3-1.7v0c0-0.6,0.1-1.1,0.3-1.7c0.2-0.5,0.5-1,0.9-1.4c0.4-0.4,0.8-0.7,1.4-0.9c0.5-0.2,1.1-0.3,1.7-0.3
					c0.4,0,0.7,0,1.1,0.1c0.3,0.1,0.6,0.1,0.9,0.3c0.3,0.1,0.5,0.2,0.7,0.4c0.2,0.2,0.4,0.3,0.6,0.5L327,127c-0.3-0.3-0.6-0.5-1-0.7
					c-0.3-0.2-0.7-0.2-1.1-0.2c-0.3,0-0.7,0.1-1,0.2c-0.3,0.1-0.5,0.3-0.8,0.6c-0.2,0.2-0.4,0.5-0.5,0.8c-0.1,0.3-0.2,0.6-0.2,1v0
					c0,0.4,0.1,0.7,0.2,1s0.3,0.6,0.5,0.8c0.2,0.2,0.5,0.4,0.8,0.6c0.3,0.1,0.6,0.2,1,0.2c0.5,0,0.9-0.1,1.2-0.3
					c0.3-0.2,0.6-0.4,1-0.7l1.2,1.2c-0.2,0.2-0.4,0.4-0.7,0.6c-0.2,0.2-0.5,0.3-0.7,0.5c-0.3,0.1-0.6,0.2-0.9,0.3
					S325.2,132.9,324.8,132.9z"/>
				<path class="st0" d="M329.5,124.5l1.8,0v6.6l4.1,0v1.6l-5.9,0L329.5,124.5z"/>
				<path class="st0" d="M336.8,124.5l1.8,0l0,8.3l-1.8,0V124.5z"/>
				<path class="st0" d="M343.6,132.9c-0.6,0-1.2-0.1-1.8-0.3c-0.6-0.2-1.2-0.5-1.6-1l1.1-1.3c0.4,0.3,0.8,0.6,1.2,0.7
					c0.4,0.2,0.8,0.3,1.3,0.3c0.4,0,0.7-0.1,0.9-0.2c0.2-0.1,0.3-0.3,0.3-0.6v0c0-0.1,0-0.2-0.1-0.3c0-0.1-0.1-0.2-0.2-0.3
					c-0.1-0.1-0.3-0.2-0.5-0.2c-0.2-0.1-0.5-0.2-0.8-0.2c-0.4-0.1-0.8-0.2-1.1-0.3c-0.3-0.1-0.6-0.3-0.9-0.5
					c-0.2-0.2-0.4-0.4-0.5-0.7c-0.1-0.3-0.2-0.6-0.2-1v0c0-0.4,0.1-0.7,0.2-1c0.1-0.3,0.3-0.6,0.6-0.8c0.3-0.2,0.6-0.4,0.9-0.5
					c0.4-0.1,0.7-0.2,1.2-0.2c0.6,0,1.2,0.1,1.7,0.3c0.5,0.2,1,0.4,1.4,0.8l-0.9,1.4c-0.4-0.3-0.7-0.4-1.1-0.6
					c-0.4-0.1-0.7-0.2-1.1-0.2c-0.4,0-0.6,0.1-0.8,0.2c-0.2,0.1-0.3,0.3-0.3,0.5v0c0,0.1,0,0.2,0.1,0.3c0.1,0.1,0.1,0.2,0.3,0.3
					c0.1,0.1,0.3,0.2,0.5,0.2c0.2,0.1,0.5,0.2,0.9,0.2c0.4,0.1,0.8,0.2,1.1,0.4c0.3,0.1,0.6,0.3,0.8,0.5c0.2,0.2,0.4,0.4,0.5,0.7
					c0.1,0.3,0.2,0.6,0.2,0.9v0c0,0.4-0.1,0.8-0.2,1.1c-0.1,0.3-0.4,0.6-0.6,0.8c-0.3,0.2-0.6,0.4-0.9,0.5
					C344.4,132.9,344,132.9,343.6,132.9z"/>
				<path class="st0" d="M348.2,124.5l2,0l2.2,3.5l2.2-3.5l2,0l0,8.3l-1.8,0l0-5.4l-2.3,3.5h0l-2.3-3.5v5.4l-1.8,0L348.2,124.5z"/>
				<path class="st0" d="M362.5,132.9c-0.6,0-1.2-0.1-1.8-0.3c-0.5-0.2-1-0.5-1.4-0.9c-0.4-0.4-0.7-0.8-0.9-1.3
					c-0.2-0.5-0.3-1.1-0.3-1.7v0c0-0.6,0.1-1.1,0.3-1.7c0.2-0.5,0.5-1,0.9-1.4c0.4-0.4,0.9-0.7,1.4-0.9c0.5-0.2,1.1-0.3,1.8-0.3
					c0.6,0,1.2,0.1,1.8,0.3c0.5,0.2,1,0.5,1.4,0.9c0.4,0.4,0.7,0.8,0.9,1.3c0.2,0.5,0.3,1.1,0.3,1.7v0c0,0.6-0.1,1.1-0.3,1.7
					c-0.2,0.5-0.5,1-0.9,1.4c-0.4,0.4-0.9,0.7-1.4,0.9C363.7,132.8,363.1,132.9,362.5,132.9z M362.5,131.3c0.4,0,0.7-0.1,1-0.2
					c0.3-0.1,0.6-0.3,0.8-0.6c0.2-0.2,0.4-0.5,0.5-0.8c0.1-0.3,0.2-0.6,0.2-1v0c0-0.4-0.1-0.7-0.2-1c-0.1-0.3-0.3-0.6-0.5-0.8
					c-0.2-0.2-0.5-0.4-0.8-0.6s-0.6-0.2-1-0.2c-0.4,0-0.7,0.1-1,0.2c-0.3,0.1-0.6,0.3-0.8,0.6c-0.2,0.2-0.4,0.5-0.5,0.8
					c-0.1,0.3-0.2,0.6-0.2,1v0c0,0.4,0.1,0.7,0.2,1c0.1,0.3,0.3,0.6,0.5,0.8c0.2,0.2,0.5,0.4,0.8,0.6
					C361.8,131.2,362.1,131.3,362.5,131.3z"/>
			</g>
		</g>
	</g>
	<rect x="0.1" y="340.3" class="st2" width="396.9" height="56.7"/>
	<g>
		<path d="M183.3,359.1v-12.1h2.5v10.5h2.8v1.7H183.3z"/>
		<path d="M193.1,359.2c-0.7,0-1.2-0.1-1.7-0.3c-0.5-0.2-0.8-0.4-1.1-0.8c-0.3-0.4-0.5-0.8-0.6-1.2c-0.1-0.5-0.2-1-0.2-1.7v-4.5
			c0-0.6,0.1-1.2,0.2-1.7c0.1-0.5,0.3-0.9,0.6-1.2s0.6-0.6,1.1-0.8s1-0.3,1.7-0.3c1.3,0,2.2,0.3,2.8,1c0.6,0.7,0.8,1.7,0.8,3v4.5
			c0,1.3-0.3,2.3-0.8,3C195.3,358.9,194.4,359.2,193.1,359.2z M192.6,357.4c0.1,0.1,0.3,0.1,0.5,0.1s0.3,0,0.5-0.1
			c0.1-0.1,0.2-0.1,0.3-0.2c0.1-0.1,0.1-0.2,0.2-0.4s0.1-0.3,0.1-0.4c0-0.1,0-0.3,0-0.5v-5.7c0-0.2,0-0.4,0-0.5c0-0.1,0-0.3-0.1-0.4
			s-0.1-0.3-0.2-0.4c-0.1-0.1-0.2-0.2-0.3-0.2c-0.1-0.1-0.3-0.1-0.5-0.1s-0.3,0-0.5,0.1s-0.2,0.1-0.3,0.2c-0.1,0.1-0.1,0.2-0.2,0.4
			c0,0.1-0.1,0.3-0.1,0.4s0,0.3,0,0.5v5.7c0,0.2,0,0.4,0,0.5c0,0.1,0,0.3,0.1,0.4c0,0.2,0.1,0.3,0.2,0.4
			C192.4,357.2,192.5,357.3,192.6,357.4z"/>
		<path d="M201.4,359.2c-0.6,0-1.1-0.1-1.5-0.3c-0.4-0.2-0.8-0.5-1-0.9s-0.4-0.8-0.6-1.3c-0.1-0.5-0.2-1.1-0.2-1.7v-4
			c0-0.5,0-1,0.1-1.5c0.1-0.4,0.2-0.8,0.4-1.2c0.2-0.4,0.4-0.7,0.7-0.9c0.3-0.2,0.6-0.4,1-0.5c0.4-0.1,0.9-0.2,1.4-0.2
			c0.6,0,1.2,0.1,1.6,0.2c0.5,0.2,0.8,0.4,1.1,0.7c0.3,0.3,0.5,0.7,0.6,1.1c0.1,0.4,0.2,0.9,0.2,1.5v0.7h-2.4v-0.8
			c0-0.2,0-0.4,0-0.5c0-0.1,0-0.3-0.1-0.4c0-0.2-0.1-0.3-0.2-0.4c-0.1-0.1-0.2-0.2-0.3-0.2c-0.1-0.1-0.3-0.1-0.5-0.1
			c-0.2,0-0.4,0-0.5,0.1c-0.1,0.1-0.2,0.2-0.3,0.3c-0.1,0.1-0.1,0.2-0.2,0.4c0,0.2-0.1,0.3-0.1,0.5s0,0.3,0,0.6v5.3
			c0,0.6,0.1,1,0.2,1.3c0.2,0.3,0.5,0.5,0.9,0.5c0.4,0,0.8-0.2,0.9-0.5c0.2-0.3,0.3-0.8,0.3-1.4v-1.2h-1.2v-1.5h3.4v6.2h-1.6
			l-0.2-1.1C203,358.8,202.4,359.2,201.4,359.2z"/>
		<path d="M210.3,359.2c-0.7,0-1.2-0.1-1.7-0.3c-0.5-0.2-0.8-0.4-1.1-0.8c-0.3-0.4-0.5-0.8-0.6-1.2c-0.1-0.5-0.2-1-0.2-1.7v-4.5
			c0-0.6,0.1-1.2,0.2-1.7c0.1-0.5,0.3-0.9,0.6-1.2c0.3-0.3,0.6-0.6,1.1-0.8c0.5-0.2,1-0.3,1.7-0.3c1.3,0,2.2,0.3,2.8,1
			c0.6,0.7,0.8,1.7,0.8,3v4.5c0,1.3-0.3,2.3-0.8,3C212.5,358.9,211.5,359.2,210.3,359.2z M209.8,357.4c0.1,0.1,0.3,0.1,0.5,0.1
			s0.3,0,0.5-0.1c0.1-0.1,0.2-0.1,0.3-0.2c0.1-0.1,0.1-0.2,0.2-0.4s0.1-0.3,0.1-0.4c0-0.1,0-0.3,0-0.5v-5.7c0-0.2,0-0.4,0-0.5
			c0-0.1,0-0.3-0.1-0.4s-0.1-0.3-0.2-0.4c-0.1-0.1-0.2-0.2-0.3-0.2c-0.1-0.1-0.3-0.1-0.5-0.1s-0.3,0-0.5,0.1s-0.2,0.1-0.3,0.2
			c-0.1,0.1-0.1,0.2-0.2,0.4c0,0.1-0.1,0.3-0.1,0.4c0,0.1,0,0.3,0,0.5v5.7c0,0.2,0,0.4,0,0.5c0,0.1,0,0.3,0.1,0.4
			c0,0.2,0.1,0.3,0.2,0.4C209.5,357.2,209.6,357.3,209.8,357.4z"/>
		<path d="M171,374.6c-0.7,0-1.2-0.1-1.7-0.3c-0.5-0.2-0.8-0.4-1.1-0.8c-0.3-0.4-0.5-0.8-0.6-1.2c-0.1-0.5-0.2-1-0.2-1.7v-4.5
			c0-0.6,0.1-1.2,0.2-1.7c0.1-0.5,0.3-0.9,0.6-1.2s0.6-0.6,1.1-0.8s1-0.3,1.7-0.3c1.3,0,2.2,0.3,2.8,1c0.6,0.7,0.8,1.7,0.8,3v4.5
			c0,1.3-0.3,2.3-0.8,3C173.2,374.3,172.3,374.6,171,374.6z M170.6,372.8c0.1,0.1,0.3,0.1,0.5,0.1s0.3,0,0.5-0.1
			c0.1-0.1,0.2-0.1,0.3-0.2c0.1-0.1,0.1-0.2,0.2-0.4s0.1-0.3,0.1-0.4c0-0.1,0-0.3,0-0.5v-5.7c0-0.2,0-0.4,0-0.5c0-0.1,0-0.3-0.1-0.4
			s-0.1-0.3-0.2-0.4c-0.1-0.1-0.2-0.2-0.3-0.2c-0.1-0.1-0.3-0.1-0.5-0.1s-0.3,0-0.5,0.1s-0.2,0.1-0.3,0.2c-0.1,0.1-0.1,0.2-0.2,0.4
			c0,0.1-0.1,0.3-0.1,0.4s0,0.3,0,0.5v5.7c0,0.2,0,0.4,0,0.5c0,0.1,0,0.3,0.1,0.4c0,0.2,0.1,0.3,0.2,0.4
			C170.3,372.6,170.4,372.7,170.6,372.8z"/>
		<path d="M180,374.5v-12.1h1.7l2.7,6.3v-6.3h2.1v12.1h-1.6l-2.7-6.7v6.7H180z"/>
		<path d="M191.7,374.6c-0.7,0-1.2-0.1-1.7-0.3c-0.5-0.2-0.8-0.4-1.1-0.8c-0.3-0.4-0.5-0.8-0.6-1.2c-0.1-0.5-0.2-1-0.2-1.7v-4.5
			c0-0.6,0.1-1.2,0.2-1.7c0.1-0.5,0.3-0.9,0.6-1.2s0.6-0.6,1.1-0.8s1-0.3,1.7-0.3c1.3,0,2.2,0.3,2.8,1c0.6,0.7,0.8,1.7,0.8,3v4.5
			c0,1.3-0.3,2.3-0.8,3C193.9,374.3,193,374.6,191.7,374.6z M191.2,372.8c0.1,0.1,0.3,0.1,0.5,0.1s0.3,0,0.5-0.1
			c0.1-0.1,0.2-0.1,0.3-0.2c0.1-0.1,0.1-0.2,0.2-0.4s0.1-0.3,0.1-0.4c0-0.1,0-0.3,0-0.5v-5.7c0-0.2,0-0.4,0-0.5c0-0.1,0-0.3-0.1-0.4
			s-0.1-0.3-0.2-0.4c-0.1-0.1-0.2-0.2-0.3-0.2c-0.1-0.1-0.3-0.1-0.5-0.1s-0.3,0-0.5,0.1s-0.2,0.1-0.3,0.2c-0.1,0.1-0.1,0.2-0.2,0.4
			c0,0.1-0.1,0.3-0.1,0.4s0,0.3,0,0.5v5.7c0,0.2,0,0.4,0,0.5c0,0.1,0,0.3,0.1,0.4c0,0.2,0.1,0.3,0.2,0.4
			C191,372.6,191.1,372.7,191.2,372.8z"/>
		<path d="M196.9,374.5l0.2-12.1h2.6l1.5,7.7l1.6-7.7h2.5l0.2,12.1h-1.8l-0.2-8.2l-1.6,8.2h-1.5l-1.6-8.2l-0.2,8.2H196.9z"/>
		<path d="M207.3,374.5v-12.1h3.1c0.4,0,0.9,0,1.2,0.1c0.4,0.1,0.7,0.1,1,0.3c0.3,0.1,0.6,0.3,0.8,0.6c0.2,0.2,0.4,0.5,0.5,0.9
			c0.1,0.4,0.2,0.8,0.2,1.3c0,0,0,0,0,0.1c0,1.5-0.6,2.3-1.8,2.5c1.4,0.2,2.1,1.2,2.1,3c0,0,0,0.1,0,0.1c0,1.1-0.3,2-0.9,2.6
			c-0.6,0.6-1.5,0.9-2.7,0.9H207.3z M209.8,367.2h0.6c0.6,0,1-0.1,1.3-0.4s0.3-0.7,0.3-1.3c0-0.6-0.1-1-0.4-1.2
			c-0.3-0.2-0.7-0.3-1.4-0.3h-0.4V367.2z M209.8,372.7h0.7c0.6,0,1.1-0.1,1.3-0.4c0.2-0.3,0.4-0.8,0.4-1.4c0-0.7-0.1-1.2-0.4-1.5
			c-0.3-0.3-0.7-0.5-1.3-0.5h-0.6V372.7z"/>
		<path d="M215.9,374.5v-12.1h3.1c0.6,0,1.2,0,1.7,0.2c0.5,0.1,0.9,0.3,1.2,0.5c0.4,0.2,0.6,0.6,0.8,1c0.2,0.4,0.3,0.9,0.3,1.6
			c0,0.8-0.1,1.4-0.3,1.9c-0.2,0.5-0.6,0.8-1.1,1.1l1.7,5.9h-2.5l-1.4-5.5h-0.9v5.5H215.9z M218.4,367.5h0.6c0.6,0,1-0.1,1.3-0.4
			c0.2-0.3,0.4-0.7,0.4-1.3c0-0.6-0.1-1-0.3-1.3c-0.2-0.3-0.6-0.4-1.2-0.4h-0.8V367.5z"/>
		<path d="M224.6,374.5v-12.1h5.3v1.7h-2.8v3.2h2.2v1.7h-2.2v3.8h2.8v1.7H224.6z"/>
		<path d="M165.2,389.9v-12.1h3.8c2.1,0,3.2,1.2,3.2,3.5c0,0.6-0.1,1.2-0.2,1.6c-0.2,0.4-0.4,0.8-0.7,1c-0.3,0.3-0.7,0.4-1.1,0.5
			c-0.4,0.1-0.8,0.2-1.4,0.2h-1.1v5.3H165.2z M167.7,382.8h0.8c0.5,0,0.9-0.1,1.1-0.4c0.2-0.2,0.3-0.7,0.3-1.3c0-0.3,0-0.6,0-0.8
			c0-0.2-0.1-0.4-0.2-0.5c-0.1-0.2-0.2-0.3-0.4-0.3s-0.4-0.1-0.7-0.1h-0.8V382.8z"/>
		<path d="M173.4,389.9v-12.1h3.1c0.6,0,1.2,0,1.7,0.2c0.5,0.1,0.9,0.3,1.2,0.5c0.4,0.2,0.6,0.6,0.8,1s0.3,0.9,0.3,1.6
			c0,0.8-0.1,1.4-0.3,1.9c-0.2,0.5-0.6,0.8-1.1,1.1l1.7,5.9h-2.5l-1.4-5.5h-0.9v5.5H173.4z M175.9,382.9h0.6c0.6,0,1-0.1,1.3-0.4
			c0.2-0.3,0.4-0.7,0.4-1.3c0-0.6-0.1-1-0.3-1.3c-0.2-0.3-0.6-0.4-1.2-0.4h-0.8V382.9z"/>
		<path d="M185.5,390c-0.7,0-1.2-0.1-1.7-0.3c-0.5-0.2-0.8-0.4-1.1-0.8c-0.3-0.4-0.5-0.8-0.6-1.2c-0.1-0.5-0.2-1-0.2-1.7v-4.5
			c0-0.6,0.1-1.2,0.2-1.7c0.1-0.5,0.3-0.9,0.6-1.2s0.6-0.6,1.1-0.8s1-0.3,1.7-0.3c1.3,0,2.2,0.3,2.8,1c0.6,0.7,0.8,1.7,0.8,3v4.5
			c0,1.3-0.3,2.3-0.8,3C187.7,389.7,186.8,390,185.5,390z M185,388.2c0.1,0.1,0.3,0.1,0.5,0.1s0.3,0,0.5-0.1
			c0.1-0.1,0.2-0.1,0.3-0.2c0.1-0.1,0.1-0.2,0.2-0.4s0.1-0.3,0.1-0.4c0-0.1,0-0.3,0-0.5v-5.7c0-0.2,0-0.4,0-0.5c0-0.1,0-0.3-0.1-0.4
			s-0.1-0.3-0.2-0.4c-0.1-0.1-0.2-0.2-0.3-0.2c-0.1-0.1-0.3-0.1-0.5-0.1s-0.3,0-0.5,0.1s-0.2,0.1-0.3,0.2c-0.1,0.1-0.1,0.2-0.2,0.4
			c0,0.1-0.1,0.3-0.1,0.4s0,0.3,0,0.5v5.7c0,0.2,0,0.4,0,0.5c0,0.1,0,0.3,0.1,0.4c0,0.2,0.1,0.3,0.2,0.4
			C184.8,388,184.9,388.1,185,388.2z"/>
		<path d="M190.7,389.9l0.2-12.1h2.6l1.5,7.7l1.6-7.7h2.5l0.2,12.1h-1.8l-0.2-8.2l-1.6,8.2h-1.5l-1.6-8.2l-0.2,8.2H190.7z"/>
		<path d="M204.5,390c-0.7,0-1.2-0.1-1.7-0.3c-0.5-0.2-0.8-0.4-1.1-0.8c-0.3-0.4-0.5-0.8-0.6-1.2c-0.1-0.5-0.2-1-0.2-1.7v-4.5
			c0-0.6,0.1-1.2,0.2-1.7c0.1-0.5,0.3-0.9,0.6-1.2c0.3-0.3,0.6-0.6,1.1-0.8c0.5-0.2,1-0.3,1.7-0.3c1.3,0,2.2,0.3,2.8,1
			c0.6,0.7,0.8,1.7,0.8,3v4.5c0,1.3-0.3,2.3-0.8,3C206.7,389.7,205.8,390,204.5,390z M204,388.2c0.1,0.1,0.3,0.1,0.5,0.1
			s0.3,0,0.5-0.1c0.1-0.1,0.2-0.1,0.3-0.2c0.1-0.1,0.1-0.2,0.2-0.4s0.1-0.3,0.1-0.4c0-0.1,0-0.3,0-0.5v-5.7c0-0.2,0-0.4,0-0.5
			c0-0.1,0-0.3-0.1-0.4s-0.1-0.3-0.2-0.4c-0.1-0.1-0.2-0.2-0.3-0.2c-0.1-0.1-0.3-0.1-0.5-0.1s-0.3,0-0.5,0.1s-0.2,0.1-0.3,0.2
			c-0.1,0.1-0.1,0.2-0.2,0.4c0,0.1-0.1,0.3-0.1,0.4c0,0.1,0,0.3,0,0.5v5.7c0,0.2,0,0.4,0,0.5c0,0.1,0,0.3,0.1,0.4
			c0,0.2,0.1,0.3,0.2,0.4C203.8,388,203.9,388.1,204,388.2z"/>
		<path d="M210.9,389.9v-10.3h-1.9v-1.8h6.3v1.8h-1.9v10.3H210.9z"/>
		<path d="M219.7,390c-0.7,0-1.2-0.1-1.7-0.3c-0.5-0.2-0.8-0.4-1.1-0.8c-0.3-0.4-0.5-0.8-0.6-1.2c-0.1-0.5-0.2-1-0.2-1.7v-4.5
			c0-0.6,0.1-1.2,0.2-1.7c0.1-0.5,0.3-0.9,0.6-1.2c0.3-0.3,0.6-0.6,1.1-0.8c0.5-0.2,1-0.3,1.7-0.3c1.3,0,2.2,0.3,2.8,1
			c0.6,0.7,0.8,1.7,0.8,3v4.5c0,1.3-0.3,2.3-0.8,3C221.9,389.7,221,390,219.7,390z M219.2,388.2c0.1,0.1,0.3,0.1,0.5,0.1
			s0.3,0,0.5-0.1c0.1-0.1,0.2-0.1,0.3-0.2c0.1-0.1,0.1-0.2,0.2-0.4s0.1-0.3,0.1-0.4c0-0.1,0-0.3,0-0.5v-5.7c0-0.2,0-0.4,0-0.5
			c0-0.1,0-0.3-0.1-0.4s-0.1-0.3-0.2-0.4c-0.1-0.1-0.2-0.2-0.3-0.2c-0.1-0.1-0.3-0.1-0.5-0.1s-0.3,0-0.5,0.1s-0.2,0.1-0.3,0.2
			c-0.1,0.1-0.1,0.2-0.2,0.4c0,0.1-0.1,0.3-0.1,0.4c0,0.1,0,0.3,0,0.5v5.7c0,0.2,0,0.4,0,0.5c0,0.1,0,0.3,0.1,0.4
			c0,0.2,0.1,0.3,0.2,0.4C219,388,219.1,388.1,219.2,388.2z"/>
		<path d="M224.9,389.9v-12.1h3.1c0.6,0,1.2,0,1.7,0.2c0.5,0.1,0.9,0.3,1.2,0.5c0.4,0.2,0.6,0.6,0.8,1c0.2,0.4,0.3,0.9,0.3,1.6
			c0,0.8-0.1,1.4-0.3,1.9c-0.2,0.5-0.6,0.8-1.1,1.1l1.7,5.9h-2.5l-1.4-5.5h-0.9v5.5H224.9z M227.4,382.9h0.6c0.6,0,1-0.1,1.3-0.4
			c0.2-0.3,0.4-0.7,0.4-1.3c0-0.6-0.1-1-0.3-1.3c-0.2-0.3-0.6-0.4-1.2-0.4h-0.8V382.9z"/>
	</g>
</g>
</svg>
