<?xml version="1.0" encoding="utf-8"?>
<!-- Generator: Adobe Illustrator 22.0.0, SVG Export Plug-In . SVG Version: 6.00 Build 0)  -->
<svg version="1.1" id="Capa_1" xmlns="http://www.w3.org/2000/svg" xmlns:xlink="http://www.w3.org/1999/xlink" x="0px" y="0px"
	 viewBox="0 0 396.9 396.9" style="enable-background:new 0 0 396.9 396.9;" xml:space="preserve">
<style type="text/css">
	.st0{fill:#FFFFFF;}
	.st1{fill:#B4B3B4;}
	.st2{fill:#FECD00;}
	.st3{fill:#1A1C1E;}
</style>
<g>
	<g>
		<path class="st0" d="M0,397.4c-0.3,0-0.5-0.2-0.5-0.5V0c0-0.3,0.2-0.5,0.5-0.5h396.9c0.3,0,0.5,0.2,0.5,0.5v396.9
			c0,0.3-0.2,0.5-0.5,0.5H0z"/>
		<path d="M396.9,0v396.9H0V0H396.9 M396.9-1H0c-0.6,0-1,0.4-1,1v396.9c0,0.6,0.4,1,1,1h396.9c0.6,0,1-0.4,1-1V0
			C397.9-0.6,397.4-1,396.9-1L396.9-1z"/>
	</g>
	<rect y="340.2" class="st1" width="396.9" height="56.7"/>
	<g>
		<path d="M183.6,357.4v-10.1h1.9v8.6h3.5v1.5H183.6z"/>
		<path d="M190.3,351.5c0-0.8,0.1-1.4,0.1-1.9c0.1-0.5,0.2-0.9,0.4-1.3s0.5-0.7,1-0.9c0.4-0.2,1-0.3,1.8-0.3s1.3,0.1,1.8,0.3
			c0.4,0.2,0.8,0.5,1,0.9s0.4,0.8,0.4,1.3c0.1,0.5,0.1,1.1,0.1,1.9v1.4c0,0.8,0,1.5-0.1,2c-0.1,0.5-0.2,1-0.4,1.4
			c-0.2,0.4-0.5,0.7-1,0.9c-0.4,0.2-1,0.3-1.8,0.3s-1.3-0.1-1.8-0.3c-0.4-0.2-0.8-0.5-1-0.9c-0.2-0.4-0.4-0.9-0.4-1.4
			c-0.1-0.5-0.1-1.2-0.1-2V351.5z M192.2,353.9c0,0.3,0,0.5,0,0.8s0.1,0.5,0.2,0.7c0.1,0.2,0.2,0.4,0.4,0.5c0.2,0.1,0.4,0.2,0.7,0.2
			c0.3,0,0.6-0.1,0.8-0.2c0.2-0.1,0.3-0.3,0.4-0.6c0.1-0.2,0.1-0.5,0.2-0.7c0-0.2,0-0.5,0-0.9v-2.6c0-0.3,0-0.7,0-0.9
			s-0.1-0.5-0.2-0.8s-0.2-0.5-0.4-0.6c-0.2-0.2-0.4-0.3-0.8-0.3c-0.3,0-0.6,0.1-0.7,0.2c-0.2,0.1-0.3,0.3-0.4,0.6
			c-0.1,0.2-0.1,0.5-0.2,0.8s0,0.6,0,1V353.9z"/>
		<path d="M198.4,351.5c0-0.8,0.1-1.4,0.1-1.9c0.1-0.5,0.2-0.9,0.4-1.3s0.5-0.7,1-0.9c0.4-0.2,1-0.3,1.8-0.3c0.9,0,1.6,0.2,2.1,0.5
			s0.9,0.9,1.1,1.7c0.1,0.2,0.1,0.5,0.1,1c0,0.1,0,0.2,0,0.2h-1.9c0-0.3,0-0.6-0.1-0.8c0-0.2-0.1-0.4-0.2-0.6s-0.2-0.3-0.4-0.4
			c-0.2-0.1-0.4-0.2-0.7-0.2c-0.3,0-0.5,0.1-0.7,0.2c-0.2,0.1-0.3,0.3-0.4,0.6c-0.1,0.2-0.1,0.5-0.2,0.8c0,0.3,0,0.6,0,1v2.8
			c0,0.3,0,0.5,0,0.8c0,0.2,0.1,0.5,0.2,0.7c0.1,0.2,0.2,0.4,0.4,0.5c0.2,0.1,0.4,0.2,0.7,0.2c0.5,0,0.8-0.2,1.1-0.7
			c0.2-0.5,0.3-1.1,0.3-2h-1.3V352h3.1v5.4h-1.4v-1.2h0c-0.2,0.5-0.4,0.8-0.7,1c-0.3,0.2-0.7,0.3-1.1,0.4c-0.7,0-1.3-0.1-1.8-0.3
			c-0.4-0.2-0.8-0.5-1-0.9s-0.4-0.9-0.4-1.4c-0.1-0.5-0.1-1.2-0.1-2V351.5z"/>
		<path d="M206.7,351.5c0-0.8,0.1-1.4,0.1-1.9c0.1-0.5,0.2-0.9,0.4-1.3s0.5-0.7,1-0.9c0.4-0.2,1-0.3,1.8-0.3s1.3,0.1,1.8,0.3
			c0.4,0.2,0.8,0.5,1,0.9s0.4,0.8,0.4,1.3c0.1,0.5,0.1,1.1,0.1,1.9v1.4c0,0.8,0,1.5-0.1,2c-0.1,0.5-0.2,1-0.4,1.4s-0.5,0.7-1,0.9
			c-0.4,0.2-1,0.3-1.8,0.3s-1.3-0.1-1.8-0.3c-0.4-0.2-0.8-0.5-1-0.9s-0.4-0.9-0.4-1.4c-0.1-0.5-0.1-1.2-0.1-2V351.5z M208.7,353.9
			c0,0.3,0,0.5,0,0.8s0.1,0.5,0.2,0.7c0.1,0.2,0.2,0.4,0.4,0.5c0.2,0.1,0.4,0.2,0.7,0.2c0.3,0,0.6-0.1,0.8-0.2
			c0.2-0.1,0.3-0.3,0.4-0.6c0.1-0.2,0.1-0.5,0.2-0.7c0-0.2,0-0.5,0-0.9v-2.6c0-0.3,0-0.7,0-0.9s-0.1-0.5-0.2-0.8
			c-0.1-0.3-0.2-0.5-0.4-0.6s-0.4-0.3-0.8-0.3c-0.3,0-0.5,0.1-0.7,0.2c-0.2,0.1-0.3,0.3-0.4,0.6s-0.1,0.5-0.2,0.8s0,0.6,0,1V353.9z"
			/>
		<path d="M168.7,366.9c0-0.8,0.1-1.4,0.1-1.9c0.1-0.5,0.2-0.9,0.4-1.3s0.5-0.7,1-0.9c0.4-0.2,1-0.3,1.8-0.3s1.3,0.1,1.8,0.3
			c0.4,0.2,0.8,0.5,1,0.9s0.4,0.8,0.4,1.3c0.1,0.5,0.1,1.1,0.1,1.9v1.4c0,0.8,0,1.5-0.1,2c-0.1,0.5-0.2,1-0.4,1.4
			c-0.2,0.4-0.5,0.7-1,0.9c-0.4,0.2-1,0.3-1.8,0.3s-1.3-0.1-1.8-0.3c-0.4-0.2-0.8-0.5-1-0.9c-0.2-0.4-0.4-0.9-0.4-1.4
			c-0.1-0.5-0.1-1.2-0.1-2V366.9z M170.7,369.3c0,0.3,0,0.5,0,0.8s0.1,0.5,0.2,0.7c0.1,0.2,0.2,0.4,0.4,0.5c0.2,0.1,0.4,0.2,0.7,0.2
			c0.3,0,0.6-0.1,0.8-0.2c0.2-0.1,0.3-0.3,0.4-0.6c0.1-0.2,0.1-0.5,0.2-0.7c0-0.2,0-0.5,0-0.9v-2.6c0-0.3,0-0.7,0-0.9
			s-0.1-0.5-0.2-0.8s-0.2-0.5-0.4-0.6c-0.2-0.2-0.4-0.3-0.8-0.3c-0.3,0-0.6,0.1-0.7,0.2c-0.2,0.1-0.3,0.3-0.4,0.6
			c-0.1,0.2-0.1,0.5-0.2,0.8s0,0.6,0,1V369.3z"/>
		<path d="M185,362.7h1.9v10.1h-2l-1.5-3.6c-0.2-0.6-0.5-1.2-0.7-1.8c-0.2-0.6-0.4-1.4-0.7-2.2h0c0,0.6,0.1,1.1,0.1,1.6
			c0,0.4,0.1,0.9,0.1,1.3c0,0.6,0.1,1.1,0.1,1.6c0,0.5,0,0.9,0,1.2v1.9h-1.9v-10.1h2l1.5,3.7c0.3,0.6,0.5,1.2,0.7,1.9
			c0.2,0.6,0.4,1.4,0.7,2.2h0c-0.1-1.1-0.1-2-0.2-2.9c-0.1-1.1-0.1-2.1-0.1-2.8V362.7z"/>
		<path d="M188.6,366.9c0-0.8,0.1-1.4,0.1-1.9c0.1-0.5,0.2-0.9,0.4-1.3s0.5-0.7,1-0.9c0.4-0.2,1-0.3,1.8-0.3s1.3,0.1,1.8,0.3
			c0.4,0.2,0.8,0.5,1,0.9s0.4,0.8,0.4,1.3c0.1,0.5,0.1,1.1,0.1,1.9v1.4c0,0.8,0,1.5-0.1,2c-0.1,0.5-0.2,1-0.4,1.4
			c-0.2,0.4-0.5,0.7-1,0.9c-0.4,0.2-1,0.3-1.8,0.3s-1.3-0.1-1.8-0.3c-0.4-0.2-0.8-0.5-1-0.9c-0.2-0.4-0.4-0.9-0.4-1.4
			c-0.1-0.5-0.1-1.2-0.1-2V366.9z M190.5,369.3c0,0.3,0,0.5,0,0.8s0.1,0.5,0.2,0.7c0.1,0.2,0.2,0.4,0.4,0.5c0.2,0.1,0.4,0.2,0.7,0.2
			c0.3,0,0.6-0.1,0.8-0.2c0.2-0.1,0.3-0.3,0.4-0.6c0.1-0.2,0.1-0.5,0.2-0.7c0-0.2,0-0.5,0-0.9v-2.6c0-0.3,0-0.7,0-0.9
			s-0.1-0.5-0.2-0.8s-0.2-0.5-0.4-0.6c-0.2-0.2-0.4-0.3-0.8-0.3c-0.3,0-0.6,0.1-0.7,0.2c-0.2,0.1-0.3,0.3-0.4,0.6
			c-0.1,0.2-0.1,0.5-0.2,0.8s0,0.6,0,1V369.3z"/>
		<path d="M198.8,372.8h-1.9v-10.1h3l1,4.7c0.1,0.7,0.3,1.5,0.4,2.3h0c0.1-0.6,0.1-1.1,0.1-1.4c0-0.3,0.1-0.6,0.2-0.9l1-4.7h3v10.1
			h-1.9v-3.2c0-2.2,0.1-4.2,0.2-6h0l-2,9.2h-1.1l-2-9.2h-0.1c0.1,1.8,0.2,3.8,0.2,6V372.8z"/>
		<path d="M207.3,372.8v-10.1h3c0.5,0,0.9,0,1.3,0.1c0.3,0.1,0.6,0.3,0.9,0.6c0.2,0.3,0.3,0.5,0.4,0.8c0.1,0.3,0.1,0.6,0.1,1
			c0,0.5-0.1,1-0.3,1.3c-0.2,0.4-0.5,0.6-1,0.8v0c0.5,0.1,0.9,0.3,1.1,0.7s0.4,0.9,0.4,1.6c0,0.5,0,0.9-0.1,1.2
			c-0.2,0.6-0.5,1.1-0.9,1.4c-0.4,0.3-0.9,0.4-1.6,0.4H207.3z M209.6,366.8c0.4,0,0.7,0,0.9-0.1c0.2,0,0.4-0.1,0.5-0.3
			c0.1-0.2,0.2-0.6,0.2-1.1c0-0.4-0.1-0.7-0.2-0.9s-0.4-0.3-0.8-0.3h-0.9v2.6H209.6z M209.6,371.3c0.4,0,0.6,0,0.7,0
			c0.1,0,0.3,0,0.4-0.1c0.2-0.1,0.4-0.3,0.5-0.5c0.1-0.3,0.1-0.5,0.1-0.9c0-0.6-0.1-1-0.3-1.2c-0.2-0.2-0.6-0.3-1.1-0.3h-0.7v3.1
			H209.6z"/>
		<path d="M216.7,368.4v4.4h-1.9v-10.1h3.6c0.4,0,0.8,0,1.2,0.1c0.3,0.1,0.6,0.2,0.9,0.4s0.5,0.4,0.6,0.8c0.1,0.3,0.2,0.7,0.2,1.1
			c0,0.3,0,0.6-0.1,0.9c0,0.3-0.1,0.5-0.2,0.7c-0.1,0.2-0.3,0.4-0.5,0.6s-0.5,0.2-0.8,0.3v0c0.5,0.1,0.9,0.3,1.1,0.6
			c0.2,0.3,0.3,0.7,0.3,1.3c0,0.4,0,0.8,0,1.1c0,0.3,0,0.6,0.1,0.9c0,0.3,0.1,0.6,0.1,0.8c0.1,0.2,0.1,0.3,0.2,0.4v0.2h-2.1
			c-0.1-0.2-0.1-0.5-0.2-0.9c0-0.4,0-0.8,0-1.3c0-0.2,0-0.4,0-0.4v-0.1c0-0.2,0-0.4,0-0.6c0-0.1,0-0.3-0.1-0.4
			c0-0.1-0.1-0.3-0.2-0.4s-0.2-0.2-0.4-0.2c-0.2-0.1-0.4-0.1-0.6-0.1s-0.6,0-1,0H216.7z M216.7,366.9h1.5c0.3,0,0.6-0.1,0.8-0.4
			c0.2-0.2,0.3-0.6,0.3-1.1c0-0.5-0.1-0.9-0.3-1.1c-0.2-0.2-0.5-0.3-0.9-0.3h-1.4V366.9z"/>
		<path d="M223.1,372.8v-10.1h5.3v1.5h-3.4v2.5h3.2v1.5h-3.2v3.1h3.4v1.5H223.1z"/>
		<path d="M166.4,388.2v-10.1h3.9c0.4,0,0.8,0.1,1.1,0.2c0.3,0.2,0.5,0.4,0.7,0.6c0.2,0.3,0.3,0.6,0.4,0.9c0.1,0.3,0.1,0.7,0.1,1.1
			c0,0.5-0.1,0.9-0.2,1.4c-0.1,0.4-0.4,0.8-0.7,1c-0.3,0.2-0.6,0.4-0.9,0.5c-0.4,0.1-0.7,0.1-1.2,0.1h-1.3v4.2H166.4z M168.3,382.5
			h1c0.4,0,0.8-0.1,1-0.4c0.2-0.2,0.4-0.6,0.4-1.2c0-0.5-0.1-0.9-0.3-1.1c-0.2-0.2-0.6-0.3-1.2-0.3h-0.9V382.5z"/>
		<path d="M175.8,383.8v4.4h-1.9v-10.1h3.6c0.4,0,0.8,0,1.2,0.1s0.6,0.2,0.9,0.4s0.5,0.4,0.6,0.8c0.1,0.3,0.2,0.7,0.2,1.1
			c0,0.3,0,0.6-0.1,0.9c0,0.3-0.1,0.5-0.2,0.7c-0.1,0.2-0.3,0.4-0.5,0.6s-0.5,0.2-0.8,0.3v0c0.5,0.1,0.9,0.3,1.1,0.6
			c0.2,0.3,0.3,0.7,0.3,1.3c0,0.4,0,0.8,0,1.1c0,0.3,0,0.6,0.1,0.9c0,0.3,0.1,0.6,0.1,0.8c0.1,0.2,0.1,0.3,0.2,0.4v0.2h-2.1
			c-0.1-0.2-0.1-0.5-0.2-0.9c0-0.4,0-0.8,0-1.3c0-0.2,0-0.4,0-0.4v-0.1c0-0.2,0-0.4,0-0.6c0-0.1,0-0.3-0.1-0.4
			c0-0.1-0.1-0.3-0.2-0.4s-0.2-0.2-0.4-0.2c-0.2-0.1-0.4-0.1-0.6-0.1c-0.2,0-0.6,0-1,0H175.8z M175.8,382.3h1.5
			c0.3,0,0.6-0.1,0.8-0.4c0.2-0.2,0.3-0.6,0.3-1.1c0-0.5-0.1-0.9-0.3-1.1c-0.2-0.2-0.5-0.3-0.9-0.3h-1.4V382.3z"/>
		<path d="M182,382.3c0-0.8,0.1-1.4,0.1-1.9c0.1-0.5,0.2-0.9,0.4-1.3s0.5-0.7,1-0.9c0.4-0.2,1-0.3,1.8-0.3s1.3,0.1,1.8,0.3
			c0.4,0.2,0.8,0.5,1,0.9s0.4,0.8,0.4,1.3c0.1,0.5,0.1,1.1,0.1,1.9v1.4c0,0.8,0,1.5-0.1,2c-0.1,0.5-0.2,1-0.4,1.4
			c-0.2,0.4-0.5,0.7-1,0.9c-0.4,0.2-1,0.3-1.8,0.3s-1.3-0.1-1.8-0.3c-0.4-0.2-0.8-0.5-1-0.9c-0.2-0.4-0.4-0.9-0.4-1.4
			c-0.1-0.5-0.1-1.2-0.1-2V382.3z M184,384.7c0,0.3,0,0.5,0,0.8s0.1,0.5,0.2,0.7c0.1,0.2,0.2,0.4,0.4,0.5c0.2,0.1,0.4,0.2,0.7,0.2
			c0.3,0,0.6-0.1,0.8-0.2c0.2-0.1,0.3-0.3,0.4-0.6c0.1-0.2,0.1-0.5,0.2-0.7c0-0.2,0-0.5,0-0.9V382c0-0.3,0-0.7,0-0.9
			s-0.1-0.5-0.2-0.8s-0.2-0.5-0.4-0.6c-0.2-0.2-0.4-0.3-0.8-0.3c-0.3,0-0.6,0.1-0.7,0.2c-0.2,0.1-0.3,0.3-0.4,0.6
			c-0.1,0.2-0.1,0.5-0.2,0.8s0,0.6,0,1V384.7z"/>
		<path d="M192.2,388.2h-1.9v-10.1h3l1,4.7c0.1,0.7,0.3,1.5,0.4,2.3h0c0.1-0.6,0.1-1.1,0.1-1.4c0-0.3,0.1-0.6,0.2-0.9l1-4.7h3v10.1
			h-1.9V385c0-2.2,0.1-4.2,0.2-6h0l-2,9.2h-1.1l-2-9.2h-0.1c0.1,1.8,0.2,3.8,0.2,6V388.2z"/>
		<path d="M200.7,382.3c0-0.8,0.1-1.4,0.1-1.9c0.1-0.5,0.2-0.9,0.4-1.3s0.5-0.7,1-0.9c0.4-0.2,1-0.3,1.8-0.3s1.3,0.1,1.8,0.3
			c0.4,0.2,0.8,0.5,1,0.9s0.4,0.8,0.4,1.3c0.1,0.5,0.1,1.1,0.1,1.9v1.4c0,0.8,0,1.5-0.1,2c-0.1,0.5-0.2,1-0.4,1.4s-0.5,0.7-1,0.9
			c-0.4,0.2-1,0.3-1.8,0.3s-1.3-0.1-1.8-0.3c-0.4-0.2-0.8-0.5-1-0.9s-0.4-0.9-0.4-1.4c-0.1-0.5-0.1-1.2-0.1-2V382.3z M202.7,384.7
			c0,0.3,0,0.5,0,0.8s0.1,0.5,0.2,0.7c0.1,0.2,0.2,0.4,0.4,0.5c0.2,0.1,0.4,0.2,0.7,0.2c0.3,0,0.6-0.1,0.8-0.2
			c0.2-0.1,0.3-0.3,0.4-0.6c0.1-0.2,0.1-0.5,0.2-0.7c0-0.2,0-0.5,0-0.9V382c0-0.3,0-0.7,0-0.9s-0.1-0.5-0.2-0.8
			c-0.1-0.3-0.2-0.5-0.4-0.6s-0.4-0.3-0.8-0.3c-0.3,0-0.5,0.1-0.7,0.2c-0.2,0.1-0.3,0.3-0.4,0.6s-0.1,0.5-0.2,0.8s0,0.6,0,1V384.7z"
			/>
		<path d="M208.4,378.1h6.3v1.5h-2.2v8.6h-1.9v-8.6h-2.2V378.1z"/>
		<path d="M215.7,382.3c0-0.8,0.1-1.4,0.1-1.9c0.1-0.5,0.2-0.9,0.4-1.3s0.5-0.7,1-0.9c0.4-0.2,1-0.3,1.8-0.3s1.3,0.1,1.8,0.3
			c0.4,0.2,0.8,0.5,1,0.9s0.4,0.8,0.4,1.3c0.1,0.5,0.1,1.1,0.1,1.9v1.4c0,0.8,0,1.5-0.1,2c-0.1,0.5-0.2,1-0.4,1.4s-0.5,0.7-1,0.9
			c-0.4,0.2-1,0.3-1.8,0.3s-1.3-0.1-1.8-0.3c-0.4-0.2-0.8-0.5-1-0.9s-0.4-0.9-0.4-1.4c-0.1-0.5-0.1-1.2-0.1-2V382.3z M217.7,384.7
			c0,0.3,0,0.5,0,0.8s0.1,0.5,0.2,0.7c0.1,0.2,0.2,0.4,0.4,0.5c0.2,0.1,0.4,0.2,0.7,0.2c0.3,0,0.6-0.1,0.8-0.2
			c0.2-0.1,0.3-0.3,0.4-0.6c0.1-0.2,0.1-0.5,0.2-0.7c0-0.2,0-0.5,0-0.9V382c0-0.3,0-0.7,0-0.9s-0.1-0.5-0.2-0.8
			c-0.1-0.3-0.2-0.5-0.4-0.6s-0.4-0.3-0.8-0.3c-0.3,0-0.5,0.1-0.7,0.2c-0.2,0.1-0.3,0.3-0.4,0.6s-0.1,0.5-0.2,0.8s0,0.6,0,1V384.7z"
			/>
		<path d="M225.9,383.8v4.4H224v-10.1h3.6c0.4,0,0.8,0,1.2,0.1c0.3,0.1,0.6,0.2,0.9,0.4s0.5,0.4,0.6,0.8c0.1,0.3,0.2,0.7,0.2,1.1
			c0,0.3,0,0.6-0.1,0.9c0,0.3-0.1,0.5-0.2,0.7c-0.1,0.2-0.3,0.4-0.5,0.6s-0.5,0.2-0.8,0.3v0c0.5,0.1,0.9,0.3,1.1,0.6
			c0.2,0.3,0.3,0.7,0.3,1.3c0,0.4,0,0.8,0,1.1c0,0.3,0,0.6,0.1,0.9c0,0.3,0.1,0.6,0.1,0.8c0.1,0.2,0.1,0.3,0.2,0.4v0.2h-2.1
			c-0.1-0.2-0.1-0.5-0.2-0.9c0-0.4,0-0.8,0-1.3c0-0.2,0-0.4,0-0.4v-0.1c0-0.2,0-0.4,0-0.6c0-0.1,0-0.3-0.1-0.4
			c0-0.1-0.1-0.3-0.2-0.4s-0.2-0.2-0.4-0.2c-0.2-0.1-0.4-0.1-0.6-0.1s-0.6,0-1,0H225.9z M225.9,382.3h1.5c0.3,0,0.6-0.1,0.8-0.4
			c0.2-0.2,0.3-0.6,0.3-1.1c0-0.5-0.1-0.9-0.3-1.1c-0.2-0.2-0.5-0.3-0.9-0.3h-1.4V382.3z"/>
	</g>
	<g>
		<g>
			<path class="st2" d="M179.6,33.9L63.7,234.5c-7.9,13.7,2,30.9,17.8,30.9h231.7c15.8,0,25.7-17.2,17.8-30.9L215.2,33.9
				C207.3,20.2,187.5,20.2,179.6,33.9z"/>
			<path class="st3" d="M313.2,275.6H81.6c-11.1,0-21.1-5.8-26.7-15.4c-5.6-9.6-5.6-21.1,0-30.8L170.7,28.8
				c5.6-9.6,15.5-15.4,26.7-15.4c11.1,0,21.1,5.8,26.7,15.4l115.8,200.6c5.6,9.6,5.6,21.1,0,30.8
				C334.3,269.8,324.4,275.6,313.2,275.6z M188.4,39L72.6,239.6c-2.7,4.7-0.9,8.8,0,10.4c0.9,1.6,3.6,5.2,9,5.2h231.7
				c5.4,0,8.1-3.6,9-5.2c0.9-1.6,2.7-5.7,0-10.4L206.4,39c-2.7-4.7-7.2-5.2-9-5.2S191.1,34.3,188.4,39L188.4,39z"/>
		</g>
		<path class="st3" d="M183.6,210.7c0-3.6,1.2-6.5,3.7-8.9c3.4-3.2,6.8-4.8,10.2-4.8c3.7,0,7,1.3,9.6,4c2.7,2.7,4,5.9,4,9.7
			c0,3.9-1.3,7.1-3.8,9.7s-5.7,3.9-9.6,3.9c-4.1,0-7.5-1.4-10.2-4.1C185,217.6,183.6,214.3,183.6,210.7 M200.7,185.8
			c-1.3,0.1-3.8,0.2-7.2,0.3l-5.4-35.4c-1.9-13.8-3.2-23.9-3.8-30.2c-0.3-3.9-0.5-6.9-0.5-8.8c0-0.4,0.1-1.6,0.4-3.4
			c0.3-3.8,1.2-6.6,2.9-8.5c1.7-1.8,4.1-2.9,7.1-3.2c1.7-0.4,2.8-0.6,3.3-0.6c3.5,0,6.4,1.3,8.8,3.9c2.4,2.6,3.6,6.2,3.6,10.9
			c0,4.4-0.5,11.8-1.5,22.1l-4.1,30.8C203.2,172.5,202,179.9,200.7,185.8"/>
	</g>
	<g>
		<path d="M39.4,291.3h3.7h11.1c4,0,7,0.9,9.1,2.8c2.1,1.9,3.1,4.6,3.1,8.2c0,3.8-1,6.7-3.1,8.6c-2.1,2-5.1,3-9.1,3
			c-2.8,0-5.3,0-7.4,0v12.5h-3.7h-3.7V291.3z M46.8,307.9h6.1c2.1,0,3.6-0.5,4.6-1.4c1-0.9,1.5-2.3,1.5-4.1c0-1.7-0.5-2.9-1.5-3.8
			c-1-0.8-2.6-1.3-4.6-1.3h-6.1V307.9z"/>
		<path d="M72.1,291.3h3.7h14.1c3.3,0,6,0.9,8.1,2.7c2,1.8,3.1,4.2,3.1,7.1c0,3.4-1.1,5.9-3.4,7.4c-0.6,0.4-1.3,0.8-2.1,1.1
			c0.4,0.2,0.8,0.4,1.2,0.6c2,1.2,3.1,3.2,3.1,6l0.2,5.8c0,1.1,0.2,2,0.4,2.4c0.2,0.5,0.6,0.9,1.2,1.1v0.9h-8.1
			c-0.2-0.4-0.4-1.2-0.5-2.4c-0.1-1.2-0.2-2.5-0.2-3.9l0-3.3c0-1.6-0.5-2.7-1.4-3.4c-0.9-0.7-2.4-1-4.5-1h-7.3v13.9h-3.7h-3.7V291.3
			z M79.5,306.7H88c1.9,0,3.3-0.4,4.3-1.2s1.4-1.9,1.4-3.5c0-1.5-0.5-2.7-1.4-3.5c-0.9-0.8-2.3-1.2-4.1-1.2h-8.8V306.7z"/>
		<path d="M107.5,326.5v-35.2h25.9v3.1v3.1h-18.5v7.5h17.2v3v3h-17.2v9.2h19.4v3.1v3.1H107.5z"/>
		<path d="M170,314.2c-0.4,4.1-2,7.3-4.8,9.7c-2.7,2.4-6.2,3.6-10.4,3.6c-4.9,0-8.9-1.7-11.8-5s-4.4-7.8-4.4-13.4
			c0-5.7,1.5-10.3,4.4-13.7c2.9-3.4,6.8-5.1,11.8-5.1c4.2,0,7.6,1.1,10.4,3.4c2.7,2.3,4.4,5.3,4.8,9.2h-7.3
			c-0.2-1.9-1.1-3.4-2.5-4.5c-1.4-1.1-3.2-1.7-5.3-1.7c-2.7,0-4.9,1.1-6.4,3.3c-1.5,2.2-2.3,5.2-2.3,9.1c0,3.8,0.8,6.7,2.3,8.8
			c1.5,2.1,3.7,3.2,6.4,3.2c2.2,0,3.9-0.6,5.3-1.9c1.4-1.2,2.2-2.9,2.5-5H170z"/>
		<path d="M185.3,291.3h4.3h4.3l12.4,35.2h-3.9h-3.9l-2.4-7.2h-13.3l-2.3,7.2h-3.8h-3.8L185.3,291.3z M184.8,313.3h9.3l-4.7-14.1h0
			L184.8,313.3z"/>
		<path d="M239.1,313.2c0,5-1.1,8.6-3.3,10.9c-2.2,2.2-5.8,3.3-10.9,3.3c-4.8,0-8.4-1.2-10.7-3.5c-2.3-2.3-3.5-5.9-3.5-10.7v-21.9
			h3.7h3.7v22.2c0,2.5,0.6,4.4,1.7,5.7c1.1,1.3,2.9,1.9,5.2,1.9c2.5,0,4.2-0.6,5.3-1.7s1.6-3.1,1.6-5.8v-22.2h3.7h3.7V313.2z"/>
		<path d="M276.1,314.2c-0.4,4.1-2,7.3-4.8,9.7s-6.2,3.6-10.4,3.6c-4.9,0-8.9-1.7-11.8-5c-2.9-3.3-4.4-7.8-4.4-13.4
			c0-5.7,1.5-10.3,4.4-13.7c2.9-3.4,6.8-5.1,11.8-5.1c4.2,0,7.6,1.1,10.4,3.4s4.4,5.3,4.8,9.2h-7.3c-0.2-1.9-1.1-3.4-2.5-4.5
			c-1.4-1.1-3.2-1.7-5.3-1.7c-2.7,0-4.9,1.1-6.4,3.3c-1.5,2.2-2.3,5.2-2.3,9.1c0,3.8,0.8,6.7,2.3,8.8c1.5,2.1,3.7,3.2,6.4,3.2
			c2.2,0,3.9-0.6,5.3-1.9c1.4-1.2,2.2-2.9,2.5-5H276.1z"/>
		<path d="M281.1,291.3h3.7h3.7v35.2h-3.7h-3.7V291.3z"/>
		<path d="M298.3,322.5c-3-3.3-4.6-7.8-4.6-13.4c0-5.7,1.5-10.3,4.6-13.7c3-3.4,7.2-5.1,12.3-5.1c5.2,0,9.3,1.7,12.4,5.1
			c3,3.4,4.6,7.9,4.6,13.7c0,5.6-1.5,10.1-4.6,13.4c-3,3.3-7.2,5-12.4,5C305.5,327.4,301.4,325.8,298.3,322.5z M317.7,318
			c1.7-2.1,2.5-5.1,2.5-8.9c0-3.9-0.8-6.9-2.5-9.1c-1.7-2.2-4-3.3-7-3.3c-3,0-5.3,1.1-7,3.3s-2.5,5.2-2.5,9.1c0,3.8,0.8,6.8,2.5,8.9
			c1.7,2.1,4,3.2,7,3.2C313.7,321.2,316,320.1,317.7,318z M307.7,287.7l4.6-7.1h7.5l-7.2,7.1H307.7z"/>
		<path d="M340,326.5h-3.4h-3.4v-35.2h3.9h3.9l14.1,24.7v-24.7h3.4h3.4v35.2h-3.7h-3.7L340,301.1V326.5z"/>
	</g>
</g>
</svg>
