<?xml version="1.0" encoding="utf-8"?>
<!-- Generator: Adobe Illustrator 22.0.0, SVG Export Plug-In . SVG Version: 6.00 Build 0)  -->
<svg version="1.1" id="Capa_1" xmlns="http://www.w3.org/2000/svg" xmlns:xlink="http://www.w3.org/1999/xlink" x="0px" y="0px"
	 viewBox="0 0 396.9 396.9" style="enable-background:new 0 0 396.9 396.9;" xml:space="preserve">
<style type="text/css">
	.st0{fill:#FFFFFF;}
	.st1{fill:#A6A19E;}
	.st2{fill:#FFCC13;stroke:#000000;stroke-width:19;stroke-miterlimit:10;}
	.st3{fill:#FCFCFB;stroke:#000000;stroke-width:7.7807;stroke-miterlimit:10;}
	.st4{fill-rule:evenodd;clip-rule:evenodd;fill:#010103;stroke:#0D0B0B;stroke-width:0.3713;stroke-miterlimit:22.9256;}
</style>
<g>
	<rect class="st0" width="396.9" height="396.9"/>
	<rect y="340.2" class="st1" width="396.9" height="56.7"/>
	<g>
		<path d="M184,357.4v-10.1h1.9v8.6h3.5v1.5H184z"/>
		<path d="M190.7,351.5c0-0.8,0.1-1.4,0.1-1.9c0.1-0.5,0.2-0.9,0.4-1.3s0.5-0.7,1-0.9c0.4-0.2,1-0.3,1.8-0.3s1.3,0.1,1.8,0.3
			c0.4,0.2,0.8,0.5,1,0.9s0.4,0.8,0.4,1.3c0.1,0.5,0.1,1.1,0.1,1.9v1.4c0,0.8,0,1.5-0.1,2c-0.1,0.5-0.2,1-0.4,1.4
			c-0.2,0.4-0.5,0.7-1,0.9c-0.4,0.2-1,0.3-1.8,0.3c-0.7,0-1.3-0.1-1.8-0.3c-0.4-0.2-0.8-0.5-1-0.9s-0.4-0.9-0.4-1.4
			c-0.1-0.5-0.1-1.2-0.1-2V351.5z M192.6,353.9c0,0.3,0,0.5,0,0.8c0,0.2,0.1,0.5,0.2,0.7c0.1,0.2,0.2,0.4,0.4,0.5
			c0.2,0.1,0.4,0.2,0.7,0.2c0.3,0,0.6-0.1,0.8-0.2c0.2-0.1,0.3-0.3,0.4-0.6c0.1-0.2,0.1-0.5,0.2-0.7c0-0.2,0-0.5,0-0.9v-2.6
			c0-0.3,0-0.7,0-0.9s-0.1-0.5-0.2-0.8c-0.1-0.3-0.2-0.5-0.4-0.6s-0.4-0.3-0.8-0.3c-0.3,0-0.5,0.1-0.7,0.2c-0.2,0.1-0.3,0.3-0.4,0.6
			c-0.1,0.2-0.1,0.5-0.2,0.8c0,0.3,0,0.6,0,1V353.9z"/>
		<path d="M198.8,351.5c0-0.8,0.1-1.4,0.1-1.9c0.1-0.5,0.2-0.9,0.4-1.3s0.5-0.7,1-0.9c0.4-0.2,1-0.3,1.8-0.3c0.9,0,1.6,0.2,2.1,0.5
			s0.9,0.9,1.1,1.7c0.1,0.2,0.1,0.5,0.1,1c0,0.1,0,0.2,0,0.2h-1.9c0-0.3,0-0.6-0.1-0.8c0-0.2-0.1-0.4-0.2-0.6s-0.2-0.3-0.4-0.4
			c-0.2-0.1-0.4-0.2-0.7-0.2c-0.3,0-0.5,0.1-0.7,0.2c-0.2,0.1-0.3,0.3-0.4,0.6c-0.1,0.2-0.1,0.5-0.2,0.8c0,0.3,0,0.6,0,1v2.8
			c0,0.3,0,0.5,0,0.8c0,0.2,0.1,0.5,0.2,0.7c0.1,0.2,0.2,0.4,0.4,0.5c0.2,0.1,0.4,0.2,0.7,0.2c0.5,0,0.8-0.2,1.1-0.7
			c0.2-0.5,0.3-1.1,0.3-2h-1.3V352h3.1v5.4h-1.4v-1.2h0c-0.2,0.5-0.4,0.8-0.7,1c-0.3,0.2-0.7,0.3-1.1,0.4c-0.7,0-1.3-0.1-1.8-0.3
			c-0.4-0.2-0.8-0.5-1-0.9s-0.4-0.9-0.4-1.4c-0.1-0.5-0.1-1.2-0.1-2V351.5z"/>
		<path d="M207.2,351.5c0-0.8,0.1-1.4,0.1-1.9c0.1-0.5,0.2-0.9,0.4-1.3s0.5-0.7,1-0.9c0.4-0.2,1-0.3,1.8-0.3s1.3,0.1,1.8,0.3
			c0.4,0.2,0.8,0.5,1,0.9s0.4,0.8,0.4,1.3c0.1,0.5,0.1,1.1,0.1,1.9v1.4c0,0.8,0,1.5-0.1,2c-0.1,0.5-0.2,1-0.4,1.4s-0.5,0.7-1,0.9
			c-0.4,0.2-1,0.3-1.8,0.3s-1.3-0.1-1.8-0.3c-0.4-0.2-0.8-0.5-1-0.9s-0.4-0.9-0.4-1.4c-0.1-0.5-0.1-1.2-0.1-2V351.5z M209.1,353.9
			c0,0.3,0,0.5,0,0.8s0.1,0.5,0.2,0.7c0.1,0.2,0.2,0.4,0.4,0.5c0.2,0.1,0.4,0.2,0.7,0.2c0.3,0,0.6-0.1,0.8-0.2
			c0.2-0.1,0.3-0.3,0.4-0.6c0.1-0.2,0.1-0.5,0.2-0.7c0-0.2,0-0.5,0-0.9v-2.6c0-0.3,0-0.7,0-0.9s-0.1-0.5-0.2-0.8
			c-0.1-0.3-0.2-0.5-0.4-0.6s-0.4-0.3-0.8-0.3c-0.3,0-0.5,0.1-0.7,0.2c-0.2,0.1-0.3,0.3-0.4,0.6s-0.1,0.5-0.2,0.8s0,0.6,0,1V353.9z"
			/>
		<path d="M169.2,366.9c0-0.8,0.1-1.4,0.1-1.9c0.1-0.5,0.2-0.9,0.4-1.3s0.5-0.7,1-0.9c0.4-0.2,1-0.3,1.8-0.3s1.3,0.1,1.8,0.3
			c0.4,0.2,0.8,0.5,1,0.9s0.4,0.8,0.4,1.3c0.1,0.5,0.1,1.1,0.1,1.9v1.4c0,0.8,0,1.5-0.1,2c-0.1,0.5-0.2,1-0.4,1.4
			c-0.2,0.4-0.5,0.7-1,0.9c-0.4,0.2-1,0.3-1.8,0.3c-0.7,0-1.3-0.1-1.8-0.3c-0.4-0.2-0.8-0.5-1-0.9s-0.4-0.9-0.4-1.4
			c-0.1-0.5-0.1-1.2-0.1-2V366.9z M171.1,369.3c0,0.3,0,0.5,0,0.8c0,0.2,0.1,0.5,0.2,0.7c0.1,0.2,0.2,0.4,0.4,0.5
			c0.2,0.1,0.4,0.2,0.7,0.2c0.3,0,0.6-0.1,0.8-0.2c0.2-0.1,0.3-0.3,0.4-0.6c0.1-0.2,0.1-0.5,0.2-0.7c0-0.2,0-0.5,0-0.9v-2.6
			c0-0.3,0-0.7,0-0.9s-0.1-0.5-0.2-0.8c-0.1-0.3-0.2-0.5-0.4-0.6s-0.4-0.3-0.8-0.3c-0.3,0-0.5,0.1-0.7,0.2c-0.2,0.1-0.3,0.3-0.4,0.6
			c-0.1,0.2-0.1,0.5-0.2,0.8c0,0.3,0,0.6,0,1V369.3z"/>
		<path d="M185.4,362.7h1.9v10.1h-2l-1.5-3.6c-0.2-0.6-0.5-1.2-0.7-1.8c-0.2-0.6-0.4-1.4-0.7-2.2h0c0,0.6,0.1,1.1,0.1,1.6
			s0.1,0.9,0.1,1.3c0,0.6,0.1,1.1,0.1,1.6c0,0.5,0,0.9,0,1.2v1.9h-1.9v-10.1h2l1.5,3.7c0.3,0.6,0.5,1.2,0.7,1.9
			c0.2,0.6,0.4,1.4,0.7,2.2h0c-0.1-1.1-0.1-2-0.2-2.9c-0.1-1.1-0.1-2.1-0.1-2.8V362.7z"/>
		<path d="M189,366.9c0-0.8,0.1-1.4,0.1-1.9c0.1-0.5,0.2-0.9,0.4-1.3s0.5-0.7,1-0.9c0.4-0.2,1-0.3,1.8-0.3s1.3,0.1,1.8,0.3
			c0.4,0.2,0.8,0.5,1,0.9s0.4,0.8,0.4,1.3c0.1,0.5,0.1,1.1,0.1,1.9v1.4c0,0.8,0,1.5-0.1,2c-0.1,0.5-0.2,1-0.4,1.4
			c-0.2,0.4-0.5,0.7-1,0.9c-0.4,0.2-1,0.3-1.8,0.3c-0.7,0-1.3-0.1-1.8-0.3c-0.4-0.2-0.8-0.5-1-0.9s-0.4-0.9-0.4-1.4
			c-0.1-0.5-0.1-1.2-0.1-2V366.9z M190.9,369.3c0,0.3,0,0.5,0,0.8c0,0.2,0.1,0.5,0.2,0.7c0.1,0.2,0.2,0.4,0.4,0.5
			c0.2,0.1,0.4,0.2,0.7,0.2c0.3,0,0.6-0.1,0.8-0.2c0.2-0.1,0.3-0.3,0.4-0.6c0.1-0.2,0.1-0.5,0.2-0.7c0-0.2,0-0.5,0-0.9v-2.6
			c0-0.3,0-0.7,0-0.9s-0.1-0.5-0.2-0.8c-0.1-0.3-0.2-0.5-0.4-0.6s-0.4-0.3-0.8-0.3c-0.3,0-0.5,0.1-0.7,0.2c-0.2,0.1-0.3,0.3-0.4,0.6
			c-0.1,0.2-0.1,0.5-0.2,0.8c0,0.3,0,0.6,0,1V369.3z"/>
		<path d="M199.2,372.8h-1.9v-10.1h3l1,4.7c0.1,0.7,0.3,1.5,0.4,2.3h0c0.1-0.6,0.1-1.1,0.1-1.4c0-0.3,0.1-0.6,0.2-0.9l1-4.7h3v10.1
			h-1.9v-3.2c0-2.2,0.1-4.2,0.2-6h0l-2,9.2h-1.1l-2-9.2H199c0.1,1.8,0.2,3.8,0.2,6V372.8z"/>
		<path d="M207.8,372.8v-10.1h3c0.5,0,0.9,0,1.3,0.1c0.3,0.1,0.6,0.3,0.9,0.6c0.2,0.3,0.3,0.5,0.4,0.8c0.1,0.3,0.1,0.6,0.1,1
			c0,0.5-0.1,1-0.3,1.3c-0.2,0.4-0.5,0.6-1,0.8v0c0.5,0.1,0.9,0.3,1.1,0.7s0.4,0.9,0.4,1.6c0,0.5,0,0.9-0.1,1.2
			c-0.2,0.6-0.5,1.1-0.9,1.4c-0.4,0.3-0.9,0.4-1.6,0.4H207.8z M210,366.8c0.4,0,0.7,0,0.9-0.1c0.2,0,0.4-0.1,0.5-0.3
			c0.1-0.2,0.2-0.6,0.2-1.1c0-0.4-0.1-0.7-0.2-0.9s-0.4-0.3-0.8-0.3h-0.9v2.6H210z M210.1,371.3c0.4,0,0.6,0,0.7,0
			c0.1,0,0.3,0,0.4-0.1c0.2-0.1,0.4-0.3,0.5-0.5c0.1-0.3,0.1-0.5,0.1-0.9c0-0.6-0.1-1-0.3-1.2c-0.2-0.2-0.6-0.3-1.1-0.3h-0.7v3.1
			H210.1z"/>
		<path d="M217.2,368.4v4.4h-1.9v-10.1h3.6c0.4,0,0.8,0,1.2,0.1c0.3,0.1,0.6,0.2,0.9,0.4s0.5,0.4,0.6,0.8c0.1,0.3,0.2,0.7,0.2,1.1
			c0,0.3,0,0.6-0.1,0.9c0,0.3-0.1,0.5-0.2,0.7c-0.1,0.2-0.3,0.4-0.5,0.6s-0.5,0.2-0.8,0.3v0c0.5,0.1,0.9,0.3,1.1,0.6
			c0.2,0.3,0.3,0.7,0.3,1.3c0,0.4,0,0.8,0,1.1c0,0.3,0,0.6,0.1,0.9c0,0.3,0.1,0.6,0.1,0.8c0.1,0.2,0.1,0.3,0.2,0.4v0.2h-2.1
			c-0.1-0.2-0.1-0.5-0.2-0.9c0-0.4,0-0.8,0-1.3c0-0.2,0-0.4,0-0.4v-0.1c0-0.2,0-0.4,0-0.6c0-0.1,0-0.3-0.1-0.4
			c0-0.1-0.1-0.3-0.2-0.4s-0.2-0.2-0.4-0.2c-0.2-0.1-0.4-0.1-0.6-0.1s-0.6,0-1,0H217.2z M217.2,366.9h1.5c0.3,0,0.6-0.1,0.8-0.4
			c0.2-0.2,0.3-0.6,0.3-1.1c0-0.5-0.1-0.9-0.3-1.1c-0.2-0.2-0.5-0.3-0.9-0.3h-1.4V366.9z"/>
		<path d="M223.5,372.8v-10.1h5.3v1.5h-3.4v2.5h3.2v1.5h-3.2v3.1h3.4v1.5H223.5z"/>
		<path d="M166.8,388.2v-10.1h3.9c0.4,0,0.8,0.1,1.1,0.2c0.3,0.2,0.5,0.4,0.7,0.6c0.2,0.3,0.3,0.6,0.4,0.9c0.1,0.3,0.1,0.7,0.1,1.1
			c0,0.5-0.1,0.9-0.2,1.4s-0.4,0.8-0.7,1c-0.3,0.2-0.6,0.4-0.9,0.5c-0.4,0.1-0.7,0.1-1.2,0.1h-1.3v4.2H166.8z M168.7,382.5h1
			c0.4,0,0.8-0.1,1-0.4s0.4-0.6,0.4-1.2c0-0.5-0.1-0.9-0.3-1.1c-0.2-0.2-0.6-0.3-1.2-0.3h-0.9V382.5z"/>
		<path d="M176.2,383.8v4.4h-1.9v-10.1h3.6c0.4,0,0.8,0,1.2,0.1s0.6,0.2,0.9,0.4s0.5,0.4,0.6,0.8c0.1,0.3,0.2,0.7,0.2,1.1
			c0,0.3,0,0.6-0.1,0.9c0,0.3-0.1,0.5-0.2,0.7c-0.1,0.2-0.3,0.4-0.5,0.6s-0.5,0.2-0.8,0.3v0c0.5,0.1,0.9,0.3,1.1,0.6
			c0.2,0.3,0.3,0.7,0.3,1.3c0,0.4,0,0.8,0,1.1c0,0.3,0,0.6,0.1,0.9c0,0.3,0.1,0.6,0.1,0.8s0.1,0.3,0.2,0.4v0.2H179
			c-0.1-0.2-0.1-0.5-0.2-0.9c0-0.4,0-0.8,0-1.3c0-0.2,0-0.4,0-0.4v-0.1c0-0.2,0-0.4,0-0.6c0-0.1,0-0.3-0.1-0.4
			c0-0.1-0.1-0.3-0.2-0.4s-0.2-0.2-0.4-0.2c-0.2-0.1-0.4-0.1-0.6-0.1s-0.6,0-1,0H176.2z M176.2,382.3h1.5c0.3,0,0.6-0.1,0.8-0.4
			c0.2-0.2,0.3-0.6,0.3-1.1c0-0.5-0.1-0.9-0.3-1.1c-0.2-0.2-0.5-0.3-0.9-0.3h-1.4V382.3z"/>
		<path d="M182.5,382.3c0-0.8,0.1-1.4,0.1-1.9c0.1-0.5,0.2-0.9,0.4-1.3s0.5-0.7,1-0.9c0.4-0.2,1-0.3,1.8-0.3s1.3,0.1,1.8,0.3
			c0.4,0.2,0.8,0.5,1,0.9s0.4,0.8,0.4,1.3c0.1,0.5,0.1,1.1,0.1,1.9v1.4c0,0.8,0,1.5-0.1,2c-0.1,0.5-0.2,1-0.4,1.4s-0.5,0.7-1,0.9
			c-0.4,0.2-1,0.3-1.8,0.3c-0.7,0-1.3-0.1-1.8-0.3c-0.4-0.2-0.8-0.5-1-0.9c-0.2-0.4-0.4-0.9-0.4-1.4c-0.1-0.5-0.1-1.2-0.1-2V382.3z
			 M184.4,384.7c0,0.3,0,0.5,0,0.8c0,0.2,0.1,0.5,0.2,0.7c0.1,0.2,0.2,0.4,0.4,0.5c0.2,0.1,0.4,0.2,0.7,0.2c0.3,0,0.6-0.1,0.8-0.2
			c0.2-0.1,0.3-0.3,0.4-0.6c0.1-0.2,0.1-0.5,0.2-0.7c0-0.2,0-0.5,0-0.9V382c0-0.3,0-0.7,0-0.9s-0.1-0.5-0.2-0.8
			c-0.1-0.3-0.2-0.5-0.4-0.6c-0.2-0.2-0.4-0.3-0.8-0.3c-0.3,0-0.6,0.1-0.7,0.2c-0.2,0.1-0.3,0.3-0.4,0.6s-0.1,0.5-0.2,0.8
			c0,0.3,0,0.6,0,1V384.7z"/>
		<path d="M192.7,388.2h-1.9v-10.1h3l1,4.7c0.1,0.7,0.3,1.5,0.4,2.3h0c0.1-0.6,0.1-1.1,0.1-1.4c0-0.3,0.1-0.6,0.2-0.9l1-4.7h3v10.1
			h-1.9V385c0-2.2,0.1-4.2,0.2-6h0l-2,9.2h-1.1l-2-9.2h-0.1c0.1,1.8,0.2,3.8,0.2,6V388.2z"/>
		<path d="M201.2,382.3c0-0.8,0.1-1.4,0.1-1.9c0.1-0.5,0.2-0.9,0.4-1.3s0.5-0.7,1-0.9c0.4-0.2,1-0.3,1.8-0.3s1.3,0.1,1.8,0.3
			c0.4,0.2,0.8,0.5,1,0.9s0.4,0.8,0.4,1.3c0.1,0.5,0.1,1.1,0.1,1.9v1.4c0,0.8,0,1.5-0.1,2c-0.1,0.5-0.2,1-0.4,1.4s-0.5,0.7-1,0.9
			c-0.4,0.2-1,0.3-1.8,0.3s-1.3-0.1-1.8-0.3c-0.4-0.2-0.8-0.5-1-0.9s-0.4-0.9-0.4-1.4c-0.1-0.5-0.1-1.2-0.1-2V382.3z M203.1,384.7
			c0,0.3,0,0.5,0,0.8s0.1,0.5,0.2,0.7c0.1,0.2,0.2,0.4,0.4,0.5c0.2,0.1,0.4,0.2,0.7,0.2c0.3,0,0.6-0.1,0.8-0.2
			c0.2-0.1,0.3-0.3,0.4-0.6c0.1-0.2,0.1-0.5,0.2-0.7c0-0.2,0-0.5,0-0.9V382c0-0.3,0-0.7,0-0.9s-0.1-0.5-0.2-0.8
			c-0.1-0.3-0.2-0.5-0.4-0.6s-0.4-0.3-0.8-0.3c-0.3,0-0.5,0.1-0.7,0.2c-0.2,0.1-0.3,0.3-0.4,0.6s-0.1,0.5-0.2,0.8s0,0.6,0,1V384.7z"
			/>
		<path d="M208.8,378.1h6.3v1.5h-2.2v8.6H211v-8.6h-2.2V378.1z"/>
		<path d="M216.1,382.3c0-0.8,0.1-1.4,0.1-1.9c0.1-0.5,0.2-0.9,0.4-1.3s0.5-0.7,1-0.9c0.4-0.2,1-0.3,1.8-0.3s1.3,0.1,1.8,0.3
			c0.4,0.2,0.8,0.5,1,0.9s0.4,0.8,0.4,1.3c0.1,0.5,0.1,1.1,0.1,1.9v1.4c0,0.8,0,1.5-0.1,2c-0.1,0.5-0.2,1-0.4,1.4s-0.5,0.7-1,0.9
			c-0.4,0.2-1,0.3-1.8,0.3s-1.3-0.1-1.8-0.3c-0.4-0.2-0.8-0.5-1-0.9s-0.4-0.9-0.4-1.4c-0.1-0.5-0.1-1.2-0.1-2V382.3z M218.1,384.7
			c0,0.3,0,0.5,0,0.8s0.1,0.5,0.2,0.7c0.1,0.2,0.2,0.4,0.4,0.5c0.2,0.1,0.4,0.2,0.7,0.2c0.3,0,0.6-0.1,0.8-0.2
			c0.2-0.1,0.3-0.3,0.4-0.6c0.1-0.2,0.1-0.5,0.2-0.7c0-0.2,0-0.5,0-0.9V382c0-0.3,0-0.7,0-0.9s-0.1-0.5-0.2-0.8
			c-0.1-0.3-0.2-0.5-0.4-0.6s-0.4-0.3-0.8-0.3c-0.3,0-0.5,0.1-0.7,0.2c-0.2,0.1-0.3,0.3-0.4,0.6s-0.1,0.5-0.2,0.8s0,0.6,0,1V384.7z"
			/>
		<path d="M226.3,383.8v4.4h-1.9v-10.1h3.6c0.4,0,0.8,0,1.2,0.1c0.3,0.1,0.6,0.2,0.9,0.4s0.5,0.4,0.6,0.8c0.1,0.3,0.2,0.7,0.2,1.1
			c0,0.3,0,0.6-0.1,0.9c0,0.3-0.1,0.5-0.2,0.7c-0.1,0.2-0.3,0.4-0.5,0.6s-0.5,0.2-0.8,0.3v0c0.5,0.1,0.9,0.3,1.1,0.6
			c0.2,0.3,0.3,0.7,0.3,1.3c0,0.4,0,0.8,0,1.1c0,0.3,0,0.6,0.1,0.9c0,0.3,0.1,0.6,0.1,0.8c0.1,0.2,0.1,0.3,0.2,0.4v0.2h-2.1
			c-0.1-0.2-0.1-0.5-0.2-0.9c0-0.4,0-0.8,0-1.3c0-0.2,0-0.4,0-0.4v-0.1c0-0.2,0-0.4,0-0.6c0-0.1,0-0.3-0.1-0.4
			c0-0.1-0.1-0.3-0.2-0.4s-0.2-0.2-0.4-0.2c-0.2-0.1-0.4-0.1-0.6-0.1s-0.6,0-1,0H226.3z M226.3,382.3h1.5c0.3,0,0.6-0.1,0.8-0.4
			c0.2-0.2,0.3-0.6,0.3-1.1c0-0.5-0.1-0.9-0.3-1.1c-0.2-0.2-0.5-0.3-0.9-0.3h-1.4V382.3z"/>
	</g>
	<g>
		<path d="M82.7,274.2h11.4c2.5,0,4.4,0.7,5.8,2.2c1.3,1.5,2,3.4,2,5.7c0,2.5-0.7,4.5-2.2,6c-1.5,1.5-3.4,2.3-5.8,2.3h-6v9.1h-5.2
			V274.2z M87.9,278.6v7.3h4.8c2.6,0,3.9-1.3,3.9-3.8c0-1.4-0.4-2.3-1.1-2.8s-1.9-0.8-3.4-0.8H87.9z"/>
		<path d="M127.4,299.4h-5.8c-0.4-1.4-0.5-2.9-0.6-4.5l0-1.9c0-1.3-0.3-2.2-0.8-2.7s-1.6-0.8-3.3-0.8h-5.5v9.9h-5.2v-25.2H119
			c2.4,0,4.4,0.7,5.8,2c1.5,1.3,2.2,3.1,2.2,5.3c0,2.8-1.3,4.8-3.9,5.9c1.4,0.6,2.3,1.3,2.7,2.3c0.4,1,0.5,2.5,0.5,4.6v1
			c0,1,0.1,1.7,0.2,2.3c0.1,0.6,0.5,0.9,1,1.1V299.4z M121.7,282c0-2.2-1.2-3.4-3.7-3.4h-6.6v6.7h6.2
			C120.3,285.4,121.7,284.2,121.7,282z"/>
		<path d="M131.5,299.4v-25.2h18.7v4.4h-13.4v5.3h12.4v4.4h-12.4v6.6h14v4.4H131.5z"/>
		<path d="M170.8,290.8h5.2c-0.5,2.8-1.6,5-3.5,6.8c-1.9,1.7-4.3,2.6-7.3,2.6c-3.5,0-6.3-1.1-8.4-3.4c-2.1-2.3-3.1-5.6-3.1-9.9
			c0-4.1,1-7.3,3.1-9.7c2.1-2.4,4.9-3.6,8.5-3.6c3,0,5.4,0.8,7.3,2.4c1.9,1.6,3.1,3.8,3.4,6.7h-5.2c-0.5-1.6-1.1-2.8-2-3.4
			c-0.8-0.7-2-1-3.4-1c-2,0-3.6,0.8-4.7,2.3c-1.1,1.6-1.7,3.7-1.7,6.5c0,2.5,0.5,4.6,1.6,6.2c1,1.6,2.6,2.4,4.6,2.4
			c1.2,0,2.3-0.3,3.3-1S170.4,292.7,170.8,290.8z"/>
		<path d="M178.3,299.4l9-25.2h6.1l9,25.2h-5.7l-1.6-5.3h-9.5l-1.8,5.3H178.3z M187.1,289.8h6.4l-3.2-9.8L187.1,289.8z"/>
		<path d="M205.4,274.2h5.2v16.4c0,3.3,1.6,5,4.9,5c3.3,0,5-1.6,5-4.8v-16.7h5.2v16.4c0,6.3-3.4,9.5-10.2,9.5
			c-3.1,0-5.5-0.8-7.3-2.3c-1.8-1.5-2.7-3.8-2.7-6.9V274.2z"/>
		<path d="M246.9,290.8h5.2c-0.5,2.8-1.6,5-3.5,6.8c-1.9,1.7-4.3,2.6-7.3,2.6c-3.5,0-6.3-1.1-8.4-3.4c-2.1-2.3-3.1-5.6-3.1-9.9
			c0-4.1,1-7.3,3.1-9.7c2.1-2.4,4.9-3.6,8.5-3.6c3,0,5.4,0.8,7.3,2.4c1.9,1.6,3.1,3.8,3.4,6.7h-5.2c-0.5-1.6-1.1-2.8-2-3.4
			c-0.8-0.7-2-1-3.4-1c-2,0-3.6,0.8-4.7,2.3c-1.1,1.6-1.7,3.7-1.7,6.5c0,2.5,0.5,4.6,1.6,6.2c1,1.6,2.6,2.4,4.6,2.4
			c1.2,0,2.3-0.3,3.3-1S246.4,292.7,246.9,290.8z"/>
		<path d="M255.8,274.2h5.2v25.2h-5.2V274.2z"/>
		<path d="M264.9,286.9c0-4.2,1.1-7.5,3.2-9.8c2.2-2.4,5.1-3.5,8.9-3.5c3.6,0,6.5,1.1,8.7,3.4c2.3,2.2,3.4,5.5,3.4,9.9
			c0,4.1-1.1,7.4-3.3,9.7c-2.2,2.4-5.1,3.5-8.9,3.5c-3.6,0-6.5-1.1-8.8-3.4C266,294.3,264.9,291.1,264.9,286.9z M270.2,286.8
			c0,2.6,0.6,4.7,1.7,6.4c1.2,1.7,2.8,2.5,5.1,2.5c2,0,3.6-0.7,4.9-2.2c1.3-1.5,1.9-3.7,1.9-6.7c0-2.6-0.6-4.7-1.7-6.3
			c-1.2-1.6-2.9-2.5-5.1-2.5c-2,0-3.6,0.8-4.9,2.3C270.8,281.8,270.2,283.9,270.2,286.8z M274.9,271.6l3.4-5.2h5.4l-5.2,5.2H274.9z"
			/>
		<path d="M293.1,274.2h5.6l10.1,17.5v-17.5h4.9v25.2h-5.2L298,281.5v17.9h-4.9V274.2z"/>
	</g>
	<g>
		<path d="M30.5,307.4h20.2v4.3h-7.5v20.4h-5.1v-20.4h-7.5V307.4z"/>
		<path d="M74.5,332.1h-5.7c-0.3-1.3-0.5-2.8-0.6-4.4l0-1.8c0-1.2-0.3-2.1-0.8-2.6c-0.5-0.5-1.6-0.8-3.2-0.8h-5.4v9.6h-5.1v-24.7
			h12.6c2.4,0,4.3,0.6,5.7,1.9c1.4,1.3,2.1,3,2.1,5.2c0,2.8-1.3,4.7-3.8,5.8c1.4,0.5,2.3,1.3,2.6,2.3s0.5,2.5,0.5,4.5v1
			c0,0.9,0.1,1.7,0.2,2.2c0.1,0.5,0.4,0.9,0.9,1.1V332.1z M68.8,315c0-2.2-1.2-3.3-3.6-3.3h-6.5v6.6h6.1
			C67.5,318.3,68.8,317.2,68.8,315z"/>
		<path d="M76.5,332.1l8.9-24.7h5.9l8.9,24.7h-5.6l-1.6-5.2h-9.3l-1.7,5.2H76.5z M85.1,322.6h6.3l-3.1-9.6L85.1,322.6z"/>
		<path d="M103,307.4h7.5l4.5,19.3l4.2-19.3h7.5v24.7h-4.8v-20.7l-4.6,20.7h-5l-4.6-20.7v20.7H103V307.4z"/>
		<path d="M130.8,319.8c0-4.1,1.1-7.3,3.2-9.6c2.1-2.3,5-3.5,8.7-3.5c3.5,0,6.3,1.1,8.5,3.3c2.2,2.2,3.3,5.4,3.3,9.7
			c0,4-1.1,7.2-3.2,9.5c-2.1,2.3-5,3.5-8.7,3.5c-3.5,0-6.4-1.1-8.6-3.4C131.9,327.1,130.8,323.9,130.8,319.8z M136,319.6
			c0,2.5,0.6,4.6,1.7,6.3c1.1,1.6,2.8,2.5,5,2.5c1.9,0,3.5-0.7,4.8-2.2c1.3-1.5,1.9-3.6,1.9-6.5c0-2.5-0.6-4.6-1.7-6.2
			c-1.1-1.6-2.8-2.4-5-2.4c-1.9,0-3.5,0.7-4.8,2.2C136.6,314.8,136,316.9,136,319.6z"/>
		<path d="M168.2,332.1v-24.7H179c3.2,0,5.7,1,7.4,3c1.8,2,2.7,5,2.7,8.9c0,3.8-0.9,6.8-2.7,9.2c-1.8,2.4-4.3,3.5-7.6,3.5H168.2z
			 M173.3,327.7h5c1.7,0,3.1-0.7,4.1-2.1c1-1.4,1.5-3.4,1.5-6.1c0-5.2-1.9-7.8-5.7-7.8h-4.9V327.7z"/>
		<path d="M193,332.1v-24.7h18.3v4.3h-13.2v5.2h12.1v4.3h-12.1v6.5h13.7v4.3H193z"/>
		<path d="M225.4,307.4h11.2c2.5,0,4.3,0.7,5.7,2.2c1.3,1.4,2,3.3,2,5.6c0,2.5-0.7,4.4-2.2,5.9c-1.4,1.5-3.3,2.2-5.6,2.2h-5.9v8.9
			h-5.1V307.4z M230.6,311.7v7.2h4.7c2.5,0,3.8-1.2,3.8-3.7c0-1.3-0.4-2.2-1.1-2.7s-1.9-0.7-3.4-0.7H230.6z"/>
		<path d="M247.3,319.8c0-4.1,1.1-7.3,3.2-9.6c2.1-2.3,5-3.5,8.7-3.5c3.5,0,6.3,1.1,8.5,3.3c2.2,2.2,3.3,5.4,3.3,9.7
			c0,4-1.1,7.2-3.2,9.5c-2.1,2.3-5,3.5-8.7,3.5c-3.5,0-6.4-1.1-8.6-3.4C248.4,327.1,247.3,323.9,247.3,319.8z M252.5,319.6
			c0,2.5,0.6,4.6,1.7,6.3c1.1,1.6,2.8,2.5,5,2.5c1.9,0,3.5-0.7,4.8-2.2c1.3-1.5,1.9-3.6,1.9-6.5c0-2.5-0.6-4.6-1.7-6.2
			c-1.1-1.6-2.8-2.4-5-2.4c-1.9,0-3.5,0.7-4.8,2.2C253.1,314.8,252.5,316.9,252.5,319.6z"/>
		<path d="M295.9,332.1h-5.7c-0.3-1.3-0.5-2.8-0.6-4.4l0-1.8c0-1.2-0.3-2.1-0.8-2.6c-0.5-0.5-1.6-0.8-3.2-0.8h-5.4v9.6h-5.1v-24.7
			h12.6c2.4,0,4.3,0.6,5.7,1.9c1.4,1.3,2.1,3,2.1,5.2c0,2.8-1.3,4.7-3.8,5.8c1.4,0.5,2.3,1.3,2.6,2.3s0.5,2.5,0.5,4.5v1
			c0,0.9,0.1,1.7,0.2,2.2c0.1,0.5,0.4,0.9,0.9,1.1V332.1z M290.3,315c0-2.2-1.2-3.3-3.6-3.3h-6.5v6.6h6.1
			C289,318.3,290.3,317.2,290.3,315z"/>
		<path d="M297.8,307.4H318v4.3h-7.5v20.4h-5.1v-20.4h-7.5V307.4z"/>
		<path d="M320.9,332.1v-24.7h18.3v4.3H326v5.2h12.1v4.3H326v6.5h13.7v4.3H320.9z"/>
		<path d="M342.7,319.8c0-4.1,1.1-7.3,3.2-9.6c2.1-2.3,5-3.5,8.7-3.5c3.5,0,6.3,1.1,8.5,3.3c2.2,2.2,3.3,5.4,3.3,9.7
			c0,4-1.1,7.2-3.2,9.5c-2.1,2.3-5,3.5-8.7,3.5c-3.5,0-6.4-1.1-8.6-3.4C343.8,327.1,342.7,323.9,342.7,319.8z M347.9,319.6
			c0,2.5,0.6,4.6,1.7,6.3c1.1,1.6,2.8,2.5,5,2.5c1.9,0,3.5-0.7,4.8-2.2c1.3-1.5,1.9-3.6,1.9-6.5c0-2.5-0.6-4.6-1.7-6.2
			c-1.1-1.6-2.8-2.4-5-2.4c-1.9,0-3.5,0.7-4.8,2.2C348.5,314.8,347.9,316.9,347.9,319.6z"/>
	</g>
	<g>
		<g>
			<path class="st2" d="M181.4,33.7L71,225.1c-7.6,13.1,1.9,29.4,17,29.4h220.9c15.1,0,24.6-16.4,17-29.4L215.4,33.7
				C207.9,20.6,189,20.6,181.4,33.7z"/>
			<path d="M308.9,264.2H88c-10.6,0-20.1-5.5-25.4-14.7s-5.3-20.2,0-29.4L173,28.8c5.3-9.2,14.8-14.7,25.4-14.7
				c10.6,0,20.1,5.5,25.4,14.7l110.5,191.3c5.3,9.2,5.3,20.2,0,29.4C329,258.7,319.5,264.2,308.9,264.2z M189.8,38.6L79.4,229.9
				c-2.6,4.5-0.9,8.4,0,9.9c0.9,1.5,3.4,5,8.6,5h220.9c5.2,0,7.7-3.5,8.6-5c0.9-1.5,2.6-5.4,0-9.9L207,38.6c-2.6-4.5-6.9-5-8.6-5
				C196.7,33.6,192.4,34.1,189.8,38.6L189.8,38.6z"/>
		</g>
		<g>
			<circle class="st3" cx="198.8" cy="168.8" r="59.7"/>
			<g>
				<path class="st4" d="M178.7,160.8h6.8c0.4,0,0.8,0.3,0.8,0.8v1c0,0.4-0.3,0.8-0.8,0.8h-3.2l5.2,5.1h18.9l1.1-2.7h-6.4
					c-0.5,0-1-0.4-1-1v-1.3c0-0.5,0.4-1,1-1h9.5c0.5,0,1,0.4,1,1v1.3c0,0.5-0.4,1-1,1h-0.5c0,0.2,0,0.3-0.1,0.5l-0.9,2.2h0.7
					c0.5,0,1,0.3,1.2,0.8l3.8,7.3c-0.8,0.3-1.6,0.7-2.3,1.1l-3.5-6.6h-1l-7.8,19.2c-0.2,0.5-0.7,0.8-1.2,0.8
					c-0.5,0.3-1.1,0.2-1.5-0.2l-13.8-14.8l-1.1,2.1c0.8,0.5,1.5,1.1,2.2,1.8c2.6,2.6,4.2,6.2,4.2,10.1c0,4-1.6,7.5-4.2,10.1
					c-2.6,2.6-6.2,4.2-10.1,4.2c-4,0-7.5-1.6-10.1-4.2c-2.6-2.6-4.2-6.2-4.2-10.1c0-4,1.6-7.5,4.2-10.1c2.6-2.6,6.2-4.2,10.1-4.2
					c2,0,3.9,0.4,5.7,1.2l4-7.7c0.1-0.2,0.3-0.4,0.5-0.5l-5.3-5.2h-0.9c-0.4,0-0.8-0.3-0.8-0.8v-1
					C177.9,161.1,178.3,160.8,178.7,160.8L178.7,160.8z M198.3,188l6.9-17.1h-19.1l-1.4,2.6L198.3,188L198.3,188z M215.8,178.6
					c-0.8,0.3-1.6,0.6-2.3,1.1l5.3,10.1c0.3,0.6,1.1,0.9,1.7,0.5c0.6-0.3,0.9-1.1,0.5-1.7L215.8,178.6L215.8,178.6z M181.4,180.1
					l-5,9.6c-0.3,0.6-1.1,0.9-1.7,0.5c-0.6-0.3-0.9-1.1-0.5-1.7l5.1-9.7c-1.4-0.6-2.9-0.9-4.5-0.9c-3.3,0-6.2,1.3-8.4,3.5
					c-2.1,2.1-3.5,5.1-3.5,8.4c0,3.3,1.3,6.2,3.5,8.4c2.1,2.1,5.1,3.5,8.4,3.5c3.3,0,6.2-1.3,8.4-3.5c2.1-2.1,3.5-5.1,3.5-8.4
					c0-3.3-1.3-6.2-3.5-8.4C182.5,181,182,180.5,181.4,180.1z"/>
				<path class="st4" d="M198.2,188.5h7.2c0.3-3.4,1.8-6.5,4.1-8.8c2.6-2.6,6.2-4.2,10.1-4.2c4,0,7.5,1.6,10.1,4.2
					c2.6,2.6,4.2,6.2,4.2,10.1c0,4-1.6,7.5-4.2,10.1c-2.6,2.6-6.2,4.2-10.1,4.2c-4,0-7.5-1.6-10.1-4.2c-2.3-2.3-3.9-5.4-4.1-8.9
					h-7.2c-0.4,0-0.8-0.3-0.8-0.8v-1C197.4,188.9,197.8,188.5,198.2,188.5L198.2,188.5z M207.8,188.5h12.6c0.4,0,0.8,0.3,0.8,0.8v1
					c0,0.4-0.3,0.8-0.8,0.8h-12.6c0.3,2.8,1.5,5.3,3.4,7.2c2.1,2.1,5.1,3.5,8.4,3.5c3.3,0,6.2-1.3,8.4-3.5c2.1-2.1,3.5-5.1,3.5-8.4
					c0-3.3-1.3-6.2-3.5-8.4c-2.1-2.1-5.1-3.5-8.4-3.5c-3.3,0-6.2,1.3-8.4,3.5C209.4,183.3,208.1,185.8,207.8,188.5z"/>
			</g>
			<g>
				<path d="M186,162.4l0.1,1.2c0,0.8,0.5,1.6,1.3,2c0.4,0.2,0.8,0.3,1.2,0.3l12.3-0.8v4.3l-3.7,11.4c-0.4,1.2-0.6,3.1-0.4,4.4
					l1.7,13.8c0.2,1.5,1.5,2.8,3,3l2.6,0.4c0.1,0,0.3,0,0.4,0c0.7,0,1.3-0.3,1.7-0.8c0.4-0.5,0.6-1.2,0.5-1.9l-2.2-13.7
					c-0.2-1,0-2.6,0.4-3.6l2.7-6.9h1.8l0.7,7.2c0.1,1.3,0.7,3.1,1.3,4.2l7.6,13.1c0.6,1,1.8,1.7,3.1,1.7c0.3,0,0.6,0,0.9-0.1
					l2.5-0.7c0.8-0.2,1.3-0.7,1.6-1.4c0.3-0.7,0.2-1.4-0.2-2.1l-7.9-12.9c-0.5-0.9-1-2.4-1-3.4l-0.3-8.8V156l1.6,1.1
					c0.5,0.3,0.8,1.1,0.7,1.7l-1.8,10.7c-0.1,0.6,0.1,1.3,0.4,1.8c0.4,0.5,1,0.8,1.6,0.8l1.3,0.1c1.2,0,2.4-0.9,2.6-2.1l2.6-13.9
					c0.2-1.2-0.4-2.6-1.3-3.3l-8.4-6c-0.1,0-0.1-0.1-0.2-0.1c-0.4-0.3-0.9-0.6-1.5-0.6h-11.8c-1.2,0-2.1,0.8-2.3,1.9c0,0,0,0,0,0.1
					l-2.4,9.6c-0.2,0.6-0.8,1.6-1.4,1.9l-8.8,0.1C187,160,186,161.1,186,162.4z"/>
				<path d="M218.6,135.6c0-4.8-3.9-8.6-8.6-8.6s-8.6,3.9-8.6,8.6c0,4.8,3.9,8.6,8.6,8.6C214.7,144.3,218.6,140.4,218.6,135.6z"/>
			</g>
		</g>
	</g>
</g>
</svg>
