<?xml version="1.0" encoding="utf-8"?>
<!-- Generator: Adobe Illustrator 22.0.0, SVG Export Plug-In . SVG Version: 6.00 Build 0)  -->
<svg version="1.1" id="Capa_1" xmlns="http://www.w3.org/2000/svg" xmlns:xlink="http://www.w3.org/1999/xlink" x="0px" y="0px"
	 viewBox="0 0 396.9 396.9" style="enable-background:new 0 0 396.9 396.9;" xml:space="preserve">
<style type="text/css">
	.st0{fill:#FFFFFF;}
	.st1{fill:#DE271D;}
	.st2{fill:#B4B3B4;}
</style>
<g>
	<g>
		<rect x="-0.4" y="-0.4" class="st0" width="397.9" height="397.9"/>
		<path d="M397,0.1v396.9H0.1V0.1H397 M398-0.9h-1H0.1h-1v1v396.9v1h1H397h1v-1V0.1V-0.9L398-0.9z"/>
	</g>
	<g>
		<polygon class="st1" points="241,28.7 137.1,209.4 345,209.4 		"/>
		<g>
			<path class="st1" d="M225.7,267.8c0,24.5-19.8,44.4-44.3,44.4c-24.5,0-44.3-19.9-44.3-44.4c0-24.5,19.8-44.4,44.3-44.4
				C205.9,223.4,225.7,243.3,225.7,267.8"/>
			<path class="st1" d="M345,267.8c0,24.5-19.8,44.4-44.3,44.4c-24.5,0-44.3-19.9-44.3-44.4c0-24.5,19.8-44.4,44.3-44.4
				C325.1,223.4,345,243.3,345,267.8"/>
		</g>
		<g>
			<g>
				<path class="st0" d="M328.5,269.8c-0.9,1.8-4.8,1.3-9-0.8c-4.2-2.2-6.9-5.1-6.1-6.9c0-0.1,0.1-0.2,0.1-0.2
					c-0.2,0.2-0.3,0.3-0.4,0.5c-0.9,1.9,1.6,6.2,6.3,8.6c4.7,2.4,9.9,2.1,10.9,0.1c0.9-1.9-2.1-5.5-6.9-7.9
					c-0.1-0.1-0.3-0.1-0.4-0.2C327,265.2,329.3,268.1,328.5,269.8z"/>
				<path class="st0" d="M320.1,272.7c0,0-7.8-2.9-12.2-11.3c-1.5-3-5.7-11-16.4-6.4c0,0,6.3-0.7,10.4,6.1
					C306.9,269.5,314.9,272.5,320.1,272.7z"/>
				<path class="st0" d="M274.9,248.7c2.6-2.3,8.5,1.3,13.8,8c5.3,6.7,7.6,13.5,5,15.7c-0.1,0.1-0.3,0.2-0.4,0.3
					c0.4-0.1,0.7-0.3,1-0.6c2.9-2.5,1.7-11.4-4.2-18.8c-5.9-7.5-14.5-10.7-17.3-8.2c-2.9,2.5-0.4,10.6,5.6,18.1
					c0.2,0.2,0.4,0.5,0.5,0.7C274.1,257.3,272.4,250.9,274.9,248.7z"/>
				<g>
					<path class="st0" d="M311.7,248.4c-0.5-0.1,8.7,2,11.8,9.3C330.1,257.3,326.8,250.2,311.7,248.4z"/>
				</g>
				<g>
					<path class="st0" d="M290.8,253.8c-0.3,0.6,6.1-9.1,38,11.6C328.2,263.1,300.7,232.1,290.8,253.8z"/>
				</g>
				<path class="st0" d="M314.7,272.7c0,0-5.3-1.6-10-5.6c-3-2.6-6.9-5.4-15.4-3.6c0,0,5-0.6,10,3.3
					C305,271.3,309.7,272.6,314.7,272.7z"/>
			</g>
			<g>
				<path class="st0" d="M273,278l-0.5-0.7h-0.4v0.7h-0.5v-2.3h1c0.5,0,0.8,0.3,0.8,0.7v0c0,0.4-0.2,0.6-0.5,0.7l0.6,0.8H273z
					 M273.1,276.5c0-0.2-0.1-0.3-0.4-0.3h-0.5v0.6h0.5C272.9,276.9,273.1,276.7,273.1,276.5L273.1,276.5z"/>
				<path class="st0" d="M274.3,278v-2.3h1.7v0.4h-1.2v0.5l1.1,0v0.4l-1.1,0v0.5l1.2,0l0,0.4L274.3,278z"/>
				<path class="st0" d="M278.5,278l-0.2-0.5h-1l-0.2,0.5h-0.5l1-2.3h0.5l1,2.3H278.5z M277.8,276.3l-0.3,0.7h0.6L277.8,276.3z"/>
				<path class="st0" d="M279.7,278v-2.3h0.5v1.8h1.1v0.5H279.7z"/>
				<path class="st0" d="M283.8,276.2v0.5l1.1,0v0.5h-1.1v0.9l-0.5,0l0-2.3h1.7v0.5L283.8,276.2z"/>
				<path class="st0" d="M285.7,278v-2.3l1.7,0v0.4l-1.2,0v0.5h1.1v0.4h-1.1v0.5h1.2v0.4H285.7z"/>
				<path class="st0" d="M289,278h-0.9v-2.3h0.9c0.7,0,1.2,0.5,1.2,1.1v0C290.2,277.5,289.8,278,289,278z M289.7,276.9
					c0-0.4-0.3-0.7-0.7-0.7h-0.4v1.4h0.4C289.5,277.6,289.7,277.3,289.7,276.9L289.7,276.9z"/>
				<path class="st0" d="M291,278l0-2.3h1.7v0.4h-1.2v0.5l1.1,0v0.4l-1.1,0v0.5h1.2v0.4L291,278z"/>
				<path class="st0" d="M294.8,278l-0.5-0.7H294v0.7h-0.5v-2.3h1c0.5,0,0.8,0.3,0.8,0.7v0c0,0.4-0.2,0.6-0.5,0.7l0.6,0.8H294.8z
					 M294.9,276.5c0-0.2-0.1-0.3-0.4-0.3H294v0.6h0.5C294.7,276.9,294.9,276.7,294.9,276.5L294.9,276.5z"/>
				<path class="st0" d="M297.8,278l-0.2-0.5h-1l-0.2,0.5h-0.5l1-2.3l0.5,0l1,2.3H297.8z M297.1,276.3l-0.3,0.7h0.6L297.1,276.3z"/>
				<path class="st0" d="M299.9,278.1c-0.7,0-1.2-0.5-1.2-1.2v0c0-0.6,0.5-1.2,1.2-1.2c0.4,0,0.7,0.1,0.9,0.3l-0.3,0.4
					c-0.2-0.2-0.4-0.3-0.6-0.3c-0.4,0-0.7,0.3-0.7,0.7v0c0,0.4,0.3,0.7,0.7,0.7c0.3,0,0.4-0.1,0.6-0.3l0.3,0.3
					C300.6,277.9,300.3,278.1,299.9,278.1z"/>
				<path class="st0" d="M301.6,278l0-2.3h0.5l0,2.3H301.6z"/>
				<path class="st0" d="M304,278.1c-0.7,0-1.2-0.5-1.2-1.2v0c0-0.6,0.5-1.2,1.2-1.2c0.7,0,1.2,0.5,1.2,1.2v0
					C305.2,277.5,304.7,278.1,304,278.1z M304.7,276.9c0-0.4-0.3-0.7-0.7-0.7c-0.4,0-0.7,0.3-0.7,0.7v0c0,0.4,0.3,0.7,0.7,0.7
					S304.7,277.3,304.7,276.9L304.7,276.9z M303.9,275.6l0.4-0.6l0.4,0.2l-0.4,0.4H303.9z"/>
				<path class="st0" d="M307.6,278l-1.1-1.4v1.4H306l0-2.3h0.5l1.1,1.4v-1.4h0.5v2.3H307.6z"/>
				<path class="st0" d="M310.1,278l0-2.3h1.7v0.4h-1.2v0.5h1.1v0.4h-1.1v0.5h1.2v0.4H310.1z"/>
				<path class="st0" d="M313.4,278.1c-0.3,0-0.7-0.1-1-0.4l0.3-0.4c0.2,0.2,0.4,0.3,0.7,0.3c0.2,0,0.3-0.1,0.3-0.2v0
					c0-0.1-0.1-0.2-0.5-0.3c-0.5-0.1-0.7-0.2-0.7-0.7v0c0-0.4,0.3-0.7,0.8-0.7c0.3,0,0.6,0.1,0.8,0.3l-0.3,0.4
					c-0.2-0.1-0.4-0.2-0.6-0.2c-0.2,0-0.3,0.1-0.3,0.2v0c0,0.1,0.1,0.2,0.5,0.3c0.5,0.1,0.7,0.3,0.7,0.7v0
					C314.3,277.8,313.9,278.1,313.4,278.1z"/>
				<path class="st0" d="M315.9,277.3h-0.4v0.7H315v-2.3h0.9c0.5,0,0.9,0.3,0.9,0.8v0C316.8,277.1,316.4,277.3,315.9,277.3z
					 M316.3,276.6c0-0.2-0.2-0.3-0.4-0.3h-0.4v0.7h0.4C316.1,276.9,316.3,276.8,316.3,276.6L316.3,276.6z"/>
				<path class="st0" d="M318.9,278l-0.2-0.5h-1l-0.2,0.5h-0.5l1-2.3h0.5l1,2.3H318.9z M318.2,276.3l-0.3,0.7h0.6L318.2,276.3z"/>
				<path class="st0" d="M321.7,278l-1.1-1.4v1.4h-0.5v-2.3h0.5l1.1,1.4v-1.4h0.5v2.3H321.7z M321.4,275.6c-0.2,0-0.4-0.1-0.5-0.1
					c-0.1,0-0.1,0.1-0.2,0.2l-0.3-0.1c0.1-0.3,0.2-0.4,0.4-0.4c0.2,0,0.4,0.1,0.5,0.1c0.1,0,0.1-0.1,0.2-0.2l0.3,0.1
					C321.7,275.4,321.6,275.6,321.4,275.6z"/>
				<path class="st0" d="M324.1,278.1c-0.7,0-1.2-0.5-1.2-1.2v0c0-0.6,0.5-1.2,1.2-1.2c0.7,0,1.2,0.5,1.2,1.2v0
					C325.3,277.5,324.8,278.1,324.1,278.1z M324.7,276.9c0-0.4-0.3-0.7-0.7-0.7c-0.4,0-0.7,0.3-0.7,0.7v0c0,0.4,0.3,0.7,0.7,0.7
					C324.5,277.6,324.7,277.3,324.7,276.9L324.7,276.9z"/>
				<path class="st0" d="M326,278v-2.3h0.5v1.8h1.1v0.5L326,278z"/>
				<path class="st0" d="M330,278l-0.2-0.5h-1l-0.2,0.5h-0.5l1-2.3h0.5l1,2.3H330z M329.3,276.3l-0.3,0.7h0.6L329.3,276.3z"/>
			</g>
			<g>
				<path class="st0" d="M275.9,289.4c-0.6,0-1.2-0.1-1.7-0.3c-0.5-0.2-1-0.5-1.3-0.9c-0.4-0.4-0.7-0.8-0.9-1.3
					c-0.2-0.5-0.3-1.1-0.3-1.7v0c0-0.6,0.1-1.1,0.3-1.7c0.2-0.5,0.5-1,0.9-1.4c0.4-0.4,0.8-0.7,1.4-0.9c0.5-0.2,1.1-0.3,1.7-0.3
					c0.4,0,0.7,0,1.1,0.1c0.3,0.1,0.6,0.1,0.9,0.3c0.3,0.1,0.5,0.2,0.7,0.4c0.2,0.2,0.4,0.3,0.6,0.5l-1.2,1.3
					c-0.3-0.3-0.6-0.5-1-0.7c-0.3-0.2-0.7-0.2-1.1-0.2c-0.3,0-0.7,0.1-1,0.2c-0.3,0.1-0.5,0.3-0.8,0.6c-0.2,0.2-0.4,0.5-0.5,0.8
					c-0.1,0.3-0.2,0.6-0.2,1v0c0,0.4,0.1,0.7,0.2,1s0.3,0.6,0.5,0.8c0.2,0.2,0.5,0.4,0.8,0.6c0.3,0.1,0.6,0.2,1,0.2
					c0.5,0,0.9-0.1,1.2-0.3c0.3-0.2,0.6-0.4,1-0.7l1.2,1.2c-0.2,0.2-0.4,0.4-0.7,0.6c-0.2,0.2-0.5,0.3-0.7,0.5
					c-0.3,0.1-0.6,0.2-0.9,0.3S276.3,289.4,275.9,289.4z"/>
				<path class="st0" d="M280.7,281.1l1.8,0l0,8.3l-1.8,0L280.7,281.1z"/>
				<path class="st0" d="M288.4,289.4c-0.6,0-1.2-0.1-1.7-0.3c-0.5-0.2-1-0.5-1.3-0.9c-0.4-0.4-0.7-0.8-0.9-1.3
					c-0.2-0.5-0.3-1.1-0.3-1.7v0c0-0.6,0.1-1.1,0.3-1.7c0.2-0.5,0.5-1,0.9-1.4c0.4-0.4,0.8-0.7,1.4-0.9c0.5-0.2,1.1-0.3,1.7-0.3
					c0.4,0,0.7,0,1.1,0.1c0.3,0.1,0.6,0.1,0.9,0.3c0.3,0.1,0.5,0.2,0.7,0.4c0.2,0.2,0.4,0.3,0.6,0.5l-1.2,1.3
					c-0.3-0.3-0.6-0.5-1-0.7c-0.3-0.2-0.7-0.2-1.1-0.2c-0.3,0-0.7,0.1-1,0.2c-0.3,0.1-0.5,0.3-0.8,0.6c-0.2,0.2-0.4,0.5-0.5,0.8
					c-0.1,0.3-0.2,0.6-0.2,1v0c0,0.4,0.1,0.7,0.2,1s0.3,0.6,0.5,0.8c0.2,0.2,0.5,0.4,0.8,0.6c0.3,0.1,0.6,0.2,1,0.2
					c0.5,0,0.9-0.1,1.2-0.3c0.3-0.2,0.6-0.4,1-0.7l1.2,1.2c-0.2,0.2-0.4,0.4-0.7,0.6c-0.2,0.2-0.5,0.3-0.7,0.5
					c-0.3,0.1-0.6,0.2-0.9,0.3S288.8,289.4,288.4,289.4z"/>
				<path class="st0" d="M293.2,281.1l1.8,0v6.6l4.1,0v1.6l-5.9,0L293.2,281.1z"/>
				<path class="st0" d="M300.4,281.1h1.8v8.3h-1.8L300.4,281.1z"/>
				<path class="st0" d="M307.2,289.4c-0.6,0-1.2-0.1-1.8-0.3c-0.6-0.2-1.2-0.5-1.6-1l1.1-1.3c0.4,0.3,0.8,0.6,1.2,0.7
					c0.4,0.2,0.8,0.3,1.3,0.3c0.4,0,0.7-0.1,0.9-0.2c0.2-0.1,0.3-0.3,0.3-0.6v0c0-0.1,0-0.2-0.1-0.3c0-0.1-0.1-0.2-0.2-0.3
					c-0.1-0.1-0.3-0.2-0.5-0.2c-0.2-0.1-0.5-0.2-0.8-0.2c-0.4-0.1-0.8-0.2-1.1-0.3c-0.3-0.1-0.6-0.3-0.9-0.5
					c-0.2-0.2-0.4-0.4-0.5-0.7c-0.1-0.3-0.2-0.6-0.2-1v0c0-0.4,0.1-0.7,0.2-1c0.1-0.3,0.3-0.6,0.6-0.8c0.3-0.2,0.6-0.4,0.9-0.5
					c0.4-0.1,0.7-0.2,1.2-0.2c0.6,0,1.2,0.1,1.7,0.3c0.5,0.2,1,0.4,1.4,0.8l-0.9,1.4c-0.4-0.3-0.7-0.4-1.1-0.6
					c-0.4-0.1-0.7-0.2-1.1-0.2c-0.4,0-0.6,0.1-0.8,0.2c-0.2,0.1-0.3,0.3-0.3,0.5v0c0,0.1,0,0.2,0.1,0.3c0.1,0.1,0.1,0.2,0.3,0.3
					c0.1,0.1,0.3,0.2,0.5,0.2c0.2,0.1,0.5,0.2,0.9,0.2c0.4,0.1,0.8,0.2,1.1,0.4c0.3,0.1,0.6,0.3,0.8,0.5c0.2,0.2,0.4,0.4,0.5,0.7
					c0.1,0.3,0.2,0.6,0.2,0.9v0c0,0.4-0.1,0.8-0.2,1.1c-0.1,0.3-0.4,0.6-0.6,0.8c-0.3,0.2-0.6,0.4-0.9,0.5
					C308.1,289.4,307.7,289.4,307.2,289.4z"/>
				<path class="st0" d="M311.9,281.1l2,0l2.2,3.5l2.2-3.5h2l0,8.3h-1.8v-5.4l-2.3,3.5h0l-2.3-3.5l0,5.4h-1.8V281.1z"/>
				<path class="st0" d="M326.1,289.4c-0.6,0-1.2-0.1-1.8-0.3c-0.5-0.2-1-0.5-1.4-0.9c-0.4-0.4-0.7-0.8-0.9-1.3
					c-0.2-0.5-0.3-1.1-0.3-1.7v0c0-0.6,0.1-1.1,0.3-1.7c0.2-0.5,0.5-1,0.9-1.4c0.4-0.4,0.9-0.7,1.4-0.9c0.5-0.2,1.1-0.3,1.8-0.3
					c0.6,0,1.2,0.1,1.8,0.3c0.5,0.2,1,0.5,1.4,0.9c0.4,0.4,0.7,0.8,0.9,1.3c0.2,0.5,0.3,1.1,0.3,1.7v0c0,0.6-0.1,1.1-0.3,1.7
					c-0.2,0.5-0.5,1-0.9,1.4c-0.4,0.4-0.9,0.7-1.4,0.9C327.4,289.3,326.8,289.4,326.1,289.4z M326.2,287.8c0.4,0,0.7-0.1,1-0.2
					c0.3-0.1,0.6-0.3,0.8-0.6c0.2-0.2,0.4-0.5,0.5-0.8c0.1-0.3,0.2-0.6,0.2-1v0c0-0.4-0.1-0.7-0.2-1c-0.1-0.3-0.3-0.6-0.5-0.8
					c-0.2-0.2-0.5-0.4-0.8-0.6s-0.6-0.2-1-0.2c-0.4,0-0.7,0.1-1,0.2c-0.3,0.1-0.6,0.3-0.8,0.6c-0.2,0.2-0.4,0.5-0.5,0.8
					c-0.1,0.3-0.2,0.6-0.2,1v0c0,0.4,0.1,0.7,0.2,1c0.1,0.3,0.3,0.6,0.5,0.8c0.2,0.2,0.5,0.4,0.8,0.6
					C325.5,287.7,325.8,287.8,326.2,287.8z"/>
			</g>
		</g>
	</g>
	<rect x="0.1" y="340.3" class="st2" width="396.9" height="56.7"/>
	<g>
		<path d="M183.3,359.1v-12.1h2.5v10.5h2.8v1.7H183.3z"/>
		<path d="M193.1,359.2c-0.7,0-1.2-0.1-1.7-0.3c-0.5-0.2-0.8-0.4-1.1-0.8c-0.3-0.4-0.5-0.8-0.6-1.2c-0.1-0.5-0.2-1-0.2-1.7v-4.5
			c0-0.6,0.1-1.2,0.2-1.7c0.1-0.5,0.3-0.9,0.6-1.2s0.6-0.6,1.1-0.8s1-0.3,1.7-0.3c1.3,0,2.2,0.3,2.8,1c0.6,0.7,0.8,1.7,0.8,3v4.5
			c0,1.3-0.3,2.3-0.8,3C195.3,358.9,194.4,359.2,193.1,359.2z M192.6,357.4c0.1,0.1,0.3,0.1,0.5,0.1s0.3,0,0.5-0.1
			c0.1-0.1,0.2-0.1,0.3-0.2c0.1-0.1,0.1-0.2,0.2-0.4s0.1-0.3,0.1-0.4c0-0.1,0-0.3,0-0.5v-5.7c0-0.2,0-0.4,0-0.5c0-0.1,0-0.3-0.1-0.4
			s-0.1-0.3-0.2-0.4c-0.1-0.1-0.2-0.2-0.3-0.2c-0.1-0.1-0.3-0.1-0.5-0.1s-0.3,0-0.5,0.1s-0.2,0.1-0.3,0.2c-0.1,0.1-0.1,0.2-0.2,0.4
			c0,0.1-0.1,0.3-0.1,0.4s0,0.3,0,0.5v5.7c0,0.2,0,0.4,0,0.5c0,0.1,0,0.3,0.1,0.4c0,0.2,0.1,0.3,0.2,0.4
			C192.4,357.2,192.5,357.3,192.6,357.4z"/>
		<path d="M201.4,359.2c-0.6,0-1.1-0.1-1.5-0.3c-0.4-0.2-0.8-0.5-1-0.9s-0.4-0.8-0.6-1.3c-0.1-0.5-0.2-1.1-0.2-1.7v-4
			c0-0.5,0-1,0.1-1.5c0.1-0.4,0.2-0.8,0.4-1.2c0.2-0.4,0.4-0.7,0.7-0.9c0.3-0.2,0.6-0.4,1-0.5c0.4-0.1,0.9-0.2,1.4-0.2
			c0.6,0,1.2,0.1,1.6,0.2c0.5,0.2,0.8,0.4,1.1,0.7c0.3,0.3,0.5,0.7,0.6,1.1c0.1,0.4,0.2,0.9,0.2,1.5v0.7h-2.4v-0.8
			c0-0.2,0-0.4,0-0.5c0-0.1,0-0.3-0.1-0.4c0-0.2-0.1-0.3-0.2-0.4c-0.1-0.1-0.2-0.2-0.3-0.2c-0.1-0.1-0.3-0.1-0.5-0.1
			c-0.2,0-0.4,0-0.5,0.1c-0.1,0.1-0.2,0.2-0.3,0.3c-0.1,0.1-0.1,0.2-0.2,0.4c0,0.2-0.1,0.3-0.1,0.5s0,0.3,0,0.6v5.3
			c0,0.6,0.1,1,0.2,1.3c0.2,0.3,0.5,0.5,0.9,0.5c0.4,0,0.8-0.2,0.9-0.5c0.2-0.3,0.3-0.8,0.3-1.4v-1.2h-1.2v-1.5h3.4v6.2h-1.6
			l-0.2-1.1C203,358.8,202.4,359.2,201.4,359.2z"/>
		<path d="M210.3,359.2c-0.7,0-1.2-0.1-1.7-0.3c-0.5-0.2-0.8-0.4-1.1-0.8c-0.3-0.4-0.5-0.8-0.6-1.2c-0.1-0.5-0.2-1-0.2-1.7v-4.5
			c0-0.6,0.1-1.2,0.2-1.7c0.1-0.5,0.3-0.9,0.6-1.2c0.3-0.3,0.6-0.6,1.1-0.8c0.5-0.2,1-0.3,1.7-0.3c1.3,0,2.2,0.3,2.8,1
			c0.6,0.7,0.8,1.7,0.8,3v4.5c0,1.3-0.3,2.3-0.8,3C212.5,358.9,211.5,359.2,210.3,359.2z M209.8,357.4c0.1,0.1,0.3,0.1,0.5,0.1
			s0.3,0,0.5-0.1c0.1-0.1,0.2-0.1,0.3-0.2c0.1-0.1,0.1-0.2,0.2-0.4s0.1-0.3,0.1-0.4c0-0.1,0-0.3,0-0.5v-5.7c0-0.2,0-0.4,0-0.5
			c0-0.1,0-0.3-0.1-0.4s-0.1-0.3-0.2-0.4c-0.1-0.1-0.2-0.2-0.3-0.2c-0.1-0.1-0.3-0.1-0.5-0.1s-0.3,0-0.5,0.1s-0.2,0.1-0.3,0.2
			c-0.1,0.1-0.1,0.2-0.2,0.4c0,0.1-0.1,0.3-0.1,0.4c0,0.1,0,0.3,0,0.5v5.7c0,0.2,0,0.4,0,0.5c0,0.1,0,0.3,0.1,0.4
			c0,0.2,0.1,0.3,0.2,0.4C209.5,357.2,209.6,357.3,209.8,357.4z"/>
		<path d="M171,374.6c-0.7,0-1.2-0.1-1.7-0.3c-0.5-0.2-0.8-0.4-1.1-0.8c-0.3-0.4-0.5-0.8-0.6-1.2c-0.1-0.5-0.2-1-0.2-1.7v-4.5
			c0-0.6,0.1-1.2,0.2-1.7c0.1-0.5,0.3-0.9,0.6-1.2s0.6-0.6,1.1-0.8s1-0.3,1.7-0.3c1.3,0,2.2,0.3,2.8,1c0.6,0.7,0.8,1.7,0.8,3v4.5
			c0,1.3-0.3,2.3-0.8,3C173.2,374.3,172.3,374.6,171,374.6z M170.6,372.8c0.1,0.1,0.3,0.1,0.5,0.1s0.3,0,0.5-0.1
			c0.1-0.1,0.2-0.1,0.3-0.2c0.1-0.1,0.1-0.2,0.2-0.4s0.1-0.3,0.1-0.4c0-0.1,0-0.3,0-0.5v-5.7c0-0.2,0-0.4,0-0.5c0-0.1,0-0.3-0.1-0.4
			s-0.1-0.3-0.2-0.4c-0.1-0.1-0.2-0.2-0.3-0.2c-0.1-0.1-0.3-0.1-0.5-0.1s-0.3,0-0.5,0.1s-0.2,0.1-0.3,0.2c-0.1,0.1-0.1,0.2-0.2,0.4
			c0,0.1-0.1,0.3-0.1,0.4s0,0.3,0,0.5v5.7c0,0.2,0,0.4,0,0.5c0,0.1,0,0.3,0.1,0.4c0,0.2,0.1,0.3,0.2,0.4
			C170.3,372.6,170.4,372.7,170.6,372.8z"/>
		<path d="M180,374.5v-12.1h1.7l2.7,6.3v-6.3h2.1v12.1h-1.6l-2.7-6.7v6.7H180z"/>
		<path d="M191.7,374.6c-0.7,0-1.2-0.1-1.7-0.3c-0.5-0.2-0.8-0.4-1.1-0.8c-0.3-0.4-0.5-0.8-0.6-1.2c-0.1-0.5-0.2-1-0.2-1.7v-4.5
			c0-0.6,0.1-1.2,0.2-1.7c0.1-0.5,0.3-0.9,0.6-1.2s0.6-0.6,1.1-0.8s1-0.3,1.7-0.3c1.3,0,2.2,0.3,2.8,1c0.6,0.7,0.8,1.7,0.8,3v4.5
			c0,1.3-0.3,2.3-0.8,3C193.9,374.3,193,374.6,191.7,374.6z M191.2,372.8c0.1,0.1,0.3,0.1,0.5,0.1s0.3,0,0.5-0.1
			c0.1-0.1,0.2-0.1,0.3-0.2c0.1-0.1,0.1-0.2,0.2-0.4s0.1-0.3,0.1-0.4c0-0.1,0-0.3,0-0.5v-5.7c0-0.2,0-0.4,0-0.5c0-0.1,0-0.3-0.1-0.4
			s-0.1-0.3-0.2-0.4c-0.1-0.1-0.2-0.2-0.3-0.2c-0.1-0.1-0.3-0.1-0.5-0.1s-0.3,0-0.5,0.1s-0.2,0.1-0.3,0.2c-0.1,0.1-0.1,0.2-0.2,0.4
			c0,0.1-0.1,0.3-0.1,0.4s0,0.3,0,0.5v5.7c0,0.2,0,0.4,0,0.5c0,0.1,0,0.3,0.1,0.4c0,0.2,0.1,0.3,0.2,0.4
			C191,372.6,191.1,372.7,191.2,372.8z"/>
		<path d="M196.9,374.5l0.2-12.1h2.6l1.5,7.7l1.6-7.7h2.5l0.2,12.1h-1.8l-0.2-8.2l-1.6,8.2h-1.5l-1.6-8.2l-0.2,8.2H196.9z"/>
		<path d="M207.3,374.5v-12.1h3.1c0.4,0,0.9,0,1.2,0.1c0.4,0.1,0.7,0.1,1,0.3c0.3,0.1,0.6,0.3,0.8,0.6c0.2,0.2,0.4,0.5,0.5,0.9
			c0.1,0.4,0.2,0.8,0.2,1.3c0,0,0,0,0,0.1c0,1.5-0.6,2.3-1.8,2.5c1.4,0.2,2.1,1.2,2.1,3c0,0,0,0.1,0,0.1c0,1.1-0.3,2-0.9,2.6
			c-0.6,0.6-1.5,0.9-2.7,0.9H207.3z M209.8,367.2h0.6c0.6,0,1-0.1,1.3-0.4s0.3-0.7,0.3-1.3c0-0.6-0.1-1-0.4-1.2
			c-0.3-0.2-0.7-0.3-1.4-0.3h-0.4V367.2z M209.8,372.7h0.7c0.6,0,1.1-0.1,1.3-0.4c0.2-0.3,0.4-0.8,0.4-1.4c0-0.7-0.1-1.2-0.4-1.5
			c-0.3-0.3-0.7-0.5-1.3-0.5h-0.6V372.7z"/>
		<path d="M215.9,374.5v-12.1h3.1c0.6,0,1.2,0,1.7,0.2c0.5,0.1,0.9,0.3,1.2,0.5c0.4,0.2,0.6,0.6,0.8,1c0.2,0.4,0.3,0.9,0.3,1.6
			c0,0.8-0.1,1.4-0.3,1.9c-0.2,0.5-0.6,0.8-1.1,1.1l1.7,5.9h-2.5l-1.4-5.5h-0.9v5.5H215.9z M218.4,367.5h0.6c0.6,0,1-0.1,1.3-0.4
			c0.2-0.3,0.4-0.7,0.4-1.3c0-0.6-0.1-1-0.3-1.3c-0.2-0.3-0.6-0.4-1.2-0.4h-0.8V367.5z"/>
		<path d="M224.6,374.5v-12.1h5.3v1.7h-2.8v3.2h2.2v1.7h-2.2v3.8h2.8v1.7H224.6z"/>
		<path d="M165.2,389.9v-12.1h3.8c2.1,0,3.2,1.2,3.2,3.5c0,0.6-0.1,1.2-0.2,1.6c-0.2,0.4-0.4,0.8-0.7,1c-0.3,0.3-0.7,0.4-1.1,0.5
			c-0.4,0.1-0.8,0.2-1.4,0.2h-1.1v5.3H165.2z M167.7,382.8h0.8c0.5,0,0.9-0.1,1.1-0.4c0.2-0.2,0.3-0.7,0.3-1.3c0-0.3,0-0.6,0-0.8
			c0-0.2-0.1-0.4-0.2-0.5c-0.1-0.2-0.2-0.3-0.4-0.3s-0.4-0.1-0.7-0.1h-0.8V382.8z"/>
		<path d="M173.4,389.9v-12.1h3.1c0.6,0,1.2,0,1.7,0.2c0.5,0.1,0.9,0.3,1.2,0.5c0.4,0.2,0.6,0.6,0.8,1s0.3,0.9,0.3,1.6
			c0,0.8-0.1,1.4-0.3,1.9c-0.2,0.5-0.6,0.8-1.1,1.1l1.7,5.9h-2.5l-1.4-5.5h-0.9v5.5H173.4z M175.9,382.9h0.6c0.6,0,1-0.1,1.3-0.4
			c0.2-0.3,0.4-0.7,0.4-1.3c0-0.6-0.1-1-0.3-1.3c-0.2-0.3-0.6-0.4-1.2-0.4h-0.8V382.9z"/>
		<path d="M185.5,390c-0.7,0-1.2-0.1-1.7-0.3c-0.5-0.2-0.8-0.4-1.1-0.8c-0.3-0.4-0.5-0.8-0.6-1.2c-0.1-0.5-0.2-1-0.2-1.7v-4.5
			c0-0.6,0.1-1.2,0.2-1.7c0.1-0.5,0.3-0.9,0.6-1.2s0.6-0.6,1.1-0.8s1-0.3,1.7-0.3c1.3,0,2.2,0.3,2.8,1c0.6,0.7,0.8,1.7,0.8,3v4.5
			c0,1.3-0.3,2.3-0.8,3C187.7,389.7,186.8,390,185.5,390z M185,388.2c0.1,0.1,0.3,0.1,0.5,0.1s0.3,0,0.5-0.1
			c0.1-0.1,0.2-0.1,0.3-0.2c0.1-0.1,0.1-0.2,0.2-0.4s0.1-0.3,0.1-0.4c0-0.1,0-0.3,0-0.5v-5.7c0-0.2,0-0.4,0-0.5c0-0.1,0-0.3-0.1-0.4
			s-0.1-0.3-0.2-0.4c-0.1-0.1-0.2-0.2-0.3-0.2c-0.1-0.1-0.3-0.1-0.5-0.1s-0.3,0-0.5,0.1s-0.2,0.1-0.3,0.2c-0.1,0.1-0.1,0.2-0.2,0.4
			c0,0.1-0.1,0.3-0.1,0.4s0,0.3,0,0.5v5.7c0,0.2,0,0.4,0,0.5c0,0.1,0,0.3,0.1,0.4c0,0.2,0.1,0.3,0.2,0.4
			C184.8,388,184.9,388.1,185,388.2z"/>
		<path d="M190.7,389.9l0.2-12.1h2.6l1.5,7.7l1.6-7.7h2.5l0.2,12.1h-1.8l-0.2-8.2l-1.6,8.2h-1.5l-1.6-8.2l-0.2,8.2H190.7z"/>
		<path d="M204.5,390c-0.7,0-1.2-0.1-1.7-0.3c-0.5-0.2-0.8-0.4-1.1-0.8c-0.3-0.4-0.5-0.8-0.6-1.2c-0.1-0.5-0.2-1-0.2-1.7v-4.5
			c0-0.6,0.1-1.2,0.2-1.7c0.1-0.5,0.3-0.9,0.6-1.2c0.3-0.3,0.6-0.6,1.1-0.8c0.5-0.2,1-0.3,1.7-0.3c1.3,0,2.2,0.3,2.8,1
			c0.6,0.7,0.8,1.7,0.8,3v4.5c0,1.3-0.3,2.3-0.8,3C206.7,389.7,205.8,390,204.5,390z M204,388.2c0.1,0.1,0.3,0.1,0.5,0.1
			s0.3,0,0.5-0.1c0.1-0.1,0.2-0.1,0.3-0.2c0.1-0.1,0.1-0.2,0.2-0.4s0.1-0.3,0.1-0.4c0-0.1,0-0.3,0-0.5v-5.7c0-0.2,0-0.4,0-0.5
			c0-0.1,0-0.3-0.1-0.4s-0.1-0.3-0.2-0.4c-0.1-0.1-0.2-0.2-0.3-0.2c-0.1-0.1-0.3-0.1-0.5-0.1s-0.3,0-0.5,0.1s-0.2,0.1-0.3,0.2
			c-0.1,0.1-0.1,0.2-0.2,0.4c0,0.1-0.1,0.3-0.1,0.4c0,0.1,0,0.3,0,0.5v5.7c0,0.2,0,0.4,0,0.5c0,0.1,0,0.3,0.1,0.4
			c0,0.2,0.1,0.3,0.2,0.4C203.8,388,203.9,388.1,204,388.2z"/>
		<path d="M210.9,389.9v-10.3h-1.9v-1.8h6.3v1.8h-1.9v10.3H210.9z"/>
		<path d="M219.7,390c-0.7,0-1.2-0.1-1.7-0.3c-0.5-0.2-0.8-0.4-1.1-0.8c-0.3-0.4-0.5-0.8-0.6-1.2c-0.1-0.5-0.2-1-0.2-1.7v-4.5
			c0-0.6,0.1-1.2,0.2-1.7c0.1-0.5,0.3-0.9,0.6-1.2c0.3-0.3,0.6-0.6,1.1-0.8c0.5-0.2,1-0.3,1.7-0.3c1.3,0,2.2,0.3,2.8,1
			c0.6,0.7,0.8,1.7,0.8,3v4.5c0,1.3-0.3,2.3-0.8,3C221.9,389.7,221,390,219.7,390z M219.2,388.2c0.1,0.1,0.3,0.1,0.5,0.1
			s0.3,0,0.5-0.1c0.1-0.1,0.2-0.1,0.3-0.2c0.1-0.1,0.1-0.2,0.2-0.4s0.1-0.3,0.1-0.4c0-0.1,0-0.3,0-0.5v-5.7c0-0.2,0-0.4,0-0.5
			c0-0.1,0-0.3-0.1-0.4s-0.1-0.3-0.2-0.4c-0.1-0.1-0.2-0.2-0.3-0.2c-0.1-0.1-0.3-0.1-0.5-0.1s-0.3,0-0.5,0.1s-0.2,0.1-0.3,0.2
			c-0.1,0.1-0.1,0.2-0.2,0.4c0,0.1-0.1,0.3-0.1,0.4c0,0.1,0,0.3,0,0.5v5.7c0,0.2,0,0.4,0,0.5c0,0.1,0,0.3,0.1,0.4
			c0,0.2,0.1,0.3,0.2,0.4C219,388,219.1,388.1,219.2,388.2z"/>
		<path d="M224.9,389.9v-12.1h3.1c0.6,0,1.2,0,1.7,0.2c0.5,0.1,0.9,0.3,1.2,0.5c0.4,0.2,0.6,0.6,0.8,1c0.2,0.4,0.3,0.9,0.3,1.6
			c0,0.8-0.1,1.4-0.3,1.9c-0.2,0.5-0.6,0.8-1.1,1.1l1.7,5.9h-2.5l-1.4-5.5h-0.9v5.5H224.9z M227.4,382.9h0.6c0.6,0,1-0.1,1.3-0.4
			c0.2-0.3,0.4-0.7,0.4-1.3c0-0.6-0.1-1-0.3-1.3c-0.2-0.3-0.6-0.4-1.2-0.4h-0.8V382.9z"/>
	</g>
</g>
</svg>
