<?xml version="1.0" encoding="utf-8"?>
<!-- Generator: Adobe Illustrator 22.0.0, SVG Export Plug-In . SVG Version: 6.00 Build 0)  -->
<svg version="1.1" id="Capa_1" xmlns="http://www.w3.org/2000/svg" xmlns:xlink="http://www.w3.org/1999/xlink" x="0px" y="0px"
	 viewBox="0 0 396.9 396.9" style="enable-background:new 0 0 396.9 396.9;" xml:space="preserve">
<style type="text/css">
	.st0{fill:#FFFFFF;}
	.st1{fill:#B4B3B4;}
	.st2{fill:#DE271D;}
</style>
<g>
	<g>
		<rect x="-0.5" y="-0.5" class="st0" width="397.9" height="397.9"/>
		<path d="M396.9,0v396.9H0V0H396.9 M397.9-1h-1H0h-1v1v396.9v1h1h396.9h1v-1V0V-1L397.9-1z"/>
	</g>
	<rect y="340.2" class="st1" width="396.9" height="56.7"/>
	<g>
		<path d="M183.6,357.4v-10.1h1.9v8.6h3.5v1.5H183.6z"/>
		<path d="M190.3,351.5c0-0.8,0.1-1.4,0.1-1.9c0.1-0.5,0.2-0.9,0.4-1.3s0.5-0.7,1-0.9c0.4-0.2,1-0.3,1.8-0.3s1.3,0.1,1.8,0.3
			c0.4,0.2,0.8,0.5,1,0.9s0.4,0.8,0.4,1.3c0.1,0.5,0.1,1.1,0.1,1.9v1.4c0,0.8,0,1.5-0.1,2c-0.1,0.5-0.2,1-0.4,1.4
			c-0.2,0.4-0.5,0.7-1,0.9c-0.4,0.2-1,0.3-1.8,0.3s-1.3-0.1-1.8-0.3c-0.4-0.2-0.8-0.5-1-0.9c-0.2-0.4-0.4-0.9-0.4-1.4
			c-0.1-0.5-0.1-1.2-0.1-2V351.5z M192.2,353.9c0,0.3,0,0.5,0,0.8s0.1,0.5,0.2,0.7c0.1,0.2,0.2,0.4,0.4,0.5c0.2,0.1,0.4,0.2,0.7,0.2
			c0.3,0,0.6-0.1,0.8-0.2c0.2-0.1,0.3-0.3,0.4-0.6c0.1-0.2,0.1-0.5,0.2-0.7c0-0.2,0-0.5,0-0.9v-2.6c0-0.3,0-0.7,0-0.9
			s-0.1-0.5-0.2-0.8s-0.2-0.5-0.4-0.6c-0.2-0.2-0.4-0.3-0.8-0.3c-0.3,0-0.6,0.1-0.7,0.2c-0.2,0.1-0.3,0.3-0.4,0.6
			c-0.1,0.2-0.1,0.5-0.2,0.8s0,0.6,0,1V353.9z"/>
		<path d="M198.4,351.5c0-0.8,0.1-1.4,0.1-1.9c0.1-0.5,0.2-0.9,0.4-1.3s0.5-0.7,1-0.9c0.4-0.2,1-0.3,1.8-0.3c0.9,0,1.6,0.2,2.1,0.5
			s0.9,0.9,1.1,1.7c0.1,0.2,0.1,0.5,0.1,1c0,0.1,0,0.2,0,0.2h-1.9c0-0.3,0-0.6-0.1-0.8c0-0.2-0.1-0.4-0.2-0.6s-0.2-0.3-0.4-0.4
			c-0.2-0.1-0.4-0.2-0.7-0.2c-0.3,0-0.5,0.1-0.7,0.2c-0.2,0.1-0.3,0.3-0.4,0.6c-0.1,0.2-0.1,0.5-0.2,0.8c0,0.3,0,0.6,0,1v2.8
			c0,0.3,0,0.5,0,0.8c0,0.2,0.1,0.5,0.2,0.7c0.1,0.2,0.2,0.4,0.4,0.5c0.2,0.1,0.4,0.2,0.7,0.2c0.5,0,0.8-0.2,1.1-0.7
			c0.2-0.5,0.3-1.1,0.3-2h-1.3V352h3.1v5.4h-1.4v-1.2h0c-0.2,0.5-0.4,0.8-0.7,1c-0.3,0.2-0.7,0.3-1.1,0.4c-0.7,0-1.3-0.1-1.8-0.3
			c-0.4-0.2-0.8-0.5-1-0.9s-0.4-0.9-0.4-1.4c-0.1-0.5-0.1-1.2-0.1-2V351.5z"/>
		<path d="M206.7,351.5c0-0.8,0.1-1.4,0.1-1.9c0.1-0.5,0.2-0.9,0.4-1.3s0.5-0.7,1-0.9c0.4-0.2,1-0.3,1.8-0.3s1.3,0.1,1.8,0.3
			c0.4,0.2,0.8,0.5,1,0.9s0.4,0.8,0.4,1.3c0.1,0.5,0.1,1.1,0.1,1.9v1.4c0,0.8,0,1.5-0.1,2c-0.1,0.5-0.2,1-0.4,1.4s-0.5,0.7-1,0.9
			c-0.4,0.2-1,0.3-1.8,0.3s-1.3-0.1-1.8-0.3c-0.4-0.2-0.8-0.5-1-0.9s-0.4-0.9-0.4-1.4c-0.1-0.5-0.1-1.2-0.1-2V351.5z M208.7,353.9
			c0,0.3,0,0.5,0,0.8s0.1,0.5,0.2,0.7c0.1,0.2,0.2,0.4,0.4,0.5c0.2,0.1,0.4,0.2,0.7,0.2c0.3,0,0.6-0.1,0.8-0.2
			c0.2-0.1,0.3-0.3,0.4-0.6c0.1-0.2,0.1-0.5,0.2-0.7c0-0.2,0-0.5,0-0.9v-2.6c0-0.3,0-0.7,0-0.9s-0.1-0.5-0.2-0.8
			c-0.1-0.3-0.2-0.5-0.4-0.6s-0.4-0.3-0.8-0.3c-0.3,0-0.5,0.1-0.7,0.2c-0.2,0.1-0.3,0.3-0.4,0.6s-0.1,0.5-0.2,0.8s0,0.6,0,1V353.9z"
			/>
		<path d="M168.7,366.9c0-0.8,0.1-1.4,0.1-1.9c0.1-0.5,0.2-0.9,0.4-1.3s0.5-0.7,1-0.9c0.4-0.2,1-0.3,1.8-0.3s1.3,0.1,1.8,0.3
			c0.4,0.2,0.8,0.5,1,0.9s0.4,0.8,0.4,1.3c0.1,0.5,0.1,1.1,0.1,1.9v1.4c0,0.8,0,1.5-0.1,2c-0.1,0.5-0.2,1-0.4,1.4
			c-0.2,0.4-0.5,0.7-1,0.9c-0.4,0.2-1,0.3-1.8,0.3s-1.3-0.1-1.8-0.3c-0.4-0.2-0.8-0.5-1-0.9c-0.2-0.4-0.4-0.9-0.4-1.4
			c-0.1-0.5-0.1-1.2-0.1-2V366.9z M170.7,369.3c0,0.3,0,0.5,0,0.8s0.1,0.5,0.2,0.7c0.1,0.2,0.2,0.4,0.4,0.5c0.2,0.1,0.4,0.2,0.7,0.2
			c0.3,0,0.6-0.1,0.8-0.2c0.2-0.1,0.3-0.3,0.4-0.6c0.1-0.2,0.1-0.5,0.2-0.7c0-0.2,0-0.5,0-0.9v-2.6c0-0.3,0-0.7,0-0.9
			s-0.1-0.5-0.2-0.8s-0.2-0.5-0.4-0.6c-0.2-0.2-0.4-0.3-0.8-0.3c-0.3,0-0.6,0.1-0.7,0.2c-0.2,0.1-0.3,0.3-0.4,0.6
			c-0.1,0.2-0.1,0.5-0.2,0.8s0,0.6,0,1V369.3z"/>
		<path d="M185,362.7h1.9v10.1h-2l-1.5-3.6c-0.2-0.6-0.5-1.2-0.7-1.8c-0.2-0.6-0.4-1.4-0.7-2.2h0c0,0.6,0.1,1.1,0.1,1.6
			c0,0.4,0.1,0.9,0.1,1.3c0,0.6,0.1,1.1,0.1,1.6c0,0.5,0,0.9,0,1.2v1.9h-1.9v-10.1h2l1.5,3.7c0.3,0.6,0.5,1.2,0.7,1.9
			c0.2,0.6,0.4,1.4,0.7,2.2h0c-0.1-1.1-0.1-2-0.2-2.9c-0.1-1.1-0.1-2.1-0.1-2.8V362.7z"/>
		<path d="M188.6,366.9c0-0.8,0.1-1.4,0.1-1.9c0.1-0.5,0.2-0.9,0.4-1.3s0.5-0.7,1-0.9c0.4-0.2,1-0.3,1.8-0.3s1.3,0.1,1.8,0.3
			c0.4,0.2,0.8,0.5,1,0.9s0.4,0.8,0.4,1.3c0.1,0.5,0.1,1.1,0.1,1.9v1.4c0,0.8,0,1.5-0.1,2c-0.1,0.5-0.2,1-0.4,1.4
			c-0.2,0.4-0.5,0.7-1,0.9c-0.4,0.2-1,0.3-1.8,0.3s-1.3-0.1-1.8-0.3c-0.4-0.2-0.8-0.5-1-0.9c-0.2-0.4-0.4-0.9-0.4-1.4
			c-0.1-0.5-0.1-1.2-0.1-2V366.9z M190.5,369.3c0,0.3,0,0.5,0,0.8s0.1,0.5,0.2,0.7c0.1,0.2,0.2,0.4,0.4,0.5c0.2,0.1,0.4,0.2,0.7,0.2
			c0.3,0,0.6-0.1,0.8-0.2c0.2-0.1,0.3-0.3,0.4-0.6c0.1-0.2,0.1-0.5,0.2-0.7c0-0.2,0-0.5,0-0.9v-2.6c0-0.3,0-0.7,0-0.9
			s-0.1-0.5-0.2-0.8s-0.2-0.5-0.4-0.6c-0.2-0.2-0.4-0.3-0.8-0.3c-0.3,0-0.6,0.1-0.7,0.2c-0.2,0.1-0.3,0.3-0.4,0.6
			c-0.1,0.2-0.1,0.5-0.2,0.8s0,0.6,0,1V369.3z"/>
		<path d="M198.8,372.8h-1.9v-10.1h3l1,4.7c0.1,0.7,0.3,1.5,0.4,2.3h0c0.1-0.6,0.1-1.1,0.1-1.4c0-0.3,0.1-0.6,0.2-0.9l1-4.7h3v10.1
			h-1.9v-3.2c0-2.2,0.1-4.2,0.2-6h0l-2,9.2h-1.1l-2-9.2h-0.1c0.1,1.8,0.2,3.8,0.2,6V372.8z"/>
		<path d="M207.3,372.8v-10.1h3c0.5,0,0.9,0,1.3,0.1c0.3,0.1,0.6,0.3,0.9,0.6c0.2,0.3,0.3,0.5,0.4,0.8c0.1,0.3,0.1,0.6,0.1,1
			c0,0.5-0.1,1-0.3,1.3c-0.2,0.4-0.5,0.6-1,0.8v0c0.5,0.1,0.9,0.3,1.1,0.7s0.4,0.9,0.4,1.6c0,0.5,0,0.9-0.1,1.2
			c-0.2,0.6-0.5,1.1-0.9,1.4c-0.4,0.3-0.9,0.4-1.6,0.4H207.3z M209.6,366.8c0.4,0,0.7,0,0.9-0.1c0.2,0,0.4-0.1,0.5-0.3
			c0.1-0.2,0.2-0.6,0.2-1.1c0-0.4-0.1-0.7-0.2-0.9s-0.4-0.3-0.8-0.3h-0.9v2.6H209.6z M209.6,371.3c0.4,0,0.6,0,0.7,0
			c0.1,0,0.3,0,0.4-0.1c0.2-0.1,0.4-0.3,0.5-0.5c0.1-0.3,0.1-0.5,0.1-0.9c0-0.6-0.1-1-0.3-1.2c-0.2-0.2-0.6-0.3-1.1-0.3h-0.7v3.1
			H209.6z"/>
		<path d="M216.7,368.4v4.4h-1.9v-10.1h3.6c0.4,0,0.8,0,1.2,0.1c0.3,0.1,0.6,0.2,0.9,0.4s0.5,0.4,0.6,0.8c0.1,0.3,0.2,0.7,0.2,1.1
			c0,0.3,0,0.6-0.1,0.9c0,0.3-0.1,0.5-0.2,0.7c-0.1,0.2-0.3,0.4-0.5,0.6s-0.5,0.2-0.8,0.3v0c0.5,0.1,0.9,0.3,1.1,0.6
			c0.2,0.3,0.3,0.7,0.3,1.3c0,0.4,0,0.8,0,1.1c0,0.3,0,0.6,0.1,0.9c0,0.3,0.1,0.6,0.1,0.8c0.1,0.2,0.1,0.3,0.2,0.4v0.2h-2.1
			c-0.1-0.2-0.1-0.5-0.2-0.9c0-0.4,0-0.8,0-1.3c0-0.2,0-0.4,0-0.4v-0.1c0-0.2,0-0.4,0-0.6c0-0.1,0-0.3-0.1-0.4
			c0-0.1-0.1-0.3-0.2-0.4s-0.2-0.2-0.4-0.2c-0.2-0.1-0.4-0.1-0.6-0.1s-0.6,0-1,0H216.7z M216.7,366.9h1.5c0.3,0,0.6-0.1,0.8-0.4
			c0.2-0.2,0.3-0.6,0.3-1.1c0-0.5-0.1-0.9-0.3-1.1c-0.2-0.2-0.5-0.3-0.9-0.3h-1.4V366.9z"/>
		<path d="M223.1,372.8v-10.1h5.3v1.5h-3.4v2.5h3.2v1.5h-3.2v3.1h3.4v1.5H223.1z"/>
		<path d="M166.4,388.2v-10.1h3.9c0.4,0,0.8,0.1,1.1,0.2c0.3,0.2,0.5,0.4,0.7,0.6c0.2,0.3,0.3,0.6,0.4,0.9c0.1,0.3,0.1,0.7,0.1,1.1
			c0,0.5-0.1,0.9-0.2,1.4c-0.1,0.4-0.4,0.8-0.7,1c-0.3,0.2-0.6,0.4-0.9,0.5c-0.4,0.1-0.7,0.1-1.2,0.1h-1.3v4.2H166.4z M168.3,382.5
			h1c0.4,0,0.8-0.1,1-0.4c0.2-0.2,0.4-0.6,0.4-1.2c0-0.5-0.1-0.9-0.3-1.1c-0.2-0.2-0.6-0.3-1.2-0.3h-0.9V382.5z"/>
		<path d="M175.8,383.8v4.4h-1.9v-10.1h3.6c0.4,0,0.8,0,1.2,0.1s0.6,0.2,0.9,0.4s0.5,0.4,0.6,0.8c0.1,0.3,0.2,0.7,0.2,1.1
			c0,0.3,0,0.6-0.1,0.9c0,0.3-0.1,0.5-0.2,0.7c-0.1,0.2-0.3,0.4-0.5,0.6s-0.5,0.2-0.8,0.3v0c0.5,0.1,0.9,0.3,1.1,0.6
			c0.2,0.3,0.3,0.7,0.3,1.3c0,0.4,0,0.8,0,1.1c0,0.3,0,0.6,0.1,0.9c0,0.3,0.1,0.6,0.1,0.8c0.1,0.2,0.1,0.3,0.2,0.4v0.2h-2.1
			c-0.1-0.2-0.1-0.5-0.2-0.9c0-0.4,0-0.8,0-1.3c0-0.2,0-0.4,0-0.4v-0.1c0-0.2,0-0.4,0-0.6c0-0.1,0-0.3-0.1-0.4
			c0-0.1-0.1-0.3-0.2-0.4s-0.2-0.2-0.4-0.2c-0.2-0.1-0.4-0.1-0.6-0.1c-0.2,0-0.6,0-1,0H175.8z M175.8,382.3h1.5
			c0.3,0,0.6-0.1,0.8-0.4c0.2-0.2,0.3-0.6,0.3-1.1c0-0.5-0.1-0.9-0.3-1.1c-0.2-0.2-0.5-0.3-0.9-0.3h-1.4V382.3z"/>
		<path d="M182,382.3c0-0.8,0.1-1.4,0.1-1.9c0.1-0.5,0.2-0.9,0.4-1.3s0.5-0.7,1-0.9c0.4-0.2,1-0.3,1.8-0.3s1.3,0.1,1.8,0.3
			c0.4,0.2,0.8,0.5,1,0.9s0.4,0.8,0.4,1.3c0.1,0.5,0.1,1.1,0.1,1.9v1.4c0,0.8,0,1.5-0.1,2c-0.1,0.5-0.2,1-0.4,1.4
			c-0.2,0.4-0.5,0.7-1,0.9c-0.4,0.2-1,0.3-1.8,0.3s-1.3-0.1-1.8-0.3c-0.4-0.2-0.8-0.5-1-0.9c-0.2-0.4-0.4-0.9-0.4-1.4
			c-0.1-0.5-0.1-1.2-0.1-2V382.3z M184,384.7c0,0.3,0,0.5,0,0.8s0.1,0.5,0.2,0.7c0.1,0.2,0.2,0.4,0.4,0.5c0.2,0.1,0.4,0.2,0.7,0.2
			c0.3,0,0.6-0.1,0.8-0.2c0.2-0.1,0.3-0.3,0.4-0.6c0.1-0.2,0.1-0.5,0.2-0.7c0-0.2,0-0.5,0-0.9V382c0-0.3,0-0.7,0-0.9
			s-0.1-0.5-0.2-0.8s-0.2-0.5-0.4-0.6c-0.2-0.2-0.4-0.3-0.8-0.3c-0.3,0-0.6,0.1-0.7,0.2c-0.2,0.1-0.3,0.3-0.4,0.6
			c-0.1,0.2-0.1,0.5-0.2,0.8s0,0.6,0,1V384.7z"/>
		<path d="M192.2,388.2h-1.9v-10.1h3l1,4.7c0.1,0.7,0.3,1.5,0.4,2.3h0c0.1-0.6,0.1-1.1,0.1-1.4c0-0.3,0.1-0.6,0.2-0.9l1-4.7h3v10.1
			h-1.9V385c0-2.2,0.1-4.2,0.2-6h0l-2,9.2h-1.1l-2-9.2h-0.1c0.1,1.8,0.2,3.8,0.2,6V388.2z"/>
		<path d="M200.7,382.3c0-0.8,0.1-1.4,0.1-1.9c0.1-0.5,0.2-0.9,0.4-1.3s0.5-0.7,1-0.9c0.4-0.2,1-0.3,1.8-0.3s1.3,0.1,1.8,0.3
			c0.4,0.2,0.8,0.5,1,0.9s0.4,0.8,0.4,1.3c0.1,0.5,0.1,1.1,0.1,1.9v1.4c0,0.8,0,1.5-0.1,2c-0.1,0.5-0.2,1-0.4,1.4s-0.5,0.7-1,0.9
			c-0.4,0.2-1,0.3-1.8,0.3s-1.3-0.1-1.8-0.3c-0.4-0.2-0.8-0.5-1-0.9s-0.4-0.9-0.4-1.4c-0.1-0.5-0.1-1.2-0.1-2V382.3z M202.7,384.7
			c0,0.3,0,0.5,0,0.8s0.1,0.5,0.2,0.7c0.1,0.2,0.2,0.4,0.4,0.5c0.2,0.1,0.4,0.2,0.7,0.2c0.3,0,0.6-0.1,0.8-0.2
			c0.2-0.1,0.3-0.3,0.4-0.6c0.1-0.2,0.1-0.5,0.2-0.7c0-0.2,0-0.5,0-0.9V382c0-0.3,0-0.7,0-0.9s-0.1-0.5-0.2-0.8
			c-0.1-0.3-0.2-0.5-0.4-0.6s-0.4-0.3-0.8-0.3c-0.3,0-0.5,0.1-0.7,0.2c-0.2,0.1-0.3,0.3-0.4,0.6s-0.1,0.5-0.2,0.8s0,0.6,0,1V384.7z"
			/>
		<path d="M208.4,378.1h6.3v1.5h-2.2v8.6h-1.9v-8.6h-2.2V378.1z"/>
		<path d="M215.7,382.3c0-0.8,0.1-1.4,0.1-1.9c0.1-0.5,0.2-0.9,0.4-1.3s0.5-0.7,1-0.9c0.4-0.2,1-0.3,1.8-0.3s1.3,0.1,1.8,0.3
			c0.4,0.2,0.8,0.5,1,0.9s0.4,0.8,0.4,1.3c0.1,0.5,0.1,1.1,0.1,1.9v1.4c0,0.8,0,1.5-0.1,2c-0.1,0.5-0.2,1-0.4,1.4s-0.5,0.7-1,0.9
			c-0.4,0.2-1,0.3-1.8,0.3s-1.3-0.1-1.8-0.3c-0.4-0.2-0.8-0.5-1-0.9s-0.4-0.9-0.4-1.4c-0.1-0.5-0.1-1.2-0.1-2V382.3z M217.7,384.7
			c0,0.3,0,0.5,0,0.8s0.1,0.5,0.2,0.7c0.1,0.2,0.2,0.4,0.4,0.5c0.2,0.1,0.4,0.2,0.7,0.2c0.3,0,0.6-0.1,0.8-0.2
			c0.2-0.1,0.3-0.3,0.4-0.6c0.1-0.2,0.1-0.5,0.2-0.7c0-0.2,0-0.5,0-0.9V382c0-0.3,0-0.7,0-0.9s-0.1-0.5-0.2-0.8
			c-0.1-0.3-0.2-0.5-0.4-0.6s-0.4-0.3-0.8-0.3c-0.3,0-0.5,0.1-0.7,0.2c-0.2,0.1-0.3,0.3-0.4,0.6s-0.1,0.5-0.2,0.8s0,0.6,0,1V384.7z"
			/>
		<path d="M225.9,383.8v4.4H224v-10.1h3.6c0.4,0,0.8,0,1.2,0.1c0.3,0.1,0.6,0.2,0.9,0.4s0.5,0.4,0.6,0.8c0.1,0.3,0.2,0.7,0.2,1.1
			c0,0.3,0,0.6-0.1,0.9c0,0.3-0.1,0.5-0.2,0.7c-0.1,0.2-0.3,0.4-0.5,0.6s-0.5,0.2-0.8,0.3v0c0.5,0.1,0.9,0.3,1.1,0.6
			c0.2,0.3,0.3,0.7,0.3,1.3c0,0.4,0,0.8,0,1.1c0,0.3,0,0.6,0.1,0.9c0,0.3,0.1,0.6,0.1,0.8c0.1,0.2,0.1,0.3,0.2,0.4v0.2h-2.1
			c-0.1-0.2-0.1-0.5-0.2-0.9c0-0.4,0-0.8,0-1.3c0-0.2,0-0.4,0-0.4v-0.1c0-0.2,0-0.4,0-0.6c0-0.1,0-0.3-0.1-0.4
			c0-0.1-0.1-0.3-0.2-0.4s-0.2-0.2-0.4-0.2c-0.2-0.1-0.4-0.1-0.6-0.1s-0.6,0-1,0H225.9z M225.9,382.3h1.5c0.3,0,0.6-0.1,0.8-0.4
			c0.2-0.2,0.3-0.6,0.3-1.1c0-0.5-0.1-0.9-0.3-1.1c-0.2-0.2-0.5-0.3-0.9-0.3h-1.4V382.3z"/>
	</g>
	<path class="st2" d="M227.8,119.7L209.1,103v12.8H190c-2.3-34.3-29.7-61.8-64.1-64V32.9l13,0l-18.2-18.7l-16.6,18.7h12.8l0,19.1
		c-34.3,2.3-61.8,29.7-64,64.1l-19.1,0v-13l-18.7,18.2l18.7,16.6V125l19.1,0c2.3,34.3,29.7,61.7,64,64v37.8h9V189
		c34.4-2.2,61.9-29.7,64.1-64.1h19.1v13L227.8,119.7z M121.5,165.5c-24.9,0-45-20.2-45-45c0-24.8,20.1-45,45-45h0.1
		c24.8,0,45,20.2,45,45C166.5,145.3,146.3,165.5,121.5,165.5z"/>
	<g>
		<path d="M262.1,207.7c-0.1-1.2-0.6-2.2-1.6-2.9s-2.3-1.1-3.8-1.1c-1.4,0-2.4,0.3-3.2,0.9s-1.2,1.4-1.2,2.5c0,0.8,0.4,1.4,1.2,1.8
			c0.8,0.4,2.5,0.9,5.1,1.5c3.8,0.8,6.3,1.8,7.5,2.9c1.3,1.1,1.9,2.8,1.9,5.3c0,2.4-1,4.4-2.9,5.8c-1.9,1.4-4.5,2.1-7.8,2.1
			c-3.3,0-5.8-0.8-7.7-2.3c-1.8-1.5-2.8-3.7-3-6.5h5.2c0.1,1.4,0.6,2.4,1.5,3.2c0.9,0.7,2.2,1.1,3.9,1.1c1.7,0,3.1-0.3,4-0.8
			c1-0.6,1.5-1.3,1.5-2.3c0-1-0.3-1.7-1-2.1c-0.7-0.5-2.1-0.9-4.4-1.4c-4.1-0.9-6.8-1.9-8.2-3c-1.4-1.1-2.1-2.7-2.1-4.9
			c0-2.5,0.9-4.5,2.7-6c1.8-1.5,4.3-2.2,7.4-2.2c2.9,0,5.2,0.8,7.1,2.3s2.8,3.6,3,6.2H262.1z"/>
		<path d="M279.2,200h3.1h3.1l9.1,25.8h-2.9h-2.9l-1.7-5.3h-9.8l-1.7,5.3h-2.8h-2.8L279.2,200z M278.8,216.1h6.9l-3.4-10.4h0
			L278.8,216.1z"/>
		<path d="M298.1,225.8V200h2.7h2.7v21.3h12.8v2.3v2.3H298.1z"/>
		<path d="M319.7,200h2.7h2.7v25.8h-2.7h-2.7V200z"/>
		<path d="M330.1,200h2.7h8.4c3.6,0,6.2,1,8.1,3.1s2.8,5.1,2.8,9.2c0,4.4-1,7.8-2.9,10.1s-4.7,3.5-8.4,3.5h-7.9h-2.7V200z
			 M335.5,221.4h4.6c2.2,0,3.8-0.7,4.9-2.2s1.6-3.7,1.6-6.7c0-2.7-0.5-4.7-1.5-6s-2.6-2-4.6-2h-5V221.4z"/>
		<path d="M363.2,200h3.1h3.1l9.1,25.8h-2.9h-2.9l-1.7-5.3h-9.8l-1.7,5.3h-2.8h-2.8L363.2,200z M362.8,216.1h6.9l-3.4-10.4h0
			L362.8,216.1z"/>
	</g>
</g>
</svg>
