<?xml version="1.0" encoding="utf-8"?>
<!-- Generator: Adobe Illustrator 22.0.0, SVG Export Plug-In . SVG Version: 6.00 Build 0)  -->
<svg version="1.1" id="Capa_1" xmlns="http://www.w3.org/2000/svg" xmlns:xlink="http://www.w3.org/1999/xlink" x="0px" y="0px"
	 viewBox="0 0 396.9 396.9" style="enable-background:new 0 0 396.9 396.9;" xml:space="preserve">
<style type="text/css">
	.st0{fill:#FFFFFF;}
	.st1{fill:#B4B3B4;}
	.st2{fill:#E2001A;}
</style>
<g>
	<g>
		<g>
			<path class="st0" d="M0,397.4c-0.3,0-0.5-0.2-0.5-0.5V0c0-0.3,0.2-0.5,0.5-0.5h396.9c0.3,0,0.5,0.2,0.5,0.5v396.9
				c0,0.3-0.2,0.5-0.5,0.5H0z"/>
			<path d="M396.9,0v396.9H0V0H396.9 M396.9-1H0c-0.6,0-1,0.4-1,1v396.9c0,0.6,0.4,1,1,1h396.9c0.6,0,1-0.4,1-1V0
				C397.9-0.6,397.4-1,396.9-1L396.9-1z"/>
		</g>
		<rect y="340.2" class="st1" width="396.9" height="56.7"/>
		<g>
			<path d="M183.6,357.4v-10.1h1.9v8.6h3.5v1.5H183.6z"/>
			<path d="M190.3,351.5c0-0.8,0.1-1.4,0.1-1.9c0.1-0.5,0.2-0.9,0.4-1.3s0.5-0.7,1-0.9c0.4-0.2,1-0.3,1.8-0.3s1.3,0.1,1.8,0.3
				c0.4,0.2,0.8,0.5,1,0.9s0.4,0.8,0.4,1.3c0.1,0.5,0.1,1.1,0.1,1.9v1.4c0,0.8,0,1.5-0.1,2s-0.2,1-0.4,1.4s-0.5,0.7-1,0.9
				c-0.4,0.2-1,0.3-1.8,0.3s-1.3-0.1-1.8-0.3c-0.4-0.2-0.8-0.5-1-0.9s-0.4-0.9-0.4-1.4c-0.1-0.5-0.1-1.2-0.1-2V351.5z M192.2,353.9
				c0,0.3,0,0.5,0,0.8s0.1,0.5,0.2,0.7c0.1,0.2,0.2,0.4,0.4,0.5s0.4,0.2,0.7,0.2s0.6-0.1,0.8-0.2s0.3-0.3,0.4-0.6
				c0.1-0.2,0.1-0.5,0.2-0.7c0-0.2,0-0.5,0-0.9v-2.6c0-0.3,0-0.7,0-0.9s-0.1-0.5-0.2-0.8s-0.2-0.5-0.4-0.6c-0.2-0.2-0.4-0.3-0.8-0.3
				c-0.3,0-0.6,0.1-0.7,0.2c-0.2,0.1-0.3,0.3-0.4,0.6c-0.1,0.2-0.1,0.5-0.2,0.8s0,0.6,0,1V353.9z"/>
			<path d="M198.4,351.5c0-0.8,0.1-1.4,0.1-1.9c0.1-0.5,0.2-0.9,0.4-1.3s0.5-0.7,1-0.9c0.4-0.2,1-0.3,1.8-0.3c0.9,0,1.6,0.2,2.1,0.5
				s0.9,0.9,1.1,1.7c0.1,0.2,0.1,0.5,0.1,1c0,0.1,0,0.2,0,0.2h-1.9c0-0.3,0-0.6-0.1-0.8c0-0.2-0.1-0.4-0.2-0.6s-0.2-0.3-0.4-0.4
				s-0.4-0.2-0.7-0.2s-0.5,0.1-0.7,0.2s-0.3,0.3-0.4,0.6c-0.1,0.2-0.1,0.5-0.2,0.8c0,0.3,0,0.6,0,1v2.8c0,0.3,0,0.5,0,0.8
				c0,0.2,0.1,0.5,0.2,0.7c0.1,0.2,0.2,0.4,0.4,0.5s0.4,0.2,0.7,0.2c0.5,0,0.8-0.2,1.1-0.7c0.2-0.5,0.3-1.1,0.3-2h-1.3V352h3.1v5.4
				h-1.4v-1.2l0,0c-0.2,0.5-0.4,0.8-0.7,1s-0.7,0.3-1.1,0.4c-0.7,0-1.3-0.1-1.8-0.3c-0.4-0.2-0.8-0.5-1-0.9s-0.4-0.9-0.4-1.4
				c-0.1-0.5-0.1-1.2-0.1-2L198.4,351.5L198.4,351.5z"/>
			<path d="M206.7,351.5c0-0.8,0.1-1.4,0.1-1.9c0.1-0.5,0.2-0.9,0.4-1.3s0.5-0.7,1-0.9c0.4-0.2,1-0.3,1.8-0.3s1.3,0.1,1.8,0.3
				c0.4,0.2,0.8,0.5,1,0.9s0.4,0.8,0.4,1.3c0.1,0.5,0.1,1.1,0.1,1.9v1.4c0,0.8,0,1.5-0.1,2s-0.2,1-0.4,1.4s-0.5,0.7-1,0.9
				c-0.4,0.2-1,0.3-1.8,0.3s-1.3-0.1-1.8-0.3c-0.4-0.2-0.8-0.5-1-0.9s-0.4-0.9-0.4-1.4c-0.1-0.5-0.1-1.2-0.1-2V351.5z M208.7,353.9
				c0,0.3,0,0.5,0,0.8s0.1,0.5,0.2,0.7c0.1,0.2,0.2,0.4,0.4,0.5s0.4,0.2,0.7,0.2s0.6-0.1,0.8-0.2s0.3-0.3,0.4-0.6
				c0.1-0.2,0.1-0.5,0.2-0.7c0-0.2,0-0.5,0-0.9v-2.6c0-0.3,0-0.7,0-0.9s-0.1-0.5-0.2-0.8c-0.1-0.3-0.2-0.5-0.4-0.6s-0.4-0.3-0.8-0.3
				c-0.3,0-0.5,0.1-0.7,0.2s-0.3,0.3-0.4,0.6s-0.1,0.5-0.2,0.8s0,0.6,0,1V353.9z"/>
			<path d="M168.7,366.9c0-0.8,0.1-1.4,0.1-1.9c0.1-0.5,0.2-0.9,0.4-1.3s0.5-0.7,1-0.9c0.4-0.2,1-0.3,1.8-0.3s1.3,0.1,1.8,0.3
				c0.4,0.2,0.8,0.5,1,0.9s0.4,0.8,0.4,1.3c0.1,0.5,0.1,1.1,0.1,1.9v1.4c0,0.8,0,1.5-0.1,2s-0.2,1-0.4,1.4s-0.5,0.7-1,0.9
				c-0.4,0.2-1,0.3-1.8,0.3s-1.3-0.1-1.8-0.3c-0.4-0.2-0.8-0.5-1-0.9s-0.4-0.9-0.4-1.4c-0.1-0.5-0.1-1.2-0.1-2V366.9z M170.7,369.3
				c0,0.3,0,0.5,0,0.8s0.1,0.5,0.2,0.7c0.1,0.2,0.2,0.4,0.4,0.5s0.4,0.2,0.7,0.2s0.6-0.1,0.8-0.2s0.3-0.3,0.4-0.6
				c0.1-0.2,0.1-0.5,0.2-0.7c0-0.2,0-0.5,0-0.9v-2.6c0-0.3,0-0.7,0-0.9s-0.1-0.5-0.2-0.8s-0.2-0.5-0.4-0.6c-0.2-0.2-0.4-0.3-0.8-0.3
				c-0.3,0-0.6,0.1-0.7,0.2c-0.2,0.1-0.3,0.3-0.4,0.6c-0.1,0.2-0.1,0.5-0.2,0.8s0,0.6,0,1V369.3z"/>
			<path d="M185,362.7h1.9v10.1h-2l-1.5-3.6c-0.2-0.6-0.5-1.2-0.7-1.8c-0.2-0.6-0.4-1.4-0.7-2.2l0,0c0,0.6,0.1,1.1,0.1,1.6
				c0,0.4,0.1,0.9,0.1,1.3c0,0.6,0.1,1.1,0.1,1.6s0,0.9,0,1.2v1.9h-1.9v-10.1h2l1.5,3.7c0.3,0.6,0.5,1.2,0.7,1.9
				c0.2,0.6,0.4,1.4,0.7,2.2l0,0c-0.1-1.1-0.1-2-0.2-2.9c-0.1-1.1-0.1-2.1-0.1-2.8L185,362.7L185,362.7z"/>
			<path d="M188.6,366.9c0-0.8,0.1-1.4,0.1-1.9c0.1-0.5,0.2-0.9,0.4-1.3s0.5-0.7,1-0.9c0.4-0.2,1-0.3,1.8-0.3s1.3,0.1,1.8,0.3
				c0.4,0.2,0.8,0.5,1,0.9s0.4,0.8,0.4,1.3c0.1,0.5,0.1,1.1,0.1,1.9v1.4c0,0.8,0,1.5-0.1,2s-0.2,1-0.4,1.4s-0.5,0.7-1,0.9
				c-0.4,0.2-1,0.3-1.8,0.3s-1.3-0.1-1.8-0.3c-0.4-0.2-0.8-0.5-1-0.9s-0.4-0.9-0.4-1.4c-0.1-0.5-0.1-1.2-0.1-2V366.9z M190.5,369.3
				c0,0.3,0,0.5,0,0.8s0.1,0.5,0.2,0.7c0.1,0.2,0.2,0.4,0.4,0.5s0.4,0.2,0.7,0.2s0.6-0.1,0.8-0.2s0.3-0.3,0.4-0.6
				c0.1-0.2,0.1-0.5,0.2-0.7c0-0.2,0-0.5,0-0.9v-2.6c0-0.3,0-0.7,0-0.9s-0.1-0.5-0.2-0.8s-0.2-0.5-0.4-0.6c-0.2-0.2-0.4-0.3-0.8-0.3
				c-0.3,0-0.6,0.1-0.7,0.2c-0.2,0.1-0.3,0.3-0.4,0.6c-0.1,0.2-0.1,0.5-0.2,0.8s0,0.6,0,1V369.3z"/>
			<path d="M198.8,372.8h-1.9v-10.1h3l1,4.7c0.1,0.7,0.3,1.5,0.4,2.3l0,0c0.1-0.6,0.1-1.1,0.1-1.4s0.1-0.6,0.2-0.9l1-4.7h3v10.1
				h-1.9v-3.2c0-2.2,0.1-4.2,0.2-6l0,0l-2,9.2h-1.1l-2-9.2h-0.1c0.1,1.8,0.2,3.8,0.2,6L198.8,372.8L198.8,372.8z"/>
			<path d="M207.3,372.8v-10.1h3c0.5,0,0.9,0,1.3,0.1c0.3,0.1,0.6,0.3,0.9,0.6c0.2,0.3,0.3,0.5,0.4,0.8c0.1,0.3,0.1,0.6,0.1,1
				c0,0.5-0.1,1-0.3,1.3c-0.2,0.4-0.5,0.6-1,0.8l0,0c0.5,0.1,0.9,0.3,1.1,0.7s0.4,0.9,0.4,1.6c0,0.5,0,0.9-0.1,1.2
				c-0.2,0.6-0.5,1.1-0.9,1.4s-0.9,0.4-1.6,0.4h-3.3V372.8z M209.6,366.8c0.4,0,0.7,0,0.9-0.1c0.2,0,0.4-0.1,0.5-0.3
				c0.1-0.2,0.2-0.6,0.2-1.1c0-0.4-0.1-0.7-0.2-0.9s-0.4-0.3-0.8-0.3h-0.9v2.6L209.6,366.8L209.6,366.8z M209.6,371.3
				c0.4,0,0.6,0,0.7,0c0.1,0,0.3,0,0.4-0.1c0.2-0.1,0.4-0.3,0.5-0.5c0.1-0.3,0.1-0.5,0.1-0.9c0-0.6-0.1-1-0.3-1.2s-0.6-0.3-1.1-0.3
				h-0.7v3.1h0.4V371.3z"/>
			<path d="M216.7,368.4v4.4h-1.9v-10.1h3.6c0.4,0,0.8,0,1.2,0.1c0.3,0.1,0.6,0.2,0.9,0.4s0.5,0.4,0.6,0.8c0.1,0.3,0.2,0.7,0.2,1.1
				c0,0.3,0,0.6-0.1,0.9c0,0.3-0.1,0.5-0.2,0.7c-0.1,0.2-0.3,0.4-0.5,0.6s-0.5,0.2-0.8,0.3l0,0c0.5,0.1,0.9,0.3,1.1,0.6
				c0.2,0.3,0.3,0.7,0.3,1.3c0,0.4,0,0.8,0,1.1c0,0.3,0,0.6,0.1,0.9c0,0.3,0.1,0.6,0.1,0.8c0.1,0.2,0.1,0.3,0.2,0.4v0.2h-2.1
				c-0.1-0.2-0.1-0.5-0.2-0.9c0-0.4,0-0.8,0-1.3c0-0.2,0-0.4,0-0.4v-0.1c0-0.2,0-0.4,0-0.6c0-0.1,0-0.3-0.1-0.4
				c0-0.1-0.1-0.3-0.2-0.4s-0.2-0.2-0.4-0.2c-0.2-0.1-0.4-0.1-0.6-0.1s-0.6,0-1,0L216.7,368.4L216.7,368.4z M216.7,366.9h1.5
				c0.3,0,0.6-0.1,0.8-0.4c0.2-0.2,0.3-0.6,0.3-1.1s-0.1-0.9-0.3-1.1s-0.5-0.3-0.9-0.3h-1.4L216.7,366.9L216.7,366.9z"/>
			<path d="M223.1,372.8v-10.1h5.3v1.5H225v2.5h3.2v1.5H225v3.1h3.4v1.5H223.1z"/>
			<path d="M166.4,388.2v-10.1h3.9c0.4,0,0.8,0.1,1.1,0.2c0.3,0.2,0.5,0.4,0.7,0.6c0.2,0.3,0.3,0.6,0.4,0.9c0.1,0.3,0.1,0.7,0.1,1.1
				c0,0.5-0.1,0.9-0.2,1.4c-0.1,0.4-0.4,0.8-0.7,1s-0.6,0.4-0.9,0.5c-0.4,0.1-0.7,0.1-1.2,0.1h-1.3v4.2L166.4,388.2L166.4,388.2z
				 M168.3,382.5h1c0.4,0,0.8-0.1,1-0.4c0.2-0.2,0.4-0.6,0.4-1.2c0-0.5-0.1-0.9-0.3-1.1s-0.6-0.3-1.2-0.3h-0.9V382.5z"/>
			<path d="M175.8,383.8v4.4h-1.9v-10.1h3.6c0.4,0,0.8,0,1.2,0.1s0.6,0.2,0.9,0.4s0.5,0.4,0.6,0.8c0.1,0.3,0.2,0.7,0.2,1.1
				c0,0.3,0,0.6-0.1,0.9c0,0.3-0.1,0.5-0.2,0.7c-0.1,0.2-0.3,0.4-0.5,0.6s-0.5,0.2-0.8,0.3l0,0c0.5,0.1,0.9,0.3,1.1,0.6
				c0.2,0.3,0.3,0.7,0.3,1.3c0,0.4,0,0.8,0,1.1c0,0.3,0,0.6,0.1,0.9c0,0.3,0.1,0.6,0.1,0.8c0.1,0.2,0.1,0.3,0.2,0.4v0.2h-2.1
				c-0.1-0.2-0.1-0.5-0.2-0.9c0-0.4,0-0.8,0-1.3c0-0.2,0-0.4,0-0.4v-0.1c0-0.2,0-0.4,0-0.6c0-0.1,0-0.3-0.1-0.4
				c0-0.1-0.1-0.3-0.2-0.4s-0.2-0.2-0.4-0.2c-0.2-0.1-0.4-0.1-0.6-0.1c-0.2,0-0.6,0-1,0L175.8,383.8L175.8,383.8z M175.8,382.3h1.5
				c0.3,0,0.6-0.1,0.8-0.4c0.2-0.2,0.3-0.6,0.3-1.1s-0.1-0.9-0.3-1.1s-0.5-0.3-0.9-0.3h-1.4L175.8,382.3L175.8,382.3z"/>
			<path d="M182,382.3c0-0.8,0.1-1.4,0.1-1.9c0.1-0.5,0.2-0.9,0.4-1.3s0.5-0.7,1-0.9c0.4-0.2,1-0.3,1.8-0.3s1.3,0.1,1.8,0.3
				c0.4,0.2,0.8,0.5,1,0.9s0.4,0.8,0.4,1.3c0.1,0.5,0.1,1.1,0.1,1.9v1.4c0,0.8,0,1.5-0.1,2s-0.2,1-0.4,1.4s-0.5,0.7-1,0.9
				c-0.4,0.2-1,0.3-1.8,0.3s-1.3-0.1-1.8-0.3c-0.4-0.2-0.8-0.5-1-0.9s-0.4-0.9-0.4-1.4c-0.1-0.5-0.1-1.2-0.1-2V382.3z M184,384.7
				c0,0.3,0,0.5,0,0.8s0.1,0.5,0.2,0.7c0.1,0.2,0.2,0.4,0.4,0.5s0.4,0.2,0.7,0.2s0.6-0.1,0.8-0.2s0.3-0.3,0.4-0.6
				c0.1-0.2,0.1-0.5,0.2-0.7c0-0.2,0-0.5,0-0.9V382c0-0.3,0-0.7,0-0.9s-0.1-0.5-0.2-0.8s-0.2-0.5-0.4-0.6c-0.2-0.2-0.4-0.3-0.8-0.3
				c-0.3,0-0.6,0.1-0.7,0.2c-0.2,0.1-0.3,0.3-0.4,0.6c-0.1,0.2-0.1,0.5-0.2,0.8s0,0.6,0,1V384.7z"/>
			<path d="M192.2,388.2h-1.9v-10.1h3l1,4.7c0.1,0.7,0.3,1.5,0.4,2.3l0,0c0.1-0.6,0.1-1.1,0.1-1.4s0.1-0.6,0.2-0.9l1-4.7h3v10.1
				h-1.9V385c0-2.2,0.1-4.2,0.2-6l0,0l-2,9.2h-1.1l-2-9.2h-0.1c0.1,1.8,0.2,3.8,0.2,6L192.2,388.2L192.2,388.2z"/>
			<path d="M200.7,382.3c0-0.8,0.1-1.4,0.1-1.9c0.1-0.5,0.2-0.9,0.4-1.3s0.5-0.7,1-0.9c0.4-0.2,1-0.3,1.8-0.3s1.3,0.1,1.8,0.3
				c0.4,0.2,0.8,0.5,1,0.9s0.4,0.8,0.4,1.3c0.1,0.5,0.1,1.1,0.1,1.9v1.4c0,0.8,0,1.5-0.1,2s-0.2,1-0.4,1.4s-0.5,0.7-1,0.9
				c-0.4,0.2-1,0.3-1.8,0.3s-1.3-0.1-1.8-0.3c-0.4-0.2-0.8-0.5-1-0.9s-0.4-0.9-0.4-1.4c-0.1-0.5-0.1-1.2-0.1-2V382.3z M202.7,384.7
				c0,0.3,0,0.5,0,0.8s0.1,0.5,0.2,0.7c0.1,0.2,0.2,0.4,0.4,0.5s0.4,0.2,0.7,0.2s0.6-0.1,0.8-0.2s0.3-0.3,0.4-0.6
				c0.1-0.2,0.1-0.5,0.2-0.7c0-0.2,0-0.5,0-0.9V382c0-0.3,0-0.7,0-0.9s-0.1-0.5-0.2-0.8c-0.1-0.3-0.2-0.5-0.4-0.6s-0.4-0.3-0.8-0.3
				c-0.3,0-0.5,0.1-0.7,0.2s-0.3,0.3-0.4,0.6s-0.1,0.5-0.2,0.8s0,0.6,0,1V384.7z"/>
			<path d="M208.4,378.1h6.3v1.5h-2.2v8.6h-1.9v-8.6h-2.2L208.4,378.1L208.4,378.1z"/>
			<path d="M215.7,382.3c0-0.8,0.1-1.4,0.1-1.9c0.1-0.5,0.2-0.9,0.4-1.3s0.5-0.7,1-0.9c0.4-0.2,1-0.3,1.8-0.3s1.3,0.1,1.8,0.3
				c0.4,0.2,0.8,0.5,1,0.9s0.4,0.8,0.4,1.3c0.1,0.5,0.1,1.1,0.1,1.9v1.4c0,0.8,0,1.5-0.1,2s-0.2,1-0.4,1.4s-0.5,0.7-1,0.9
				c-0.4,0.2-1,0.3-1.8,0.3s-1.3-0.1-1.8-0.3c-0.4-0.2-0.8-0.5-1-0.9s-0.4-0.9-0.4-1.4c-0.1-0.5-0.1-1.2-0.1-2V382.3z M217.7,384.7
				c0,0.3,0,0.5,0,0.8s0.1,0.5,0.2,0.7c0.1,0.2,0.2,0.4,0.4,0.5s0.4,0.2,0.7,0.2s0.6-0.1,0.8-0.2s0.3-0.3,0.4-0.6
				c0.1-0.2,0.1-0.5,0.2-0.7c0-0.2,0-0.5,0-0.9V382c0-0.3,0-0.7,0-0.9s-0.1-0.5-0.2-0.8c-0.1-0.3-0.2-0.5-0.4-0.6s-0.4-0.3-0.8-0.3
				c-0.3,0-0.5,0.1-0.7,0.2s-0.3,0.3-0.4,0.6s-0.1,0.5-0.2,0.8s0,0.6,0,1V384.7z"/>
			<path d="M225.9,383.8v4.4H224v-10.1h3.6c0.4,0,0.8,0,1.2,0.1c0.3,0.1,0.6,0.2,0.9,0.4s0.5,0.4,0.6,0.8c0.1,0.3,0.2,0.7,0.2,1.1
				c0,0.3,0,0.6-0.1,0.9c0,0.3-0.1,0.5-0.2,0.7c-0.1,0.2-0.3,0.4-0.5,0.6s-0.5,0.2-0.8,0.3l0,0c0.5,0.1,0.9,0.3,1.1,0.6
				c0.2,0.3,0.3,0.7,0.3,1.3c0,0.4,0,0.8,0,1.1c0,0.3,0,0.6,0.1,0.9c0,0.3,0.1,0.6,0.1,0.8c0.1,0.2,0.1,0.3,0.2,0.4v0.2h-2.1
				c-0.1-0.2-0.1-0.5-0.2-0.9c0-0.4,0-0.8,0-1.3c0-0.2,0-0.4,0-0.4v-0.1c0-0.2,0-0.4,0-0.6c0-0.1,0-0.3-0.1-0.4
				c0-0.1-0.1-0.3-0.2-0.4s-0.2-0.2-0.4-0.2c-0.2-0.1-0.4-0.1-0.6-0.1s-0.6,0-1,0L225.9,383.8L225.9,383.8z M225.9,382.3h1.5
				c0.3,0,0.6-0.1,0.8-0.4c0.2-0.2,0.3-0.6,0.3-1.1s-0.1-0.9-0.3-1.1s-0.5-0.3-0.9-0.3h-1.4L225.9,382.3L225.9,382.3z"/>
		</g>
		<polygon class="st2" points="0,0 0,186.3 198.4,1 396.9,186.3 396.9,0 		"/>
		<g>
			<path class="st2" d="M97.8,212.5c0.3,4.7,3.3,7.1,9.3,7.1c5.7,0,8.6-1.8,8.6-5.5c0-2.3-2-4-6-5L99,206.5c-3.2-0.8-5.6-2.1-7.1-4
				s-2.3-4.3-2.3-7.4c0-3.9,1.4-7.2,4.2-9.7c2.8-2.5,6.9-3.8,12.3-3.8c4.9,0,8.9,1.2,11.8,3.6c3,2.4,4.6,5.9,4.9,10.5h-8.7
				c-0.6-4.4-3.5-6.6-8.6-6.6c-2.3,0-4.2,0.4-5.6,1.3c-1.4,0.9-2.1,2.1-2.1,3.7c0,1.1,0.4,2.1,1.1,2.8c0.7,0.8,1.9,1.3,3.5,1.7
				l10.5,2.6c4.3,1,7.3,2.5,8.9,4.4s2.4,4.3,2.4,7.4c0,4.2-1.5,7.5-4.5,10.1c-2.9,2.6-7.2,3.9-12.9,3.9c-5.3,0-9.5-1.2-12.9-3.7
				c-3.3-2.5-5-6.1-5-10.8H97.8z"/>
			<path class="st2" d="M128,225.9l15.5-43.1h10.3l15.5,43.1h-9.8l-2.8-9h-16.2l-3,9H128z M143.1,209.4h11l-5.4-16.8L143.1,209.4z"
				/>
			<path class="st2" d="M174.7,182.8h8.9v35.6h21.6v7.6h-30.5V182.8z"/>
			<path class="st2" d="M210.5,182.8h8.9v43.1h-8.9V182.8z"/>
			<path class="st2" d="M228,225.9v-43.1h19c5.6,0,9.9,1.8,12.9,5.3c3.1,3.5,4.6,8.7,4.6,15.6c0,6.6-1.6,11.9-4.7,16.1
				c-3.1,4.1-7.5,6.2-13.2,6.2H228V225.9z M237,218.3h8.8c3,0,5.4-1.2,7.1-3.6c1.8-2.4,2.7-6,2.7-10.7c0-9.1-3.3-13.7-9.9-13.7H237
				V218.3z"/>
			<path class="st2" d="M268,225.9l15.5-43.1h10.3l15.5,43.1h-9.8l-2.8-9h-16.2l-3,9H268z M283,209.4h11l-5.4-16.8L283,209.4z"/>
		</g>
		<g>
			<g>
				<path class="st2" d="M170.6,84.1c-16.5,0.9-24.8,11.7-24.8,32.4c0,20,6.4,29.9,19.2,29.9c8.1,0,13.9-7,17.3-21l9.4-37
					c2.7-11.3,7.3-19.7,13.8-25s15.1-8,25.9-8c13.8,0,25.1,5,33.8,14.9c8.7,9.9,13.1,24.2,13.1,43c0,17.2-4.2,31-12.6,41.4
					c-8.4,10.4-20.6,16.1-36.6,17.2v-30.4c15.4-2.3,23.2-12.3,23.2-30.1c0-8.1-1.6-14.6-4.7-19.5c-3.1-4.8-7.5-7.2-12.9-7.2
					c-4,0-7.3,1.2-9.9,3.7c-2.7,2.5-4.7,6.6-6,12.1l-9,36.7c-3.6,15.1-8.7,25.5-15.3,31.1c-6.6,5.7-15.1,8.5-25.7,8.5
					c-14.6,0-26.4-5.2-35.5-15.6c-9-10.3-13.5-25.3-13.5-45c0-18.4,4.3-33.4,12.9-45c8.7-11.6,21.3-17.4,37.9-17.4L170.6,84.1
					L170.6,84.1z"/>
			</g>
		</g>
		<path class="st0" d="M355.3,62.6h-0.5v0.8h-0.6v-2.8h1.1c0.6,0,1,0.4,1,1l0,0C356.4,62.3,355.9,62.6,355.3,62.6z M355.8,61.6
			c0-0.3-0.2-0.4-0.5-0.4h-0.5V62h0.5C355.6,62.1,355.8,61.9,355.8,61.6L355.8,61.6z"/>
	</g>
	<g>
		<path class="st0" d="M370.4,53.3c-1,2.2-5.7,1.6-10.8-1s-8.3-6.2-7.3-8.4c0-0.1,0.1-0.2,0.2-0.3c-0.2,0.2-0.4,0.4-0.5,0.6
			c-1.1,2.4,1.9,7.6,7.6,10.6c5.7,3,11.9,2.5,13.1,0.2s-2.6-6.7-8.3-9.7c-0.2-0.1-0.3-0.2-0.5-0.3C368.7,47.6,371.4,51.2,370.4,53.3
			z"/>
		<path class="st0" d="M360.4,56.9c0,0-9.4-3.6-14.7-13.8c-1.9-3.6-6.9-13.4-19.8-7.8c0,0,7.6-0.9,12.5,7.4
			C344.5,52.9,354.1,56.7,360.4,56.9z"/>
		<path class="st0" d="M305.9,27.5c3.1-2.8,10.3,1.6,16.6,9.7c6.4,8.2,9.2,16.5,6.1,19.3c-0.1,0.1-0.3,0.2-0.5,0.3
			c0.4-0.1,0.9-0.4,1.2-0.7c3.4-3.1,2.1-13.9-5.1-23s-17.3-13.1-20.7-10s-0.4,13,6.7,22.1c0.2,0.3,0.4,0.6,0.7,0.8
			C304.9,38.1,302.9,30.2,305.9,27.5z"/>
		<path class="st0" d="M350.2,27.2c-0.6-0.1,10.5,2.5,14.2,11.4C372.3,38,368.5,29.3,350.2,27.2z"/>
		<path class="st0" d="M325.1,33.7c-0.4,0.8,7.3-11.2,45.8,14.2C370,45.1,337,7.2,325.1,33.7z"/>
		<path class="st0" d="M353.8,56.9c0,0-6.4-1.9-12-6.8c-3.6-3.2-8.3-6.6-18.6-4.4c0,0,6-0.7,12,4C342.1,55.1,347.9,56.7,353.8,56.9z
			"/>
		<path class="st0" d="M303.7,63.4l-0.6-0.9h-0.5v0.9H302v-2.8h1.2c0.6,0,1,0.3,1,0.9l0,0c0,0.4-0.2,0.7-0.6,0.9l0.7,1
			C304.3,63.4,303.7,63.4,303.7,63.4z M303.7,61.5c0-0.3-0.2-0.4-0.5-0.4h-0.6v0.8h0.6C303.5,61.9,303.7,61.8,303.7,61.5L303.7,61.5
			z"/>
		<path class="st0" d="M305.2,63.4v-2.8h2v0.5h-1.5v0.6h1.3v0.5h-1.3v0.6h1.5v0.5h-2V63.4z"/>
		<path class="st0" d="M310.2,63.4l-0.2-0.6h-1.1l-0.2,0.6H308l1.2-2.8h0.6l1.2,2.8H310.2z M309.4,61.3l-0.4,0.9h0.7L309.4,61.3z"/>
		<path class="st0" d="M311.6,63.4v-2.8h0.6v2.2h1.4v0.6H311.6z"/>
		<path class="st0" d="M316.6,61.1v0.6h1.3v0.6h-1.3v1.1H316v-2.8h2.1v0.6L316.6,61.1L316.6,61.1z"/>
		<path class="st0" d="M318.9,63.4v-2.8h2v0.5h-1.5v0.6h1.3v0.5h-1.3v0.6h1.5v0.5h-2V63.4z"/>
		<path class="st0" d="M322.9,63.4h-1.1v-2.8h1.1c0.9,0,1.4,0.6,1.4,1.4l0,0C324.4,62.7,323.8,63.4,322.9,63.4z M323.8,62
			c0-0.5-0.3-0.8-0.8-0.8h-0.5v1.7h0.5C323.4,62.8,323.8,62.5,323.8,62L323.8,62z"/>
		<path class="st0" d="M325.3,63.4v-2.8h2v0.5h-1.5v0.6h1.3v0.5h-1.3v0.6h1.5v0.5h-2V63.4z"/>
		<path class="st0" d="M329.9,63.4l-0.6-0.9h-0.5v0.9h-0.6v-2.8h1.2c0.6,0,1,0.3,1,0.9l0,0c0,0.4-0.2,0.7-0.6,0.9l0.7,1
			C330.5,63.4,329.9,63.4,329.9,63.4z M329.9,61.5c0-0.3-0.2-0.4-0.5-0.4h-0.6v0.8h0.6C329.8,61.9,329.9,61.8,329.9,61.5L329.9,61.5
			z"/>
		<path class="st0" d="M333.5,63.4l-0.2-0.6h-1.1l-0.2,0.6h-0.6l1.2-2.8h0.5l1.2,2.8H333.5z M332.7,61.3l-0.4,0.9h0.7L332.7,61.3z"
			/>
		<path class="st0" d="M336,63.4c-0.8,0-1.4-0.6-1.4-1.4l0,0c0-0.8,0.6-1.4,1.4-1.4c0.5,0,0.8,0.2,1.1,0.4l-0.4,0.4
			c-0.2-0.2-0.4-0.3-0.7-0.3c-0.5,0-0.8,0.4-0.8,0.9l0,0c0,0.5,0.3,0.9,0.8,0.9c0.3,0,0.5-0.1,0.7-0.3l0.4,0.4
			C336.8,63.2,336.5,63.4,336,63.4z"/>
		<path class="st0" d="M338,63.4v-2.8h0.6v2.8H338z"/>
		<path class="st0" d="M341,63.4c-0.8,0-1.4-0.6-1.4-1.4l0,0c0-0.8,0.6-1.4,1.4-1.4s1.4,0.6,1.4,1.4l0,0
			C342.4,62.8,341.8,63.4,341,63.4z M341.8,62c0-0.5-0.3-0.9-0.8-0.9s-0.8,0.4-0.8,0.9l0,0c0,0.5,0.3,0.9,0.8,0.9
			S341.8,62.5,341.8,62L341.8,62z M340.8,60.4l0.4-0.7l0.5,0.2l-0.5,0.5H340.8z"/>
		<path class="st0" d="M345.3,63.4l-1.3-1.8v1.8h-0.6v-2.8h0.6l1.3,1.7v-1.7h0.6v2.8H345.3z"/>
		<path class="st0" d="M348.4,63.4v-2.8h2v0.5h-1.5v0.6h1.3v0.5h-1.3v0.6h1.5v0.5h-2V63.4z"/>
		<path class="st0" d="M352.3,63.4c-0.4,0-0.8-0.1-1.2-0.4l0.4-0.4c0.2,0.2,0.5,0.3,0.8,0.3c0.2,0,0.4-0.1,0.4-0.3l0,0
			c0-0.2-0.1-0.2-0.5-0.4c-0.5-0.1-0.9-0.3-0.9-0.8l0,0c0-0.5,0.4-0.8,0.9-0.8c0.4,0,0.7,0.1,1,0.4l-0.3,0.5
			c-0.2-0.2-0.5-0.3-0.7-0.3s-0.3,0.1-0.3,0.2l0,0c0,0.2,0.1,0.2,0.6,0.4c0.5,0.1,0.9,0.3,0.9,0.8l0,0
			C353.3,63.1,352.9,63.4,352.3,63.4z"/>
		<path class="st0" d="M358.9,63.4l-0.2-0.6h-1.1l-0.2,0.6h-0.6l1.2-2.8h0.5l1.2,2.8H358.9z M358.1,61.3l-0.4,0.9h0.7L358.1,61.3z"
			/>
		<path class="st0" d="M362.2,63.4l-1.3-1.8v1.8h-0.6v-2.8h0.6l1.3,1.7v-1.7h0.6v2.8H362.2z M361.9,60.4c-0.2,0-0.4-0.2-0.6-0.2
			c-0.1,0-0.2,0.1-0.2,0.2l-0.3-0.1c0.1-0.3,0.2-0.5,0.5-0.5c0.2,0,0.4,0.2,0.6,0.2c0.1,0,0.2-0.1,0.2-0.2l0.3,0.1
			C362.3,60.2,362.1,60.4,361.9,60.4z"/>
		<path class="st0" d="M365.1,63.4c-0.8,0-1.4-0.6-1.4-1.4l0,0c0-0.8,0.6-1.4,1.4-1.4s1.4,0.6,1.4,1.4l0,0
			C366.6,62.8,365.9,63.4,365.1,63.4z M365.9,62c0-0.5-0.3-0.9-0.8-0.9s-0.8,0.4-0.8,0.9l0,0c0,0.5,0.3,0.9,0.8,0.9
			C365.6,62.8,365.9,62.5,365.9,62L365.9,62z"/>
		<path class="st0" d="M367.5,63.4v-2.8h0.6v2.2h1.4v0.6H367.5z"/>
		<path class="st0" d="M372.3,63.4l-0.2-0.6H371l-0.2,0.6H370l1.2-2.8h0.5l1.2,2.8H372.3z M371.5,61.3l-0.4,0.9h0.7L371.5,61.3z"/>
		<path class="st0" d="M307.1,77.3c-0.7,0-1.4-0.1-2-0.4s-1.2-0.6-1.6-1.1c-0.5-0.5-0.8-1-1.1-1.7c-0.3-0.6-0.4-1.3-0.4-2l0,0
			c0-0.7,0.1-1.4,0.4-2s0.6-1.2,1.1-1.7s1-0.9,1.6-1.1c0.6-0.3,1.3-0.4,2.1-0.4c0.5,0,0.9,0,1.3,0.1s0.7,0.2,1,0.3
			c0.3,0.1,0.6,0.3,0.9,0.5s0.5,0.4,0.7,0.6l-1.4,1.6c-0.4-0.4-0.8-0.6-1.2-0.8c-0.4-0.2-0.9-0.3-1.4-0.3c-0.4,0-0.8,0.1-1.2,0.2
			c-0.4,0.2-0.7,0.4-0.9,0.7c-0.3,0.3-0.5,0.6-0.6,1s-0.2,0.8-0.2,1.2l0,0c0,0.4,0.1,0.8,0.2,1.2c0.1,0.4,0.3,0.7,0.6,1
			s0.6,0.5,0.9,0.7c0.4,0.2,0.7,0.3,1.2,0.3c0.6,0,1-0.1,1.4-0.3c0.4-0.2,0.8-0.5,1.2-0.9l1.4,1.4c-0.3,0.3-0.5,0.5-0.8,0.7
			s-0.6,0.4-0.9,0.6s-0.7,0.3-1.1,0.4S307.6,77.3,307.1,77.3z"/>
		<path class="st0" d="M312.9,67.1h2.2v10.1h-2.2V67.1z"/>
		<path class="st0" d="M322.2,77.3c-0.7,0-1.4-0.1-2-0.4s-1.2-0.6-1.6-1.1c-0.5-0.5-0.8-1-1.1-1.7c-0.3-0.6-0.4-1.3-0.4-2l0,0
			c0-0.7,0.1-1.4,0.4-2s0.6-1.2,1.1-1.7s1-0.9,1.6-1.1c0.6-0.3,1.3-0.4,2.1-0.4c0.5,0,0.9,0,1.3,0.1s0.7,0.2,1,0.3
			c0.3,0.1,0.6,0.3,0.9,0.5s0.5,0.4,0.7,0.6l-1.4,1.6c-0.4-0.4-0.8-0.6-1.2-0.8c-0.4-0.2-0.9-0.3-1.4-0.3c-0.4,0-0.8,0.1-1.2,0.2
			c-0.4,0.2-0.7,0.4-0.9,0.7c-0.3,0.3-0.5,0.6-0.6,1s-0.2,0.8-0.2,1.2l0,0c0,0.4,0.1,0.8,0.2,1.2c0.1,0.4,0.3,0.7,0.6,1
			s0.6,0.5,0.9,0.7c0.4,0.2,0.7,0.3,1.2,0.3c0.6,0,1-0.1,1.4-0.3c0.4-0.2,0.8-0.5,1.2-0.9l1.4,1.4c-0.3,0.3-0.5,0.5-0.8,0.7
			s-0.6,0.4-0.9,0.6s-0.7,0.3-1.1,0.4S322.7,77.3,322.2,77.3z"/>
		<path class="st0" d="M327.9,67.1h2.2v8.1h4.9v2h-7.1V67.1z"/>
		<path class="st0" d="M336.6,67.1h2.2v10.1h-2.2V67.1z"/>
		<path class="st0" d="M344.8,77.3c-0.8,0-1.5-0.1-2.2-0.4s-1.4-0.7-2-1.2l1.3-1.6c0.5,0.4,0.9,0.7,1.4,0.9c0.5,0.2,1,0.3,1.6,0.3
			c0.5,0,0.8-0.1,1.1-0.3c0.3-0.2,0.4-0.4,0.4-0.7l0,0c0-0.1,0-0.3-0.1-0.4s-0.2-0.2-0.3-0.3c-0.1-0.1-0.4-0.2-0.6-0.3
			c-0.3-0.1-0.6-0.2-1-0.3c-0.5-0.1-1-0.3-1.4-0.4c-0.4-0.2-0.8-0.3-1-0.6c-0.3-0.2-0.5-0.5-0.7-0.8s-0.2-0.8-0.2-1.3l0,0
			c0-0.5,0.1-0.9,0.3-1.2c0.2-0.4,0.4-0.7,0.7-1c0.3-0.3,0.7-0.5,1.1-0.6s0.9-0.2,1.4-0.2c0.7,0,1.4,0.1,2,0.3
			c0.6,0.2,1.2,0.5,1.7,1l-1.1,1.7c-0.4-0.3-0.9-0.5-1.3-0.7s-0.9-0.3-1.3-0.3s-0.7,0.1-1,0.3c-0.2,0.2-0.3,0.4-0.3,0.6l0,0
			c0,0.2,0,0.3,0.1,0.4s0.2,0.2,0.3,0.3c0.2,0.1,0.4,0.2,0.7,0.3c0.3,0.1,0.6,0.2,1.1,0.3c0.5,0.1,0.9,0.3,1.3,0.5s0.7,0.4,1,0.6
			s0.5,0.5,0.6,0.8s0.2,0.7,0.2,1.1l0,0c0,0.5-0.1,0.9-0.3,1.3c-0.2,0.4-0.4,0.7-0.7,1c-0.3,0.3-0.7,0.5-1.1,0.6
			C345.9,77.2,345.4,77.3,344.8,77.3z"/>
		<path class="st0" d="M350.4,67.1h2.4l2.6,4.3l2.6-4.3h2.4v10.1h-2.2v-6.6l-2.8,4.3h-0.1l-2.8-4.3v6.5h-2.2v-10H350.4z"/>
		<path class="st0" d="M367.6,77.3c-0.8,0-1.5-0.1-2.1-0.4s-1.2-0.6-1.7-1.1s-0.8-1-1.1-1.6c-0.3-0.6-0.4-1.3-0.4-2l0,0
			c0-0.7,0.1-1.4,0.4-2s0.6-1.2,1.1-1.7s1-0.9,1.7-1.1c0.6-0.3,1.4-0.4,2.1-0.4c0.8,0,1.5,0.1,2.1,0.4s1.2,0.6,1.7,1.1
			s0.8,1,1.1,1.6c0.3,0.6,0.4,1.3,0.4,2l0,0c0,0.7-0.1,1.4-0.4,2s-0.6,1.2-1.1,1.7s-1,0.9-1.7,1.1C369.1,77.2,368.4,77.3,367.6,77.3
			z M367.6,75.3c0.4,0,0.8-0.1,1.2-0.2c0.4-0.2,0.7-0.4,0.9-0.7c0.3-0.3,0.5-0.6,0.6-1s0.2-0.8,0.2-1.2l0,0c0-0.4-0.1-0.8-0.2-1.2
			c-0.1-0.4-0.4-0.7-0.6-1c-0.3-0.3-0.6-0.5-1-0.7s-0.8-0.3-1.2-0.3c-0.4,0-0.8,0.1-1.2,0.2c-0.4,0.2-0.7,0.4-0.9,0.7
			c-0.3,0.3-0.5,0.6-0.6,1s-0.2,0.8-0.2,1.2l0,0c0,0.4,0.1,0.8,0.2,1.2c0.1,0.4,0.4,0.7,0.6,1c0.3,0.3,0.6,0.5,0.9,0.7
			C366.8,75.2,367.2,75.3,367.6,75.3z"/>
	</g>
</g>
</svg>
