<?xml version="1.0" encoding="utf-8"?>
<!-- Generator: Adobe Illustrator 22.0.0, SVG Export Plug-In . SVG Version: 6.00 Build 0)  -->
<svg version="1.1" id="Capa_1" xmlns="http://www.w3.org/2000/svg" xmlns:xlink="http://www.w3.org/1999/xlink" x="0px" y="0px"
	 viewBox="0 0 396.9 396.9" style="enable-background:new 0 0 396.9 396.9;" xml:space="preserve">
<style type="text/css">
	.st0{fill:#FFFFFF;}
	.st1{fill:#B4B3B4;}
	.st2{fill:#DE271D;}
</style>
<g>
	<g>
		<path class="st0" d="M0,397.4c-0.3,0-0.5-0.2-0.5-0.5V0c0-0.3,0.2-0.5,0.5-0.5h396.9c0.3,0,0.5,0.2,0.5,0.5v396.9
			c0,0.3-0.2,0.5-0.5,0.5H0z"/>
		<path d="M396.9,0v396.9H0V0H396.9 M396.9-1H0c-0.6,0-1,0.4-1,1v396.9c0,0.6,0.4,1,1,1h396.9c0.6,0,1-0.4,1-1V0
			C397.9-0.6,397.4-1,396.9-1L396.9-1z"/>
	</g>
	<rect y="340.2" class="st1" width="396.9" height="56.7"/>
	<g>
		<path d="M184,357.4v-10.1h1.9v8.6h3.5v1.5H184z"/>
		<path d="M190.7,351.5c0-0.8,0.1-1.4,0.1-1.9c0.1-0.5,0.2-0.9,0.4-1.3s0.5-0.7,1-0.9c0.4-0.2,1-0.3,1.8-0.3s1.3,0.1,1.8,0.3
			c0.4,0.2,0.8,0.5,1,0.9s0.4,0.8,0.4,1.3c0.1,0.5,0.1,1.1,0.1,1.9v1.4c0,0.8,0,1.5-0.1,2c-0.1,0.5-0.2,1-0.4,1.4
			c-0.2,0.4-0.5,0.7-1,0.9c-0.4,0.2-1,0.3-1.8,0.3s-1.3-0.1-1.8-0.3c-0.4-0.2-0.8-0.5-1-0.9c-0.2-0.4-0.4-0.9-0.4-1.4
			c-0.1-0.5-0.1-1.2-0.1-2V351.5z M192.6,353.9c0,0.3,0,0.5,0,0.8s0.1,0.5,0.2,0.7c0.1,0.2,0.2,0.4,0.4,0.5c0.2,0.1,0.4,0.2,0.7,0.2
			c0.3,0,0.6-0.1,0.8-0.2c0.2-0.1,0.3-0.3,0.4-0.6c0.1-0.2,0.1-0.5,0.2-0.7c0-0.2,0-0.5,0-0.9v-2.6c0-0.3,0-0.7,0-0.9
			s-0.1-0.5-0.2-0.8s-0.2-0.5-0.4-0.6c-0.2-0.2-0.4-0.3-0.8-0.3c-0.3,0-0.6,0.1-0.7,0.2c-0.2,0.1-0.3,0.3-0.4,0.6
			c-0.1,0.2-0.1,0.5-0.2,0.8s0,0.6,0,1V353.9z"/>
		<path d="M198.8,351.5c0-0.8,0.1-1.4,0.1-1.9c0.1-0.5,0.2-0.9,0.4-1.3s0.5-0.7,1-0.9c0.4-0.2,1-0.3,1.8-0.3c0.9,0,1.6,0.2,2.1,0.5
			s0.9,0.9,1.1,1.7c0.1,0.2,0.1,0.5,0.1,1c0,0.1,0,0.2,0,0.2h-1.9c0-0.3,0-0.6-0.1-0.8c0-0.2-0.1-0.4-0.2-0.6s-0.2-0.3-0.4-0.4
			c-0.2-0.1-0.4-0.2-0.7-0.2c-0.3,0-0.5,0.1-0.7,0.2c-0.2,0.1-0.3,0.3-0.4,0.6c-0.1,0.2-0.1,0.5-0.2,0.8c0,0.3,0,0.6,0,1v2.8
			c0,0.3,0,0.5,0,0.8c0,0.2,0.1,0.5,0.2,0.7c0.1,0.2,0.2,0.4,0.4,0.5c0.2,0.1,0.4,0.2,0.7,0.2c0.5,0,0.8-0.2,1.1-0.7
			c0.2-0.5,0.3-1.1,0.3-2h-1.3V352h3.1v5.4h-1.4v-1.2h0c-0.2,0.5-0.4,0.8-0.7,1c-0.3,0.2-0.7,0.3-1.1,0.4c-0.7,0-1.3-0.1-1.8-0.3
			c-0.4-0.2-0.8-0.5-1-0.9s-0.4-0.9-0.4-1.4c-0.1-0.5-0.1-1.2-0.1-2V351.5z"/>
		<path d="M207.2,351.5c0-0.8,0.1-1.4,0.1-1.9c0.1-0.5,0.2-0.9,0.4-1.3s0.5-0.7,1-0.9c0.4-0.2,1-0.3,1.8-0.3s1.3,0.1,1.8,0.3
			c0.4,0.2,0.8,0.5,1,0.9s0.4,0.8,0.4,1.3c0.1,0.5,0.1,1.1,0.1,1.9v1.4c0,0.8,0,1.5-0.1,2c-0.1,0.5-0.2,1-0.4,1.4s-0.5,0.7-1,0.9
			c-0.4,0.2-1,0.3-1.8,0.3s-1.3-0.1-1.8-0.3c-0.4-0.2-0.8-0.5-1-0.9s-0.4-0.9-0.4-1.4c-0.1-0.5-0.1-1.2-0.1-2V351.5z M209.1,353.9
			c0,0.3,0,0.5,0,0.8s0.1,0.5,0.2,0.7c0.1,0.2,0.2,0.4,0.4,0.5c0.2,0.1,0.4,0.2,0.7,0.2c0.3,0,0.6-0.1,0.8-0.2
			c0.2-0.1,0.3-0.3,0.4-0.6c0.1-0.2,0.1-0.5,0.2-0.7c0-0.2,0-0.5,0-0.9v-2.6c0-0.3,0-0.7,0-0.9s-0.1-0.5-0.2-0.8
			c-0.1-0.3-0.2-0.5-0.4-0.6s-0.4-0.3-0.8-0.3c-0.3,0-0.5,0.1-0.7,0.2c-0.2,0.1-0.3,0.3-0.4,0.6s-0.1,0.5-0.2,0.8s0,0.6,0,1V353.9z"
			/>
		<path d="M169.2,366.9c0-0.8,0.1-1.4,0.1-1.9c0.1-0.5,0.2-0.9,0.4-1.3s0.5-0.7,1-0.9c0.4-0.2,1-0.3,1.8-0.3s1.3,0.1,1.8,0.3
			c0.4,0.2,0.8,0.5,1,0.9s0.4,0.8,0.4,1.3c0.1,0.5,0.1,1.1,0.1,1.9v1.4c0,0.8,0,1.5-0.1,2c-0.1,0.5-0.2,1-0.4,1.4
			c-0.2,0.4-0.5,0.7-1,0.9c-0.4,0.2-1,0.3-1.8,0.3s-1.3-0.1-1.8-0.3c-0.4-0.2-0.8-0.5-1-0.9c-0.2-0.4-0.4-0.9-0.4-1.4
			c-0.1-0.5-0.1-1.2-0.1-2V366.9z M171.1,369.3c0,0.3,0,0.5,0,0.8s0.1,0.5,0.2,0.7c0.1,0.2,0.2,0.4,0.4,0.5c0.2,0.1,0.4,0.2,0.7,0.2
			c0.3,0,0.6-0.1,0.8-0.2c0.2-0.1,0.3-0.3,0.4-0.6c0.1-0.2,0.1-0.5,0.2-0.7c0-0.2,0-0.5,0-0.9v-2.6c0-0.3,0-0.7,0-0.9
			s-0.1-0.5-0.2-0.8s-0.2-0.5-0.4-0.6c-0.2-0.2-0.4-0.3-0.8-0.3c-0.3,0-0.6,0.1-0.7,0.2c-0.2,0.1-0.3,0.3-0.4,0.6
			c-0.1,0.2-0.1,0.5-0.2,0.8s0,0.6,0,1V369.3z"/>
		<path d="M185.4,362.7h1.9v10.1h-2l-1.5-3.6c-0.2-0.6-0.5-1.2-0.7-1.8c-0.2-0.6-0.4-1.4-0.7-2.2h0c0,0.6,0.1,1.1,0.1,1.6
			c0,0.4,0.1,0.9,0.1,1.3c0,0.6,0.1,1.1,0.1,1.6c0,0.5,0,0.9,0,1.2v1.9h-1.9v-10.1h2l1.5,3.7c0.3,0.6,0.5,1.2,0.7,1.9
			c0.2,0.6,0.4,1.4,0.7,2.2h0c-0.1-1.1-0.1-2-0.2-2.9c-0.1-1.1-0.1-2.1-0.1-2.8V362.7z"/>
		<path d="M189,366.9c0-0.8,0.1-1.4,0.1-1.9c0.1-0.5,0.2-0.9,0.4-1.3s0.5-0.7,1-0.9c0.4-0.2,1-0.3,1.8-0.3s1.3,0.1,1.8,0.3
			c0.4,0.2,0.8,0.5,1,0.9s0.4,0.8,0.4,1.3c0.1,0.5,0.1,1.1,0.1,1.9v1.4c0,0.8,0,1.5-0.1,2c-0.1,0.5-0.2,1-0.4,1.4
			c-0.2,0.4-0.5,0.7-1,0.9c-0.4,0.2-1,0.3-1.8,0.3s-1.3-0.1-1.8-0.3c-0.4-0.2-0.8-0.5-1-0.9c-0.2-0.4-0.4-0.9-0.4-1.4
			c-0.1-0.5-0.1-1.2-0.1-2V366.9z M190.9,369.3c0,0.3,0,0.5,0,0.8s0.1,0.5,0.2,0.7c0.1,0.2,0.2,0.4,0.4,0.5c0.2,0.1,0.4,0.2,0.7,0.2
			c0.3,0,0.6-0.1,0.8-0.2c0.2-0.1,0.3-0.3,0.4-0.6c0.1-0.2,0.1-0.5,0.2-0.7c0-0.2,0-0.5,0-0.9v-2.6c0-0.3,0-0.7,0-0.9
			s-0.1-0.5-0.2-0.8s-0.2-0.5-0.4-0.6c-0.2-0.2-0.4-0.3-0.8-0.3c-0.3,0-0.6,0.1-0.7,0.2c-0.2,0.1-0.3,0.3-0.4,0.6
			c-0.1,0.2-0.1,0.5-0.2,0.8s0,0.6,0,1V369.3z"/>
		<path d="M199.2,372.8h-1.9v-10.1h3l1,4.7c0.1,0.7,0.3,1.5,0.4,2.3h0c0.1-0.6,0.1-1.1,0.1-1.4c0-0.3,0.1-0.6,0.2-0.9l1-4.7h3v10.1
			h-1.9v-3.2c0-2.2,0.1-4.2,0.2-6h0l-2,9.2h-1.1l-2-9.2H199c0.1,1.8,0.2,3.8,0.2,6V372.8z"/>
		<path d="M207.8,372.8v-10.1h3c0.5,0,0.9,0,1.3,0.1c0.3,0.1,0.6,0.3,0.9,0.6c0.2,0.3,0.3,0.5,0.4,0.8c0.1,0.3,0.1,0.6,0.1,1
			c0,0.5-0.1,1-0.3,1.3c-0.2,0.4-0.5,0.6-1,0.8v0c0.5,0.1,0.9,0.3,1.1,0.7s0.4,0.9,0.4,1.6c0,0.5,0,0.9-0.1,1.2
			c-0.2,0.6-0.5,1.1-0.9,1.4c-0.4,0.3-0.9,0.4-1.6,0.4H207.8z M210,366.8c0.4,0,0.7,0,0.9-0.1c0.2,0,0.4-0.1,0.5-0.3
			c0.1-0.2,0.2-0.6,0.2-1.1c0-0.4-0.1-0.7-0.2-0.9s-0.4-0.3-0.8-0.3h-0.9v2.6H210z M210.1,371.3c0.4,0,0.6,0,0.7,0
			c0.1,0,0.3,0,0.4-0.1c0.2-0.1,0.4-0.3,0.5-0.5c0.1-0.3,0.1-0.5,0.1-0.9c0-0.6-0.1-1-0.3-1.2c-0.2-0.2-0.6-0.3-1.1-0.3h-0.7v3.1
			H210.1z"/>
		<path d="M217.2,368.4v4.4h-1.9v-10.1h3.6c0.4,0,0.8,0,1.2,0.1c0.3,0.1,0.6,0.2,0.9,0.4s0.5,0.4,0.6,0.8c0.1,0.3,0.2,0.7,0.2,1.1
			c0,0.3,0,0.6-0.1,0.9c0,0.3-0.1,0.5-0.2,0.7c-0.1,0.2-0.3,0.4-0.5,0.6s-0.5,0.2-0.8,0.3v0c0.5,0.1,0.9,0.3,1.1,0.6
			c0.2,0.3,0.3,0.7,0.3,1.3c0,0.4,0,0.8,0,1.1c0,0.3,0,0.6,0.1,0.9c0,0.3,0.1,0.6,0.1,0.8c0.1,0.2,0.1,0.3,0.2,0.4v0.2h-2.1
			c-0.1-0.2-0.1-0.5-0.2-0.9c0-0.4,0-0.8,0-1.3c0-0.2,0-0.4,0-0.4v-0.1c0-0.2,0-0.4,0-0.6c0-0.1,0-0.3-0.1-0.4
			c0-0.1-0.1-0.3-0.2-0.4s-0.2-0.2-0.4-0.2c-0.2-0.1-0.4-0.1-0.6-0.1s-0.6,0-1,0H217.2z M217.2,366.9h1.5c0.3,0,0.6-0.1,0.8-0.4
			c0.2-0.2,0.3-0.6,0.3-1.1c0-0.5-0.1-0.9-0.3-1.1c-0.2-0.2-0.5-0.3-0.9-0.3h-1.4V366.9z"/>
		<path d="M223.5,372.8v-10.1h5.3v1.5h-3.4v2.5h3.2v1.5h-3.2v3.1h3.4v1.5H223.5z"/>
		<path d="M166.8,388.2v-10.1h3.9c0.4,0,0.8,0.1,1.1,0.2c0.3,0.2,0.5,0.4,0.7,0.6c0.2,0.3,0.3,0.6,0.4,0.9c0.1,0.3,0.1,0.7,0.1,1.1
			c0,0.5-0.1,0.9-0.2,1.4c-0.1,0.4-0.4,0.8-0.7,1c-0.3,0.2-0.6,0.4-0.9,0.5c-0.4,0.1-0.7,0.1-1.2,0.1h-1.3v4.2H166.8z M168.7,382.5
			h1c0.4,0,0.8-0.1,1-0.4c0.2-0.2,0.4-0.6,0.4-1.2c0-0.5-0.1-0.9-0.3-1.1c-0.2-0.2-0.6-0.3-1.2-0.3h-0.9V382.5z"/>
		<path d="M176.2,383.8v4.4h-1.9v-10.1h3.6c0.4,0,0.8,0,1.2,0.1s0.6,0.2,0.9,0.4s0.5,0.4,0.6,0.8c0.1,0.3,0.2,0.7,0.2,1.1
			c0,0.3,0,0.6-0.1,0.9c0,0.3-0.1,0.5-0.2,0.7c-0.1,0.2-0.3,0.4-0.5,0.6s-0.5,0.2-0.8,0.3v0c0.5,0.1,0.9,0.3,1.1,0.6
			c0.2,0.3,0.3,0.7,0.3,1.3c0,0.4,0,0.8,0,1.1c0,0.3,0,0.6,0.1,0.9c0,0.3,0.1,0.6,0.1,0.8c0.1,0.2,0.1,0.3,0.2,0.4v0.2H179
			c-0.1-0.2-0.1-0.5-0.2-0.9c0-0.4,0-0.8,0-1.3c0-0.2,0-0.4,0-0.4v-0.1c0-0.2,0-0.4,0-0.6c0-0.1,0-0.3-0.1-0.4
			c0-0.1-0.1-0.3-0.2-0.4s-0.2-0.2-0.4-0.2c-0.2-0.1-0.4-0.1-0.6-0.1c-0.2,0-0.6,0-1,0H176.2z M176.2,382.3h1.5
			c0.3,0,0.6-0.1,0.8-0.4c0.2-0.2,0.3-0.6,0.3-1.1c0-0.5-0.1-0.9-0.3-1.1c-0.2-0.2-0.5-0.3-0.9-0.3h-1.4V382.3z"/>
		<path d="M182.5,382.3c0-0.8,0.1-1.4,0.1-1.9c0.1-0.5,0.2-0.9,0.4-1.3s0.5-0.7,1-0.9c0.4-0.2,1-0.3,1.8-0.3s1.3,0.1,1.8,0.3
			c0.4,0.2,0.8,0.5,1,0.9s0.4,0.8,0.4,1.3c0.1,0.5,0.1,1.1,0.1,1.9v1.4c0,0.8,0,1.5-0.1,2c-0.1,0.5-0.2,1-0.4,1.4
			c-0.2,0.4-0.5,0.7-1,0.9c-0.4,0.2-1,0.3-1.8,0.3s-1.3-0.1-1.8-0.3c-0.4-0.2-0.8-0.5-1-0.9c-0.2-0.4-0.4-0.9-0.4-1.4
			c-0.1-0.5-0.1-1.2-0.1-2V382.3z M184.4,384.7c0,0.3,0,0.5,0,0.8s0.1,0.5,0.2,0.7c0.1,0.2,0.2,0.4,0.4,0.5c0.2,0.1,0.4,0.2,0.7,0.2
			c0.3,0,0.6-0.1,0.8-0.2c0.2-0.1,0.3-0.3,0.4-0.6c0.1-0.2,0.1-0.5,0.2-0.7c0-0.2,0-0.5,0-0.9V382c0-0.3,0-0.7,0-0.9
			s-0.1-0.5-0.2-0.8s-0.2-0.5-0.4-0.6c-0.2-0.2-0.4-0.3-0.8-0.3c-0.3,0-0.6,0.1-0.7,0.2c-0.2,0.1-0.3,0.3-0.4,0.6
			c-0.1,0.2-0.1,0.5-0.2,0.8s0,0.6,0,1V384.7z"/>
		<path d="M192.7,388.2h-1.9v-10.1h3l1,4.7c0.1,0.7,0.3,1.5,0.4,2.3h0c0.1-0.6,0.1-1.1,0.1-1.4c0-0.3,0.1-0.6,0.2-0.9l1-4.7h3v10.1
			h-1.9V385c0-2.2,0.1-4.2,0.2-6h0l-2,9.2h-1.1l-2-9.2h-0.1c0.1,1.8,0.2,3.8,0.2,6V388.2z"/>
		<path d="M201.2,382.3c0-0.8,0.1-1.4,0.1-1.9c0.1-0.5,0.2-0.9,0.4-1.3s0.5-0.7,1-0.9c0.4-0.2,1-0.3,1.8-0.3s1.3,0.1,1.8,0.3
			c0.4,0.2,0.8,0.5,1,0.9s0.4,0.8,0.4,1.3c0.1,0.5,0.1,1.1,0.1,1.9v1.4c0,0.8,0,1.5-0.1,2c-0.1,0.5-0.2,1-0.4,1.4s-0.5,0.7-1,0.9
			c-0.4,0.2-1,0.3-1.8,0.3s-1.3-0.1-1.8-0.3c-0.4-0.2-0.8-0.5-1-0.9s-0.4-0.9-0.4-1.4c-0.1-0.5-0.1-1.2-0.1-2V382.3z M203.1,384.7
			c0,0.3,0,0.5,0,0.8s0.1,0.5,0.2,0.7c0.1,0.2,0.2,0.4,0.4,0.5c0.2,0.1,0.4,0.2,0.7,0.2c0.3,0,0.6-0.1,0.8-0.2
			c0.2-0.1,0.3-0.3,0.4-0.6c0.1-0.2,0.1-0.5,0.2-0.7c0-0.2,0-0.5,0-0.9V382c0-0.3,0-0.7,0-0.9s-0.1-0.5-0.2-0.8
			c-0.1-0.3-0.2-0.5-0.4-0.6s-0.4-0.3-0.8-0.3c-0.3,0-0.5,0.1-0.7,0.2c-0.2,0.1-0.3,0.3-0.4,0.6s-0.1,0.5-0.2,0.8s0,0.6,0,1V384.7z"
			/>
		<path d="M208.8,378.1h6.3v1.5h-2.2v8.6H211v-8.6h-2.2V378.1z"/>
		<path d="M216.1,382.3c0-0.8,0.1-1.4,0.1-1.9c0.1-0.5,0.2-0.9,0.4-1.3s0.5-0.7,1-0.9c0.4-0.2,1-0.3,1.8-0.3s1.3,0.1,1.8,0.3
			c0.4,0.2,0.8,0.5,1,0.9s0.4,0.8,0.4,1.3c0.1,0.5,0.1,1.1,0.1,1.9v1.4c0,0.8,0,1.5-0.1,2c-0.1,0.5-0.2,1-0.4,1.4s-0.5,0.7-1,0.9
			c-0.4,0.2-1,0.3-1.8,0.3s-1.3-0.1-1.8-0.3c-0.4-0.2-0.8-0.5-1-0.9s-0.4-0.9-0.4-1.4c-0.1-0.5-0.1-1.2-0.1-2V382.3z M218.1,384.7
			c0,0.3,0,0.5,0,0.8s0.1,0.5,0.2,0.7c0.1,0.2,0.2,0.4,0.4,0.5c0.2,0.1,0.4,0.2,0.7,0.2c0.3,0,0.6-0.1,0.8-0.2
			c0.2-0.1,0.3-0.3,0.4-0.6c0.1-0.2,0.1-0.5,0.2-0.7c0-0.2,0-0.5,0-0.9V382c0-0.3,0-0.7,0-0.9s-0.1-0.5-0.2-0.8
			c-0.1-0.3-0.2-0.5-0.4-0.6s-0.4-0.3-0.8-0.3c-0.3,0-0.5,0.1-0.7,0.2c-0.2,0.1-0.3,0.3-0.4,0.6s-0.1,0.5-0.2,0.8s0,0.6,0,1V384.7z"
			/>
		<path d="M226.3,383.8v4.4h-1.9v-10.1h3.6c0.4,0,0.8,0,1.2,0.1c0.3,0.1,0.6,0.2,0.9,0.4s0.5,0.4,0.6,0.8c0.1,0.3,0.2,0.7,0.2,1.1
			c0,0.3,0,0.6-0.1,0.9c0,0.3-0.1,0.5-0.2,0.7c-0.1,0.2-0.3,0.4-0.5,0.6s-0.5,0.2-0.8,0.3v0c0.5,0.1,0.9,0.3,1.1,0.6
			c0.2,0.3,0.3,0.7,0.3,1.3c0,0.4,0,0.8,0,1.1c0,0.3,0,0.6,0.1,0.9c0,0.3,0.1,0.6,0.1,0.8c0.1,0.2,0.1,0.3,0.2,0.4v0.2h-2.1
			c-0.1-0.2-0.1-0.5-0.2-0.9c0-0.4,0-0.8,0-1.3c0-0.2,0-0.4,0-0.4v-0.1c0-0.2,0-0.4,0-0.6c0-0.1,0-0.3-0.1-0.4
			c0-0.1-0.1-0.3-0.2-0.4s-0.2-0.2-0.4-0.2c-0.2-0.1-0.4-0.1-0.6-0.1s-0.6,0-1,0H226.3z M226.3,382.3h1.5c0.3,0,0.6-0.1,0.8-0.4
			c0.2-0.2,0.3-0.6,0.3-1.1c0-0.5-0.1-0.9-0.3-1.1c-0.2-0.2-0.5-0.3-0.9-0.3h-1.4V382.3z"/>
	</g>
	<g>
		<g>
			<path class="st0" d="M180.6,33.6L64.8,234.2c-7.9,13.7,2,30.9,17.8,30.9h231.7c15.8,0,25.7-17.2,17.8-30.9L216.3,33.6
				C208.3,19.9,188.5,19.9,180.6,33.6z"/>
			<path class="st2" d="M314.3,275.3H82.6c-11.1,0-21.1-5.8-26.7-15.4c-5.6-9.6-5.6-21.1,0-30.8L171.8,28.5
				c5.6-9.6,15.5-15.4,26.7-15.4c11.1,0,21.1,5.8,26.7,15.4l115.8,200.6c5.6,9.6,5.6,21.1,0,30.8
				C335.4,269.5,325.4,275.3,314.3,275.3z M189.4,38.7L73.6,239.3c-2.7,4.7-0.9,8.8,0,10.4c0.9,1.6,3.6,5.2,9,5.2h231.7
				c5.4,0,8.1-3.6,9-5.2c0.9-1.6,2.7-5.7,0-10.4L207.4,38.7c-2.7-4.7-7.2-5.2-9-5.2S192.1,34,189.4,38.7L189.4,38.7z"/>
		</g>
		<path d="M251.6,194.9c-5.7,21.1-28.1,36.8-54.8,36.8s-49.1-15.7-54.8-36.8h-35.2v49h179.9v-49H251.6z"/>
	</g>
	<g>
		<path d="M78,278.7h2.4h7.2c2.6,0,4.6,0.6,6,1.8s2,3,2,5.4c0,2.5-0.7,4.4-2,5.6s-3.4,1.9-6,1.9c-1.9,0-3.5,0-4.8,0v8.2h-2.4H78
			V278.7z M82.8,289.5h4c1.3,0,2.4-0.3,3-0.9s1-1.5,1-2.7c0-1.1-0.3-1.9-1-2.5s-1.7-0.8-3-0.8h-4V289.5z"/>
		<path d="M99.4,301.7v-23h16.9v2v2h-12.1v4.9h11.2v2v2h-11.2v6h12.6v2v2H99.4z"/>
		<path d="M120.7,301.7v-23h2.4h2.4v18.9H137v2v2H120.7z"/>
		<path d="M139.9,278.7h2.4h2.4v23h-2.4h-2.4V278.7z"/>
		<path d="M159,302.3c-3.3,0-6-1.1-8-3.2s-2.9-5.1-2.9-8.8c0-3.8,1-6.7,3.1-8.9s4.8-3.3,8.3-3.3c2.8,0,5.1,0.7,6.9,2.1
			s2.9,3.3,3.2,5.7h-4.8c-0.1-1-0.7-1.9-1.7-2.6s-2.1-1.1-3.3-1.1c-2.1,0-3.7,0.7-4.9,2.2c-1.2,1.4-1.8,3.4-1.8,6
			c0,2.6,0.6,4.6,1.7,5.9s2.8,2,5,2h0c1.9,0,3.3-0.7,4.3-2.1c0.6-0.8,1-1.7,1.3-2.8v0h-5.4v-4h9.6v12.4h-3.2l-0.5-3l-0.3,0.4
			C164,301.3,161.8,302.3,159,302.3L159,302.3z"/>
		<path d="M174.1,278.7h2.4h9.2c2.2,0,4,0.6,5.3,1.8s2,2.7,2,4.6c0,2.2-0.7,3.8-2.2,4.8c-0.4,0.3-0.8,0.5-1.3,0.7
			c0.3,0.1,0.5,0.2,0.8,0.4c1.3,0.8,2,2.1,2,3.9l0.1,3.8c0,0.8,0.1,1.3,0.2,1.6s0.4,0.6,0.8,0.8v0.6H188c-0.1-0.2-0.2-0.8-0.3-1.5
			s-0.1-1.6-0.2-2.5l0-2.1c0-1-0.3-1.8-0.9-2.2s-1.6-0.7-2.9-0.7h-4.8v9.1h-2.4h-2.4V278.7z M178.9,288.8h5.6c1.2,0,2.2-0.3,2.8-0.8
			s0.9-1.3,0.9-2.3c0-1-0.3-1.8-0.9-2.3s-1.5-0.8-2.6-0.8h-5.8V288.8z"/>
		<path d="M199.1,299.1c-2-2.2-3-5.1-3-8.8c0-3.8,1-6.7,3-8.9s4.7-3.3,8-3.3c3.4,0,6.1,1.1,8.1,3.3s3,5.2,3,8.9c0,3.7-1,6.6-3,8.8
			s-4.7,3.2-8.1,3.2C203.8,302.3,201.1,301.3,199.1,299.1z M211.8,296.1c1.1-1.4,1.7-3.3,1.7-5.8c0-2.5-0.6-4.5-1.7-6
			s-2.6-2.2-4.6-2.2c-1.9,0-3.5,0.7-4.6,2.2s-1.7,3.4-1.7,6c0,2.5,0.5,4.4,1.6,5.8s2.6,2.1,4.6,2.1S210.7,297.6,211.8,296.1z"/>
		<path d="M229.1,278.7h2.5h2.5l5.1,17.5h0l5-17.5h2.5h2.5l-7.8,23h-2.3h-2.3L229.1,278.7z"/>
		<path d="M258.6,278.7h2.8h2.8l8.1,23h-2.5h-2.5l-1.6-4.7H257l-1.5,4.7H253h-2.5L258.6,278.7z M258.3,293.1h6.1l-3.1-9.2h0
			L258.3,293.1z"/>
		<path d="M275.4,278.7h2.4h7.4c3.2,0,5.6,0.9,7.2,2.8s2.5,4.6,2.5,8.1c0,3.9-0.9,6.9-2.6,9s-4.2,3.1-7.5,3.1h-7h-2.4V278.7z
			 M280.2,297.8h4c1.9,0,3.4-0.7,4.4-2s1.5-3.3,1.5-5.9c0-2.4-0.5-4.2-1.4-5.4s-2.3-1.8-4.1-1.8h-4.4V297.8z"/>
		<path d="M300.5,299.1c-2-2.2-3-5.1-3-8.8c0-3.8,1-6.7,3-8.9s4.7-3.3,8-3.3c3.4,0,6.1,1.1,8.1,3.3s3,5.2,3,8.9c0,3.7-1,6.6-3,8.8
			s-4.7,3.2-8.1,3.2C305.1,302.3,302.5,301.3,300.5,299.1z M313.1,296.1c1.1-1.4,1.7-3.3,1.7-5.8c0-2.5-0.6-4.5-1.7-6
			s-2.6-2.2-4.6-2.2c-1.9,0-3.5,0.7-4.6,2.2s-1.7,3.4-1.7,6c0,2.5,0.5,4.4,1.6,5.8s2.6,2.1,4.6,2.1S312,297.6,313.1,296.1z"/>
		<path d="M106.1,304.7h2.4h2.4v23h-2.4h-2.4V304.7z"/>
		<path d="M119.6,327.7h-2.2h-2.3v-23h2.5h2.5l9.2,16.1v-16.1h2.2h2.3v23h-2.4h-2.4l-9.5-16.6V327.7z"/>
		<path d="M156.9,319c0,3.3-0.7,5.6-2.2,7.1s-3.8,2.2-7.1,2.2c-3.1,0-5.5-0.8-7-2.3s-2.3-3.9-2.3-7v-14.3h2.4h2.4v14.5
			c0,1.6,0.4,2.9,1.1,3.7s1.9,1.2,3.4,1.2c1.6,0,2.8-0.4,3.4-1.1s1-2,1-3.8v-14.5h2.4h2.4V319z"/>
		<path d="M165.9,327.7h-2.2h-2.3v-23h2.5h2.5l9.2,16.1v-16.1h2.2h2.3v23h-2.4h-2.4l-9.5-16.6V327.7z"/>
		<path d="M184.7,304.7h2.4h7.4c3.2,0,5.6,0.9,7.2,2.8s2.5,4.6,2.5,8.1c0,3.9-0.9,6.9-2.6,9s-4.2,3.1-7.5,3.1h-7h-2.4V304.7z
			 M189.5,323.8h4c1.9,0,3.4-0.7,4.4-2s1.5-3.3,1.5-5.9c0-2.4-0.5-4.2-1.4-5.4s-2.3-1.8-4.1-1.8h-4.4V323.8z"/>
		<path d="M214.2,304.7h2.8h2.8l8.1,23h-2.5h-2.5l-1.6-4.7h-8.7l-1.5,4.7h-2.5H206L214.2,304.7z M213.8,319.1h6.1l-3.1-9.2h0
			L213.8,319.1z"/>
		<path d="M230.9,304.7h2.3h8.8c2.2,0,4,0.5,5.2,1.5s1.9,2.5,1.9,4.3c0,1.9-0.7,3.4-2.1,4.3c-0.2,0.2-0.5,0.3-0.8,0.5
			c0.5,0.2,1,0.5,1.4,0.8c1.5,1,2.2,2.5,2.2,4.4c0,2.3-0.7,4.1-2.2,5.4s-3.6,1.8-6.4,1.8h-8.1h-2.3V304.7z M235.5,313.7h5.5
			c1.2,0,2.1-0.2,2.7-0.7s0.9-1.1,0.9-2c0-0.8-0.3-1.4-0.9-1.8s-1.6-0.6-2.8-0.6h-5.3V313.7z M235.5,323.7h5.8
			c1.3,0,2.2-0.3,2.8-0.8s0.9-1.4,0.9-2.5c0-1-0.3-1.7-1-2.1s-1.6-0.7-2.9-0.7h-5.7V323.7z"/>
		<path d="M254.1,327.7v-23h2.4h2.4v18.9h11.4v2v2H254.1z"/>
		<path d="M273.6,327.7v-23h16.9v2v2h-12.1v4.9h11.2v2v2h-11.2v6H291v2v2H273.6z"/>
	</g>
</g>
</svg>
